<svg width="300" height="300" viewBox="0 0 300 300" fill="none" xmlns="http://www.w3.org/2000/svg">
<g clip-path="url(#clip0_1415_10707)">
<path d="M129.921 121.412C131.86 122.859 134.676 122.302 135.629 120.289C151.263 87.3938 185.482 64.6557 228.708 76.2232C235.083 77.2317 237.757 71.5141 232.592 67.9411C225.893 63.5696 217.565 65.5363 210.15 65.1622C267.906 43.647 158.956 54.5027 128.867 115.037C128.666 115.439 128.557 115.877 128.538 116.324L128.442 118.469C128.392 119.587 128.944 120.686 129.916 121.412H129.921Z" fill="#80A187"/>
<path d="M206.162 75.6802C205.966 75.6574 205.774 75.6346 205.578 75.6118C204.985 75.5387 204.341 75.5798 203.693 75.7121C202.913 75.6848 202.133 75.6209 201.348 75.6346C199.737 75.6665 198.113 75.8673 196.511 76.0133C193.171 76.3099 189.84 76.7252 186.554 77.3959C180.754 78.5869 175.046 80.3802 169.575 82.639C158.253 87.3116 147.836 93.878 138.276 101.498C132.586 106.034 127.224 110.985 122.387 116.42C121.274 117.67 121.767 118.907 123.4 119.144C125.198 119.404 127.644 118.478 128.853 117.123C138.418 106.386 150.163 97.127 162.862 90.3644C168.772 87.2158 175.018 84.6103 181.498 82.9037C184.943 81.9956 188.42 81.3294 191.966 80.9643C193.736 80.7818 195.512 80.6312 197.291 80.4989C199.071 80.362 200.841 80.6403 202.621 80.4441C204.314 80.2616 206.399 79.5771 207.408 78.1032C208.247 76.8757 207.659 75.8627 206.166 75.6848L206.162 75.6802Z" fill="#95CC92"/>
<path d="M119.649 113.458C119.928 113.34 119.841 113.636 119.868 113.75C120.261 112.938 120.799 111.939 120.014 111.934C119.672 112.906 119.376 112.929 119.175 114.047C118.709 114.631 118.217 114.969 118.121 114.736C118.093 114.891 117.879 115.101 117.696 115.366C117.527 115.639 117.368 115.95 117.413 116.214C118.258 115.53 118.983 114.626 119.649 113.458Z" fill="#EDDECE"/>
<path d="M128.242 107.75C127.973 107.832 127.758 107.932 127.566 108.042C127.785 107.973 127.995 107.909 128.214 107.846C128.223 107.814 128.228 107.786 128.246 107.754L128.242 107.75Z" fill="#EDDECE"/>
<path d="M105.531 130.597C105.545 130.629 105.572 130.634 105.59 130.657C105.618 130.565 105.613 130.524 105.531 130.597Z" fill="#EDDECE"/>
<path d="M128.689 107.754L129.392 107.699C129.072 107.704 128.853 107.722 128.689 107.754Z" fill="#EDDECE"/>
<path d="M75.3732 154.244C74.999 154.139 76.3908 152.774 74.6385 154.344C74.9306 154.23 75.177 154.234 75.3732 154.244Z" fill="#EDDECE"/>
<path d="M128.287 108.005C128.347 107.868 128.461 107.791 128.684 107.754C128.516 107.768 128.356 107.791 128.21 107.841C128.182 107.919 128.182 107.983 128.287 108.001V108.005Z" fill="#EDDECE"/>
<path d="M234.467 202.795C234.134 203.471 233.714 204.096 233.322 204.73C233.669 204.205 234.139 203.53 234.467 202.795Z" fill="#EDDECE"/>
<path d="M86.7765 235.901C86.9179 236.033 87.064 236.138 87.1963 236.184L86.7765 235.901Z" fill="#EDDECE"/>
<path d="M229.146 209.927C228.731 210.078 228.38 210.315 227.987 210.53C227.937 210.617 227.873 210.703 227.86 210.785C228.311 210.53 228.722 210.224 229.146 209.927Z" fill="#EDDECE"/>
<path d="M236.397 192.1C236.041 187.445 235.038 183.238 233.805 179.295C234.686 179.213 234.891 183.749 235.644 183.42C235.042 181.499 234.586 179.998 233.883 178.583C233.564 177.867 233.262 177.155 232.97 176.384C232.669 175.617 232.281 174.833 231.957 173.911C231.656 172.939 232.478 174.312 232.729 174.582C231.017 171.009 229.352 167.678 227.034 165.036C227.093 165.004 227.39 165.255 227.641 165.515C227.216 164.972 226.765 164.169 226.546 164.429L227.025 164.908C227.28 166.053 224.57 163.361 224.305 163.438C225.811 163.703 222.302 160.701 224.419 161.307C224.072 161.006 223.584 160.687 223.479 160.91C223.091 160.367 223.05 160.116 223.689 160.459C221.941 158.72 222.238 159.646 220.718 158.049C220.842 157.94 221.197 158.214 221.494 158.246C220.472 157.671 219.505 157.064 218.218 155.731C218.368 155.731 218.295 155.494 218.701 155.873C216.324 153.723 214.12 152.879 211.597 150.497C212.842 150.575 210.812 149.585 211.045 148.982C210.52 148.636 209.981 148.316 209.443 147.992L209.863 148.677C208.553 147.696 207.143 147.175 206.121 146.203L207.253 146.71L204.702 145.022L205.975 146.213C204.451 145.514 205.665 146.947 204.004 145.551C204.396 145.756 202.689 144.597 202.192 143.826H202.197C201.425 143.529 200.627 143.228 199.728 142.421C199.582 142.083 200.317 142.005 200.225 141.782C199.281 141.754 196.999 139.756 195.863 139.646C196.21 139.728 196.406 139.473 196.351 139.354L195.566 139.327C195.019 138.793 194.964 138.679 195.21 138.537C193.385 137.205 195.366 139.582 193.335 137.803C193.527 137.894 193.481 137.784 193.878 137.981C191.752 136.32 189.424 135.275 187.526 133.682C187.284 132.76 189.379 134.796 188.995 133.888C186.02 131.948 182.548 130.251 179.919 128.024L180.389 128.467C179.468 128.877 178.614 126.577 177.026 125.793C177.396 126.012 177.766 125.765 177.615 125.77C176.748 124.98 175.776 124.278 174.704 123.461C173.618 122.658 172.367 121.804 171.003 120.659L171.478 120.8C171.044 120.253 170.405 119.609 169.748 118.962C169.118 118.291 168.48 117.611 168.005 117.04C167.54 116.876 166.974 116.233 167.092 116.831C166.508 115.804 165.924 114.832 165.208 114.006C164.487 113.18 163.748 112.4 163.054 111.597C161.58 110.059 160.284 108.421 159.641 106.436C159.905 106.842 160.435 107.298 160.225 106.974C159.508 106.071 158.943 105.076 158.322 104.104C158.121 104.524 158.336 104.61 158.427 105.395C158.021 105.122 157.396 104.337 156.976 103.575C157.952 104.839 157.51 103.278 157.377 102.598C157.327 102.749 157.104 102.603 157.021 102.708C156.885 100.764 156.205 102.762 155.598 100.294L155.835 100.335C155.611 99.956 155.288 99.4541 155.041 99.0845C154.964 99.0023 154.945 98.8472 154.822 98.8289L154.439 98.7787C154.188 98.7422 153.941 98.692 153.69 98.6236C153.385 98.108 154.827 98.6647 155.155 98.3681C153.275 97.9482 151.943 98.5597 150.647 98.1947C151.263 98.0121 152.148 98.108 152.787 98.0486C151.381 97.3778 151.167 97.5421 150.063 97.5011L150.172 97.5102C149.31 97.4554 148.447 97.5467 147.58 97.638C147.804 97.6197 148.028 97.6288 148.256 97.6425C147.831 97.9711 147.43 98.295 146.987 98.4867C146.54 98.6692 146.097 98.8563 145.627 99.048C145.157 99.2259 144.66 99.4084 144.195 99.7142C143.848 99.9195 143.501 100.157 143.186 100.467C144.272 99.2077 142.958 100.216 142.858 99.7507C142.246 99.988 141.315 100.421 141.475 100.148C140.754 101.188 139.618 101.188 138.847 102.858C138.669 102.803 138.016 103.867 137.87 103.401C136.966 104.747 138.331 103.269 138.395 103.511C138.112 104.067 137.738 104.597 137.368 105.19C136.948 105.756 136.565 106.395 136.163 107.079C136.068 107.252 135.949 107.417 135.88 107.608L135.689 108.042C135.598 108.252 135.511 108.398 135.47 108.603C135.388 109 135.337 109.434 135.438 110.25C135.447 110.483 135.452 110.702 135.461 110.898C135.424 110.926 135.356 110.821 135.315 110.807C135.178 110.693 135.059 110.597 134.95 110.501C134.781 110.438 134.603 110.365 134.397 110.26C134.288 110.2 134.178 110.141 134.06 110.077C133.905 110.027 133.749 109.972 133.581 109.917C133.403 109.863 133.216 109.776 133.006 109.694C132.723 109.552 132.431 109.429 132.134 109.333C132.07 109.21 132.239 109.164 132.481 109.155C132.645 109.151 132.837 109.16 132.992 109.174C133.111 109.206 133.197 109.228 133.197 109.228C131.974 108.434 130.619 108.211 129.259 108.539C129.538 108.38 129.241 108.279 128.771 108.133C127.617 108.357 128.105 108.804 126.617 108.955C126.8 108.685 127.046 108.339 127.571 108.046C126.211 108.462 125.102 109.288 123.952 110.009C123.487 109.922 124.509 109.274 124.888 108.895C123.437 109.589 121.466 111.136 121.379 111.779L122.04 111.446C121.835 111.478 121.863 111.131 122.095 110.885C123.031 109.876 123.811 110.022 123.939 110.132L123.163 110.711C123.816 110.835 124.61 110.387 125.522 109.812C126.001 109.557 126.508 109.283 127.001 109.023C127.525 108.827 128.059 108.649 128.543 108.567C128.356 108.786 128.192 109.005 128.027 109.224C123.245 110.182 118.249 114.439 117.208 118.026C117.172 118.108 117.131 118.186 117.094 118.263C116.902 118.058 116.729 117.816 116.501 117.698C116.615 117.602 116.738 117.405 116.838 117.077C116.743 116.831 116.647 116.566 116.569 116.306C116.432 116.73 116.323 117.168 116.209 117.593C116.209 117.606 116.213 117.615 116.218 117.629C115.848 117.629 115.324 117.948 114.466 118.998L113.914 120.983L113.284 121.362L114.069 119.874C113.307 120.536 113.293 121.216 113.147 121.923C112.914 121.964 112.64 122.124 112.344 122.402L111.814 124.41C111.431 124.428 111.833 123.351 110.943 124.323C110.687 125.272 112.002 123.99 111.294 125.373C110.45 125.948 110.414 125.555 109.966 126.637C109.702 126.628 109.788 126.386 109.966 125.966C109.551 126.91 108.31 128.019 108.283 128.69C107.79 128.923 107.251 129.575 106.777 130.105C106.279 130.616 105.805 130.958 105.595 130.671C105.49 131.008 104.701 132.295 104.043 132.957C104.367 132.053 103.729 132.642 102.976 133.322C102.191 133.979 101.237 134.682 101.118 134.189C100.881 134.882 100.055 135.667 99.1061 136.493C98.1251 137.287 96.9934 138.095 96.2131 138.939C96.277 138.816 96.4048 138.565 96.5873 138.483C95.5241 139.172 95.1088 139.208 94.3468 139.546C94.5795 140.166 93.0235 141.408 92.3618 142.343C90.7236 142.713 92.7223 141.179 91.9785 140.965C92.339 141.353 90.0301 142.927 90.71 142.986C89.4962 143.338 89.7426 143.411 88.9303 143.315C89.2041 144.1 88.077 144.054 87.5249 145.022C85.8548 145.67 86.7263 144.647 85.2753 145.948C84.3763 146.267 85.6312 145.054 85.6312 145.054C84.0021 146.167 85.2068 146.071 85.0608 146.596C83.231 148.074 83.9109 146.847 83.0758 147.052C81.9533 148.01 81.392 149.188 80.4931 149.813C80.3653 149.781 80.1737 149.881 80.2969 149.63C79.3112 150.89 76.6646 152.569 75.6699 154.212C75.5284 154.257 75.4463 154.267 75.3869 154.253C75.8159 154.285 76.0577 154.49 76.1581 154.691C75.4691 155.248 75.2364 156.101 74.7162 156.037C75.1086 155.663 75.031 155.512 75.1268 155.243L74.5884 156.028C73.5982 156.21 75.3504 154.983 75.063 154.673C73.9039 156.128 72.7084 157.908 71.6725 158.843C70.9972 158.633 73.8172 156.37 72.1243 157.351L73.8127 155.955C72.0148 156.512 74.7983 155.056 73.046 155.476C71.9646 156.452 71.4307 157.073 70.9287 157.707C70.4679 158.392 70.0116 159.067 69.035 160.153C68.8708 160.851 69.5324 160.272 69.3682 160.965C68.2684 162.681 67.6889 163.242 67.0227 163.616C66.393 164.009 65.8363 164.324 65.3526 165.807C65.2294 166.651 65.7952 167.267 64.5632 169.033L64.2939 168.097C63.103 170.666 64.3715 169.886 62.9478 172.455C62.8018 171.853 63.5821 170.347 63.3266 170.703C62.6832 171.474 62.6603 171.83 62.7333 172.159C62.7927 172.478 62.9296 172.765 62.7151 173.459L62.0945 173.573C61.7249 175.029 61.296 176.539 61.0815 178.141C60.9857 178.944 60.8898 179.756 60.7986 180.573C60.7438 181.39 60.6891 182.211 60.6343 183.033C60.4883 182.836 60.3833 182.252 60.1232 183.005C59.9818 187.19 59.8723 191.922 60.3696 196.001C60.5978 196.485 60.9172 196.946 61.1864 197.411C61.2686 197.758 61.1363 198.109 60.9492 197.753C61.1499 199.337 61.264 197.758 61.6291 198.447C61.8709 199.3 61.6473 199.67 61.369 199.154C61.9804 200.436 62.7516 202.262 63.6734 204.037C64.0749 204.949 64.5769 205.816 64.9875 206.656C65.3754 207.509 65.7678 208.285 66.069 208.969L65.6401 208.559C66.1785 209.585 66.7307 210.005 67.2509 210.398C67.8121 210.772 68.3186 211.123 68.7886 212.1L68.4738 211.835C69.1491 212.88 70.0891 213.761 70.947 214.701C71.8779 215.568 72.8498 216.403 73.8309 217.156C74.8713 217.831 75.7885 218.63 76.7924 219.168C77.0342 219.319 77.2715 219.465 77.5042 219.611C77.7506 219.766 77.6913 219.761 77.7917 219.848C77.9651 219.944 77.9012 220.195 77.8465 220.341C77.9423 220.364 77.9834 220.286 78.0746 220.482C78.1613 220.651 78.2389 220.861 78.3073 221.098C78.4488 221.577 78.5629 222.166 78.7545 222.727C79.115 223.854 79.4527 224.94 79.9957 224.89C80.7395 227.646 80.1098 227.053 81.9898 230.699C82.5876 231.63 83.377 231.717 84.3216 232.652L83.952 232.999C84.4904 233.346 84.9741 233.729 85.5399 234.017L85.7863 235.125C86.1194 235.39 86.4389 235.668 86.7765 235.919C86.4297 235.554 86.1742 235.002 86.3293 234.957C87.0686 235.595 87.9538 236.367 88.579 237.11C89.2361 237.818 89.7243 238.374 89.665 238.507C90.3358 238.917 91.0294 239.273 91.7412 239.588C92.4439 239.926 93.1421 240.254 93.8722 240.505C93.7718 240.578 93.4752 240.528 93.133 240.432C94.2327 240.884 92.8364 240.952 94.7757 241.464C94.5476 241.226 95.0495 241.263 95.1362 241.19C95.588 241.555 96.423 241.956 97.363 242.358C98.3213 242.705 99.389 243.024 100.315 243.211L99.8682 243.458C103.167 244.493 106.982 244.781 110.77 244.859C109.41 244.653 109.761 244.074 110.852 244.033L111.285 244.571C111.997 244.243 110.14 244.366 111.6 243.964C112.992 244.028 112.549 244.576 111.737 244.749C112.312 244.681 112.882 244.649 113.448 244.544C113.553 244.699 113.156 244.804 113.056 245.014C113.74 244.644 116.076 245.42 117.039 244.699L117.153 244.849C120.927 244.398 122.593 243.887 125.559 243.074C125.499 242.623 126.686 242.408 127.434 241.765C129.611 241.267 132.079 240.697 134.534 239.52C136.15 238.479 134.867 238.922 135.511 238.306C135.839 238.662 138.185 237.293 137.103 238.242C138.532 237.443 139.403 236.868 140.348 236.207C140.827 235.892 141.297 235.509 141.854 235.052C142.41 234.601 143.058 234.08 143.798 233.355C143.341 233.496 142.903 233.747 143.022 233.473C143.556 232.958 144.45 232.565 144.5 232.784L144.372 232.94L144.929 232.387C145.016 232.283 145.112 232.178 145.212 232.077C145.413 231.876 145.636 231.689 145.855 231.53C146.043 231.708 146.221 231.899 146.38 232.082L146.608 232.351C146.649 232.401 146.659 232.429 146.727 232.492L147.01 232.739C147.767 233.387 148.484 234.103 149.26 234.669C150.775 235.865 152.331 236.791 153.754 237.129L153.549 237.078C154.767 237.507 155.972 237.927 157.209 238.251C158.797 238.999 156.118 238.137 157.213 238.881C161.283 239.752 163.346 241.14 166.773 241.418C167.927 242.289 170.264 242.709 172.723 242.828C175.183 243.006 177.747 242.86 179.55 243.202L179.331 242.919C180.239 242.577 180.453 243.015 181.142 243.038C181.028 242.819 180.125 242.842 180.686 242.645C184.555 242.221 188.535 241.61 192.473 240.478C196.401 239.351 200.262 237.617 203.639 235.226C204.875 234.35 204.953 233.77 205.135 233.191C205.304 232.588 205.674 232.118 207.193 231L206.837 232.155C208.772 229.8 210.67 227.4 212.299 224.822C213.942 222.253 215.151 219.446 215.886 216.64C215.909 217.01 216.037 217.069 215.836 217.603C216.041 217.347 216.256 216.959 216.402 216.499C216.479 216.27 216.552 216.024 216.621 215.778C216.63 215.718 216.621 215.691 216.621 215.636C216.607 215.536 216.575 215.422 216.543 215.276C216.552 215.198 216.566 215.116 216.525 215.038C216.794 215.075 216.726 215.326 216.876 215.49C216.863 215.522 217.018 215.522 216.853 215.545C217.04 215.527 217.232 215.499 217.424 215.463C217.812 215.39 218.209 215.289 218.578 215.189C219.308 214.933 219.938 214.701 220.335 214.815C220.472 214.851 220.002 215.02 219.765 215.102C220.189 214.956 221.143 214.632 221.9 214.372C222.644 214.08 223.137 213.77 222.681 213.733C224.921 213.012 226.463 211.507 228.001 210.553C228.59 209.453 230.985 208.029 230.648 207.24C230.862 207.532 231.652 206.893 232.336 205.912C233.048 204.954 233.627 203.667 233.801 202.964C233.787 203.498 234.554 201.951 234.59 202.595C235.316 201.103 235.658 199.606 235.206 199.756C235.425 199.437 235.608 199.095 235.758 198.748C235.813 198.602 235.964 198.301 236.005 198.013L236.051 197.361C236.082 196.663 236.041 195.974 236.005 195.335C235.923 194.048 235.904 192.939 236.416 192.127L236.397 192.1ZM60.8625 182.07C60.8442 182.271 60.826 182.549 60.7849 183.037H60.7758C60.8123 182.636 60.8442 182.289 60.8625 182.07ZM60.9583 185.679C60.867 185.46 60.721 186.377 60.575 186.966C60.5978 186.487 60.6297 185.894 60.6571 185.264C60.8214 185.132 60.9811 185.291 60.9537 185.684L60.9583 185.679ZM130.113 109.005C129.519 108.991 128.908 109.046 128.297 109.155C128.753 108.927 129.237 108.758 129.748 108.585C130.012 108.681 130.199 108.854 130.113 109.005ZM136.131 111.537C136.058 111.232 136.008 110.807 136.017 110.118C136.131 110.123 136.25 110.104 136.378 110.073C136.268 110.552 136.186 111.04 136.131 111.537ZM161.644 111.268C161.393 110.926 161.142 110.584 160.896 110.237C161.083 110.214 161.393 110.401 161.954 110.99C161.89 111.095 161.79 111.227 161.644 111.268Z" fill="#EDDECE"/>
<path d="M122.036 111.437C122.091 111.428 122.159 111.4 122.25 111.327L122.036 111.437Z" fill="#EDDECE"/>
<path d="M93.1375 240.414C92.955 240.341 92.7131 240.254 92.3663 240.154C92.6127 240.245 92.8865 240.341 93.1375 240.414Z" fill="#EDDECE"/>
<path d="M83.8652 233.058L83.9473 232.981L83.6416 232.766L83.8652 233.058Z" fill="#EDDECE"/>
<path d="M157.364 102.306C157.364 102.306 157.345 102.461 157.377 102.603C157.396 102.552 157.396 102.466 157.364 102.306Z" fill="#EDDECE"/>
<path d="M148.666 97.4964C149.278 97.4964 149.707 97.469 150.058 97.501C149.593 97.4371 149.136 97.4918 148.666 97.4964Z" fill="#EDDECE"/>
<path d="M142.876 99.4995C142.839 99.6227 142.848 99.6912 142.853 99.7505H142.867L142.871 99.4995H142.876Z" fill="#EDDECE"/>
<path d="M227.645 165.519C227.7 165.601 227.759 165.679 227.814 165.743C228.243 166.245 227.974 165.889 227.645 165.519Z" fill="#EDDECE"/>
<path d="M202.201 143.835C202.539 143.967 202.872 144.095 203.205 144.264C202.74 143.899 202.365 143.63 202.201 143.835Z" fill="#EDDECE"/>
<path d="M234.581 202.577V202.567C234.535 202.645 234.504 202.713 234.467 202.796L234.581 202.577Z" fill="#EDDECE"/>
<path d="M203.2 144.264C203.579 144.57 204.017 144.939 204.455 145.167C204.026 144.748 203.611 144.478 203.2 144.264Z" fill="#EDDECE"/>
<path d="M121.63 110.488C121.63 110.488 121.648 110.542 121.639 110.574L121.935 110.292L121.63 110.488Z" fill="#EDDECE"/>
<path d="M121.639 110.574L121.347 110.857C121.497 110.748 121.625 110.652 121.639 110.574Z" fill="#EDDECE"/>
<path d="M120.735 111.446L121.347 110.857C121.11 111.026 120.808 111.231 120.735 111.446Z" fill="#EDDECE"/>
<path d="M131.714 107.955L131.874 107.827C131.801 107.841 131.746 107.878 131.714 107.955Z" fill="#EDDECE"/>
<path d="M133.325 108.375C133.635 108.658 133.969 108.977 134.192 108.945C133.987 108.799 133.754 108.553 133.521 108.329C133.471 108.224 133.088 108.087 132.846 107.983C132.572 107.873 132.289 107.786 132.006 107.722L131.874 107.823C132.157 107.777 132.75 108.069 133.325 108.37V108.375Z" fill="#EDDECE"/>
<path d="M189.935 134.627L189.342 134.691L190.57 135.38L189.935 134.627Z" fill="#EDDECE"/>
<path d="M129.341 109.616C128.146 112.943 127.014 116.128 125.198 119.176C123.56 121.928 121.712 124.538 119.7 127.029C115.465 132.254 110.514 136.877 105.645 141.499C100.877 146.026 95.8526 150.356 91.3442 155.143C88.9988 157.634 86.7309 160.281 84.9558 163.22C83.3268 165.916 81.3464 169.33 80.8581 172.455C80.5615 174.344 82.8933 173.938 83.8881 173.4C85.5445 172.51 87.0458 170.799 87.3424 168.901C87.5386 167.641 88.7387 165.921 89.3228 164.762C90.062 163.297 90.9244 162.001 91.942 160.714C93.7855 158.378 95.9211 156.288 98.0749 154.244C102.83 149.74 107.653 145.314 112.367 140.76C117.162 136.128 121.863 131.319 125.855 125.961C127.872 123.251 129.734 120.394 131.399 117.456C133.179 114.321 134.292 110.935 135.511 107.558C136.09 105.952 134.977 105.058 133.453 105.5C131.641 106.03 129.967 107.869 129.341 109.612V109.616Z" fill="#DEBE9F"/>
<path d="M79.3568 182.385C79.4937 186.482 79.8816 190.575 80.5706 194.614C80.6801 195.257 81.4559 195.467 81.9852 195.44C82.802 195.399 83.7739 194.86 84.39 194.372C85.7087 193.332 87.2602 191.607 86.9499 189.781C86.5483 187.422 86.2517 185.049 86.0509 182.663L86.1057 183.302C85.9825 181.814 85.8958 180.322 85.8456 178.83C85.8228 178.196 85.695 177.639 85.0197 177.415C84.3443 177.192 83.3769 177.561 82.8157 177.881C81.903 178.405 81.0452 179.117 80.4292 179.975C79.9546 180.637 79.3294 181.531 79.3614 182.38L79.3568 182.385Z" fill="#DEBE9F"/>
<path d="M115.25 234.847C115.091 234.811 114.917 234.788 114.776 234.756C114.132 234.605 113.494 234.482 112.841 234.363C111.084 234.049 109.743 233.464 108.232 232.524C105.111 230.581 102.227 228.413 99.6308 225.803C97.0663 223.225 94.7893 220.391 92.9139 217.274C90.9746 214.048 89.3409 210.649 87.324 207.468C86.4342 206.063 83.6142 208.271 82.9617 208.924C81.9122 209.973 80.5706 211.808 81.506 213.286C83.8515 216.987 85.6722 220.989 88.0724 224.653C90.4544 228.29 93.4797 231.58 96.8062 234.373C98.4398 235.741 100.174 236.955 101.985 238.078C103.87 239.246 105.545 240.305 107.758 240.706C109.168 240.962 110.733 241.518 112.175 241.468C114.799 241.377 117.778 238.603 117.92 235.965C118.011 234.299 116.396 234.377 115.25 234.852V234.847ZM115.62 234.966C115.853 235.016 115.921 234.884 115.62 234.966V234.966Z" fill="#DEBE9F"/>
<path d="M204.747 198.278C205.432 202.184 206.299 206.058 206.728 210.005C206.924 211.826 206.979 213.67 206.86 215.499C206.796 216.48 206.723 217.525 206.504 218.488C206.49 218.552 206.335 219.191 206.431 218.913C206.217 219.538 205.824 220.081 205.66 220.733C205.509 221.317 205.341 222.116 205.838 222.613C206.335 223.111 207.157 222.969 207.718 222.791C209.393 222.257 211.382 220.437 211.829 218.68C211.638 218.922 211.656 218.858 211.879 218.488C212.057 218.105 212.226 217.722 212.395 217.338C212.591 216.818 212.715 216.28 212.833 215.732C213.07 214.628 213.23 213.505 213.321 212.378C213.495 210.27 213.39 208.162 213.198 206.058C212.815 201.81 211.866 197.644 211.131 193.45C210.821 191.675 208.024 193.131 207.312 193.692C206.002 194.728 204.432 196.462 204.752 198.283L204.747 198.278Z" fill="#DEBE9F"/>
<path d="M168.119 223.311C168.105 223.252 168.092 223.193 168.082 223.134C167.462 220.195 162.652 224.776 162.169 225.762C161.721 226.67 161.352 227.286 160.964 227.683C160.613 228.039 160.558 228.126 159.855 228.45C158.34 229.148 156.519 229.294 154.886 229.075C151.185 228.586 147.635 226.351 145.933 222.969C144.418 219.958 140.266 224.968 139.659 226.414C139.622 226.497 139.563 226.583 139.504 226.652C139.348 226.743 139.029 226.935 138.906 226.985C137.706 227.464 136.323 227.56 135.045 227.4C132.111 227.026 129.373 225.324 128.21 222.54C126.991 219.634 120.776 224.863 121.83 227.373C123.697 231.826 128.187 234.131 132.914 233.939C136.09 233.807 138.997 232.515 141.338 230.517C144.026 233.738 148.009 235.577 152.358 235.641C158.431 235.732 163.916 231.726 166.923 226.615C167.74 225.657 168.365 224.461 168.119 223.307V223.311Z" fill="#B77F76"/>
<path d="M148.735 107.686C152.823 118.647 157.464 129.589 164.856 138.784C172.755 148.608 182.981 156.128 191.368 165.478C193.595 167.961 195.644 170.593 197.401 173.427C198.259 174.81 199.057 176.233 199.983 177.575C200.8 178.752 202.178 179.87 202.612 181.244C203.534 184.128 209.835 179.058 208.991 176.411C208.243 174.066 205.979 172.145 204.688 170.055C203.118 167.509 201.571 164.994 199.705 162.649C195.936 157.908 191.464 153.787 187.042 149.671C177.866 141.125 168.986 132.537 163.068 121.33C159.933 115.389 157.45 109.137 155.105 102.854C154.023 99.9515 147.763 105.108 148.726 107.686H148.735Z" fill="#DEBE9F"/>
<path d="M121.096 199.241C120.425 199.122 119.8 199.355 119.193 199.597C118.938 199.697 118.687 199.83 118.445 199.985C118.262 200.03 118.08 200.103 117.911 200.185C117.121 200.592 116.4 201.221 115.889 201.942C114.625 203.717 113.699 205.611 113.193 207.737C113.01 208.504 112.809 209.367 112.91 210.156C112.992 210.799 113.161 211.251 113.608 211.726C114.064 212.214 114.739 212.292 115.365 212.218C116.67 212.068 117.797 211.023 118.714 210.179C119.458 209.494 120.151 208.728 120.726 207.893C122.009 206.031 123.273 203.85 122.917 201.5C122.83 200.929 122.743 200.464 122.396 200.012C122.068 199.583 121.653 199.337 121.096 199.241Z" fill="#6F6A5F"/>
<path d="M165.002 199.241C165.673 199.122 166.298 199.355 166.905 199.597C167.161 199.697 167.412 199.83 167.654 199.985C167.836 200.03 168.019 200.103 168.187 200.185C168.977 200.592 169.698 201.221 170.209 201.942C171.473 203.717 172.399 205.611 172.906 207.737C173.088 208.504 173.289 209.367 173.189 210.156C173.107 210.799 172.938 211.251 172.491 211.726C172.034 212.214 171.359 212.292 170.734 212.218C169.429 212.068 168.302 211.023 167.384 210.179C166.641 209.494 165.947 208.728 165.372 207.893C164.09 206.031 162.826 203.85 163.182 201.5C163.268 200.929 163.355 200.464 163.702 200.012C164.03 199.583 164.446 199.337 165.002 199.241Z" fill="#6F6A5F"/>
</g>
<defs>
<clipPath id="clip0_1415_10707">
<rect width="176.397" height="190" fill="white" transform="translate(60 55)"/>
</clipPath>
</defs>
</svg>
