<svg width="300" height="300" viewBox="0 0 300 300" fill="none" xmlns="http://www.w3.org/2000/svg">
<path d="M139.056 141.537C154.438 113.615 141.435 79.7363 139.819 49.4829C139.74 48.0232 140.15 46.5678 140.934 45.4916C149.884 33.2342 151.579 71.8625 150.743 78.7907C149.801 58.921 150.12 34.7288 161.266 19.7394C163.85 16.2622 168.455 18.3189 168.743 23.0728C169.436 34.4891 166.869 46.3325 164.769 57.6922C159.261 87.4707 156.987 118.199 158.033 148.749L139.056 141.537Z" fill="#80A187"/>
<path d="M152.73 106.887C154.507 94.5034 158.647 82.111 164.63 71.126C167.362 66.1107 170.569 61.3306 174.342 57.0386C176.368 54.7379 178.56 52.5897 180.931 50.6463C182.116 49.6702 183.323 48.7203 184.534 47.7791C185.746 46.8379 187.153 46.1887 188.338 45.2039C189.319 44.3891 190.783 42.9555 190.569 41.5219C190.364 40.145 188.9 40.5197 187.981 40.9816L187.528 41.2082C186.242 41.8531 184.552 43.5394 184.547 45.0863C184.547 46.7072 186.125 46.4196 187.162 45.9011L187.615 45.6745C187.497 44.2671 187.375 42.8596 187.258 41.4522C186.085 42.4283 184.669 43.0906 183.454 44.0274C182.064 45.0993 180.691 46.193 179.345 47.3129C176.669 49.5439 174.164 51.9317 171.841 54.5331C167.362 59.5484 163.492 65.0736 160.233 70.9561C153.614 82.9215 149.082 96.4251 147.139 109.95C146.904 111.576 148.882 111.236 149.753 110.765C151.165 110.007 152.499 108.517 152.734 106.887H152.73Z" fill="#95CC92"/>
<path d="M134.877 108.595C135.139 108.53 135.012 108.778 135.017 108.883C135.527 108.264 136.154 107.44 135.479 107.34C135.012 108.151 134.725 108.09 134.363 109.053C133.84 109.48 133.365 109.724 133.322 109.506C133.269 109.636 133.056 109.802 132.838 109.994C132.638 110.203 132.455 110.464 132.446 110.695C133.278 110.194 134.102 109.541 134.877 108.599V108.595Z" fill="#EDDECE"/>
<path d="M143.509 105.249C143.522 105.223 143.535 105.205 143.557 105.179C143.3 105.179 143.078 105.192 142.886 105.249C143.091 105.231 143.3 105.249 143.509 105.249Z" fill="#EDDECE"/>
<path d="M120.136 122.613C120.15 122.64 120.172 122.644 120.185 122.666C120.216 122.582 120.216 122.547 120.136 122.613Z" fill="#EDDECE"/>
<path d="M143.954 105.275C144.163 105.301 144.377 105.292 144.59 105.371C144.302 105.266 144.106 105.288 143.954 105.275Z" fill="#EDDECE"/>
<path d="M93.212 144.609C92.8895 144.505 94.1663 143.337 92.5627 144.679C92.8329 144.6 93.0377 144.596 93.212 144.609Z" fill="#EDDECE"/>
<path d="M143.544 105.401C143.631 105.31 143.749 105.271 143.954 105.271C143.801 105.262 143.653 105.253 143.509 105.244C143.466 105.301 143.453 105.353 143.544 105.397V105.401Z" fill="#EDDECE"/>
<path d="M218.104 213.56C217.777 214.162 217.38 214.719 217.01 215.286C217.341 214.82 217.772 214.214 218.104 213.56Z" fill="#EDDECE"/>
<path d="M83.5952 218.554C83.6606 218.715 83.739 218.859 83.8305 218.946L83.5952 218.554Z" fill="#EDDECE"/>
<path d="M213.027 219.813C212.67 219.953 212.299 220.105 211.96 220.306C211.912 220.38 211.851 220.458 211.833 220.532C212.23 220.297 212.644 220.075 213.027 219.813Z" fill="#EDDECE"/>
<path d="M204.709 223.979C204.587 224.018 204.482 224.057 204.404 224.097C204.487 224.066 204.609 224.023 204.709 223.979Z" fill="#EDDECE"/>
<path d="M87.5518 224.419C87.4211 224.297 87.2424 224.149 86.981 223.953C87.164 224.11 87.3644 224.28 87.5518 224.419Z" fill="#EDDECE"/>
<path d="M220.33 196.205C220.03 194.431 219.694 193.05 219.328 191.699C218.884 190.362 218.644 188.998 218.226 187.303C218.077 186.405 218.626 187.73 218.814 188.004C218.221 186.327 217.846 184.653 217.267 183.098C216.77 181.512 216.16 180.026 215.393 178.649C215.45 178.636 215.637 178.919 215.807 179.198C215.554 178.636 215.35 177.83 215.11 178.013L215.411 178.536C215.402 179.072 214.966 178.592 214.509 177.982C214.025 177.385 213.489 176.675 213.367 176.671C214.565 177.255 212.247 173.821 213.899 174.849C213.676 174.505 213.337 174.109 213.201 174.283C212.975 173.729 212.984 173.507 213.467 173.943C212.291 172.074 212.387 172.91 211.459 171.154C211.585 171.093 211.82 171.42 212.064 171.52C211.367 170.753 210.596 170.039 209.855 168.531C209.977 168.575 209.977 168.352 210.225 168.784C209.493 167.542 208.674 166.614 207.877 165.633C207.092 164.644 206.286 163.638 205.515 162.269C206.539 162.692 205.084 161.272 205.424 160.832L204.317 159.542L204.5 160.239C203.646 159.036 202.591 158.187 201.972 157.071L202.796 157.825L201.075 155.659L201.846 157.036C200.739 155.999 201.402 157.563 200.356 155.903C200.635 156.191 199.493 154.714 199.267 153.921C198.691 153.446 198.094 152.962 197.541 152.017C197.506 151.69 198.142 151.842 198.121 151.624C197.336 151.319 195.911 148.975 194.988 148.548C195.262 148.718 195.489 148.561 195.471 148.448L194.818 148.195C194.491 147.589 194.469 147.476 194.713 147.428C193.502 145.777 194.587 148.352 193.314 146.265C193.454 146.395 193.441 146.291 193.728 146.57C192.343 144.557 190.643 143.001 189.406 141.123C189.419 140.273 190.709 142.587 190.6 141.716C188.543 139.232 186.003 136.827 184.251 134.238L184.547 134.739C183.689 134.835 183.462 132.652 182.26 131.58C182.525 131.864 182.887 131.75 182.761 131.715C181.628 129.907 180.094 128.273 178.12 125.702L178.504 125.929C177.95 124.792 176.826 123.083 176.185 121.894C175.819 121.646 175.462 120.957 175.453 121.51C174.268 117.414 171.122 114.765 170.516 110.97C170.682 111.38 171.057 111.881 170.93 111.554L169.614 108.708C169.397 109.053 169.58 109.157 169.584 109.867C169.266 109.562 168.756 108.796 168.538 108.037C169.183 109.318 169.031 107.846 169.018 107.214C168.952 107.345 168.782 107.179 168.704 107.262C168.756 105.519 167.98 107.205 167.675 104.935L167.872 105.005C167.58 104.216 167.17 103.514 166.996 102.617C167.27 102.159 167.388 103.449 167.702 103.423C167.619 103.118 167.497 102.822 167.357 102.534C167.205 102.207 167.052 101.885 166.9 101.562L166.8 101.344L166.538 101.279C166.368 101.235 166.211 101.188 166.059 101.135C165.758 101.031 165.488 100.874 165.227 100.691C165.514 100.726 165.876 100.861 166.242 100.974C166.595 101.105 167.07 101.14 167.087 101.523C167.187 101 166.839 100.93 166.651 100.769C166.442 100.63 166.259 100.521 166.076 100.429C165.893 100.338 165.719 100.259 165.519 100.168C165.349 100.111 165.157 100.05 164.917 99.9719L165.009 100.007C164.948 99.9849 164.882 99.9631 164.821 99.9414C164.852 99.9501 164.887 99.9631 164.913 99.9719C164.521 99.8324 164.133 99.632 163.723 99.5492C164.081 99.6494 164.359 99.7671 164.595 99.8586C164.364 99.7758 164.133 99.6886 163.893 99.6233L162.739 99.3618L163.318 99.5623C162.399 99.9065 161.579 99.9501 160.66 99.9893C159.754 100.05 158.743 100.168 157.78 100.787C159.71 99.6799 158.041 100.347 158.08 99.8847C157.484 99.9152 156.577 100.094 156.782 99.8934C155.876 100.582 154.908 100.334 153.806 101.571C153.662 101.475 152.834 102.242 152.834 101.811C151.719 102.756 153.257 101.798 153.252 102.02C152.477 102.822 151.457 103.567 150.438 104.578C149.971 105.092 149.431 105.689 149.1 106.325C148.891 106.687 148.808 107.005 148.73 107.654C148.638 108.003 148.625 108.373 148.573 108.735C148.551 108.891 148.538 109.153 148.507 109.227L148.398 109.122C148.255 109 148.189 108.809 147.889 108.608C147.753 108.499 147.605 108.36 147.431 108.181C147.366 108.12 147.287 108.064 147.204 108.011C147.008 107.811 146.799 107.632 146.577 107.471C146.468 107.101 147.383 107.606 147.357 107.58C147.161 107.345 146.978 107.14 146.804 106.961C146.616 106.782 146.289 106.634 146.037 106.495C145.509 106.164 144.891 106.133 144.259 106.016C144.533 105.968 144.302 105.776 143.915 105.597C142.834 105.528 143.183 105.981 141.832 105.846C142.05 105.68 142.342 105.419 142.864 105.244C141.583 105.401 140.407 105.789 139.274 106.29C138.891 106.164 139.888 105.706 140.315 105.488C138.904 105.854 136.856 106.826 136.677 107.397C136.89 107.331 137.104 107.262 137.318 107.196C137.126 107.192 137.213 106.891 137.47 106.73C138.477 105.994 139.143 106.26 139.239 106.386C138.965 106.491 138.694 106.599 138.442 106.739C138.716 106.839 139.052 106.83 139.431 106.756C139.81 106.682 140.228 106.495 140.699 106.373C141.161 106.225 141.653 106.046 142.163 105.976C142.416 105.933 142.668 105.889 142.912 105.859C143.156 105.859 143.396 105.876 143.623 105.907C143.405 106.046 143.204 106.181 143.008 106.321C138.681 106.159 133.405 109.196 131.932 112.234C131.888 112.299 131.84 112.364 131.792 112.43C131.657 112.225 131.553 111.985 131.374 111.85C131.487 111.78 131.631 111.624 131.775 111.345C131.736 111.118 131.688 110.861 131.679 110.634C131.483 110.979 131.322 111.362 131.152 111.715C131.152 111.732 131.152 111.741 131.152 111.759C130.834 111.706 130.333 111.933 129.418 112.774L128.625 114.473L128.014 114.743L128.934 113.51C128.167 114.016 128.045 114.617 127.805 115.231C127.592 115.245 127.317 115.353 127.03 115.584L126.298 117.34C125.958 117.327 126.455 116.399 125.544 117.201C125.195 118.025 126.516 116.983 125.718 118.16C124.903 118.613 124.908 118.255 124.393 119.192C124.167 119.175 124.254 118.953 124.468 118.591C123.997 119.41 122.794 120.36 122.707 120.953C121.792 121.332 120.542 123.205 120.162 122.661C120.045 122.961 119.265 124.099 118.642 124.683C119.317 123.092 116.223 126.761 115.992 125.85C115.517 127.084 112.981 128.735 111.565 130.26C111.622 130.147 111.735 129.925 111.901 129.842C110.951 130.504 110.563 130.548 109.896 130.901C110.119 131.432 108.772 132.635 108.193 133.489C106.733 133.916 108.489 132.447 107.822 132.308C108.153 132.622 106.119 134.151 106.733 134.16C105.665 134.548 105.888 134.596 105.164 134.565C105.43 135.236 104.428 135.267 103.957 136.156C102.489 136.831 103.243 135.881 101.983 137.092C101.195 137.419 102.28 136.295 102.28 136.295C100.859 137.35 101.927 137.201 101.809 137.668C100.214 139.053 100.798 137.947 100.062 138.169C99.0988 139.088 98.589 140.09 97.796 140.679C97.6827 140.657 97.5127 140.748 97.626 140.526C96.7633 141.685 94.3841 143.136 93.4473 144.57C93.3253 144.609 93.2468 144.613 93.1989 144.605C93.5737 144.639 93.7741 144.818 93.8525 144.997C93.2425 145.502 92.9244 146.178 92.4843 146.121C92.8547 145.807 92.798 145.672 92.907 145.45C92.7196 145.659 92.5497 145.89 92.371 146.108C91.4865 146.226 93.1161 145.228 92.8939 144.962C91.7435 146.134 90.6106 147.716 89.5779 148.426C89.0594 148.243 91.6608 146.374 90.127 147.158L91.7 146.016C90.0921 146.422 92.6194 145.276 91.0682 145.563C89.0681 147.18 89.0333 147.581 87.1116 149.284C86.8851 149.881 87.5212 149.437 87.2947 150.034C85.055 152.901 84.3578 151.158 83.0288 153.616C82.7978 154.352 83.0811 154.949 81.569 156.156L81.5865 155.319C79.9307 157.202 81.3032 156.923 79.4121 158.757C79.5211 158.261 80.4579 157.084 80.179 157.346C78.8065 158.439 79.6954 158.492 78.911 159.52L78.3576 159.455C77.569 160.531 76.9851 161.842 76.2922 163.102C75.9698 163.747 75.5907 164.365 75.3031 165.045C75.0112 165.721 74.7192 166.396 74.4229 167.076C74.3663 166.867 74.4534 166.339 74.0177 166.901C72.4054 170.265 70.9065 174.366 70.0481 177.952L70.2616 179.398C70.2093 179.716 69.9915 179.974 69.9609 179.616C69.6603 181.024 70.205 179.716 70.3095 180.414C70.279 181.22 69.9958 181.459 69.9087 180.937C69.9609 182.209 70.1135 184 70.2747 185.786C70.3967 186.68 70.4446 187.577 70.5405 188.414C70.6451 189.25 70.7061 190.03 70.693 190.706L70.4926 190.218C70.5579 191.259 70.9588 191.778 71.2464 192.283C71.5514 192.789 71.8128 193.268 71.9348 194.222L71.7518 193.895C72.2834 196.065 73.2726 198.227 74.3663 200.17C74.9153 201.137 75.5341 202.035 76.0744 202.907C76.6975 203.717 77.1986 204.558 77.704 205.281C78.1659 205.299 78.898 206.153 79.691 206.889C80.0832 207.216 80.5756 207.612 80.8196 207.739C80.9503 207.778 81.1377 207.795 81.3555 207.7C81.4557 207.822 81.325 208.026 81.3207 208.122C81.2858 208.249 81.2466 208.275 81.2292 208.497C81.1812 208.85 81.142 209.12 81.1028 209.416C81.0157 210.018 81.0549 210.75 81.2466 212.589C81.4732 213.556 82.0832 213.891 82.5451 214.994L82.1399 215.159L83.1246 216.545C83.0506 216.885 83.0375 217.207 82.9939 217.547L83.5778 218.536C83.4079 218.109 83.3469 217.578 83.4906 217.587C84.3229 219.125 85.3208 221.495 85.1813 221.661C86.0789 222.772 87.0811 223.778 88.1356 224.698C88.0223 224.733 87.7914 224.593 87.5343 224.397C88.3274 225.138 87.1465 224.737 88.6454 225.77C88.5147 225.504 88.933 225.687 89.0245 225.656C89.2947 226.118 89.9134 226.689 90.6063 227.308C91.334 227.883 92.1706 228.467 92.9244 228.881L92.4756 228.959C95.0682 230.759 98.3319 231.996 101.635 232.964C100.484 232.48 100.929 232.066 101.892 232.297L102.149 232.855C102.846 232.759 101.195 232.393 102.559 232.428C103.766 232.798 103.26 233.156 102.502 233.116C103.016 233.208 103.539 233.256 104.053 233.325C104.11 233.482 103.739 233.469 103.604 233.617C104.28 233.513 106.175 234.624 107.173 234.275L107.243 234.424C110.668 234.885 112.241 234.724 115.025 234.672C115.069 234.262 116.158 234.345 116.955 233.949C118.977 233.949 121.265 233.94 123.67 233.408C125.304 232.816 124.084 232.964 124.781 232.554C124.995 232.911 127.343 232.201 126.189 232.803C127.605 232.38 128.494 232.066 129.457 231.665C129.945 231.482 130.437 231.247 131.021 230.959C131.605 230.676 132.28 230.345 133.082 229.866C132.655 229.905 132.219 230.04 132.381 229.826C132.96 229.487 133.823 229.308 133.814 229.504L133.67 229.613C134.341 229.203 135.034 228.737 135.801 228.358C136.272 228.118 136.302 228.097 136.529 227.996C136.712 227.914 136.886 227.848 137.039 227.8C137.235 228.123 137.387 228.419 137.501 228.654C137.923 229.186 138.402 229.757 138.847 230.267C139.74 231.203 140.638 232.005 141.562 232.471C142.533 233.112 143.557 233.652 144.559 234.21C145.849 235.129 143.614 233.909 144.468 234.746C147.915 236.262 149.509 237.853 152.512 238.689C153.401 239.635 155.409 240.389 157.575 240.916C159.732 241.491 162.041 241.766 163.597 242.345L163.449 242.066C164.303 241.957 164.434 242.328 165.044 242.463C164.974 242.258 164.168 242.145 164.699 242.062C168.216 242.306 171.859 242.371 175.545 241.94C179.214 241.482 182.918 240.485 186.26 238.785C187.489 238.171 187.615 237.626 187.881 237.177C188.151 236.72 188.486 236.267 190.011 235.487L189.519 236.437C191.571 234.607 193.593 232.698 195.323 230.545C195.781 230.031 196.182 229.469 196.574 228.911C196.961 228.349 197.389 227.809 197.707 227.212C198.038 226.624 198.365 226.036 198.691 225.452C198.848 225.155 198.966 224.846 199.101 224.541L199.197 224.314C199.21 224.275 199.21 224.262 199.219 224.232L199.249 224.075C199.271 224.271 199.445 224.236 199.319 224.484C199.45 224.323 199.432 224.423 199.484 224.375C199.515 224.362 199.541 224.341 199.558 224.323C199.589 224.275 199.602 224.214 199.667 224.21L199.755 224.158L199.781 224.14C199.781 224.14 199.829 224.131 199.72 224.118C199.816 224.11 199.907 224.096 199.99 224.088C200.321 224.044 200.53 223.983 200.539 223.913C201.415 223.996 200.731 224.179 201.28 224.345C202.535 224.537 204.256 223.683 204.914 223.826C204.983 223.844 204.861 223.909 204.705 223.97C205.145 223.831 205.807 223.687 206.33 223.486C207.001 223.238 207.476 223.025 207.058 222.959C209.092 222.393 210.526 221.086 211.955 220.301C212.574 219.386 214.727 218.131 214.5 217.447C214.696 217.73 215.38 217.138 216.064 216.301C216.735 215.447 217.311 214.31 217.502 213.682C217.472 214.166 218.195 212.772 218.199 213.351C218.352 213.003 218.539 212.759 218.727 212.144C218.818 211.674 218.831 211.504 218.857 211.229C218.892 210.754 218.84 210.475 218.653 210.554C220.073 208.188 218.984 205.364 220.173 204.048C220.204 199.826 219.833 195.978 219.175 192.314C219.816 192.357 219.716 196.405 220.321 196.2L220.33 196.205ZM73.7867 169.398C73.778 169.185 73.3466 169.904 73.0765 170.37C73.2334 169.965 73.4381 169.464 73.6996 168.962C73.8782 168.906 73.9523 169.084 73.7867 169.398ZM74.558 167.15H74.5493C74.7018 166.814 74.8282 166.535 74.9109 166.357C74.8369 166.522 74.7323 166.753 74.5536 167.15H74.558ZM144.934 106.643C144.433 106.486 143.906 106.395 143.357 106.351C143.793 106.264 144.246 106.164 144.703 106.207C144.899 106.355 145.017 106.538 144.934 106.643ZM149.335 108.416C149.326 108.19 149.353 107.867 149.457 107.362C149.592 107.345 149.736 107.292 149.889 107.231C149.684 107.615 149.501 108.011 149.335 108.416ZM171.636 115.593C171.466 115.245 171.301 114.892 171.135 114.543C171.296 114.543 171.532 114.756 171.92 115.406C171.85 115.484 171.754 115.576 171.632 115.593H171.636Z" fill="#EDDECE"/>
<path d="M137.344 107.201C137.392 107.201 137.457 107.188 137.548 107.14C137.479 107.157 137.409 107.179 137.344 107.201Z" fill="#EDDECE"/>
<path d="M82.0615 215.212L82.1574 215.173L81.9613 214.894L82.0615 215.212Z" fill="#EDDECE"/>
<path d="M169.052 106.952C169.031 106.97 169.031 107.083 169.031 107.218C169.052 107.175 169.065 107.096 169.052 106.952Z" fill="#EDDECE"/>
<path d="M158.194 99.7019C158.124 99.7891 158.115 99.8457 158.107 99.8936H158.12L158.194 99.7019Z" fill="#EDDECE"/>
<path d="M215.807 179.198C215.842 179.276 215.881 179.355 215.921 179.425C216.212 179.939 216.034 179.581 215.807 179.198Z" fill="#EDDECE"/>
<path d="M199.271 153.934C199.519 154.143 199.772 154.348 200.007 154.588C199.711 154.143 199.463 153.808 199.271 153.934Z" fill="#EDDECE"/>
<path d="M218.213 213.364V213.355C218.173 213.425 218.138 213.491 218.104 213.56L218.213 213.364Z" fill="#EDDECE"/>
<path d="M200.007 154.592C200.247 154.962 200.521 155.398 200.835 155.72C200.578 155.241 200.299 154.892 200.007 154.592Z" fill="#EDDECE"/>
<path d="M137.161 106.329C137.178 106.351 137.165 106.377 137.152 106.404L137.479 106.225L137.165 106.329H137.161Z" fill="#EDDECE"/>
<path d="M137.148 106.399L136.838 106.604C136.986 106.53 137.117 106.465 137.148 106.399Z" fill="#EDDECE"/>
<path d="M136.202 107.031L136.843 106.604C136.607 106.722 136.307 106.857 136.202 107.031Z" fill="#EDDECE"/>
<path d="M146.568 106.225L146.743 106.155C146.673 106.155 146.612 106.172 146.568 106.225Z" fill="#EDDECE"/>
<path d="M147.509 106.778C147.788 107.083 147.854 107.414 147.984 107.384C147.788 107.057 147.675 106.469 146.886 106.103L146.743 106.155C146.847 106.155 147.13 106.277 147.2 106.377C147.296 106.482 147.396 106.626 147.514 106.783L147.509 106.778Z" fill="#EDDECE"/>
<path d="M191.227 142.609L190.713 142.491L191.576 143.424L191.227 142.609Z" fill="#EDDECE"/>
<path d="M140.163 110.147C138.904 112.944 137.762 115.794 136.08 118.373C134.463 120.848 132.664 123.249 130.716 125.471C126.603 130.169 121.788 134.208 117.021 138.217C112.437 142.073 107.639 145.742 103.278 149.847C101.077 151.916 98.9376 154.182 97.2469 156.697C96.3755 157.991 95.6303 159.346 94.8634 160.705C94.1314 162.004 93.2468 163.259 92.8852 164.723C92.5497 166.095 93.2294 166.915 94.6586 166.496C96.0879 166.078 97.8352 164.44 98.2012 162.954C98.5019 161.738 99.4126 160.601 100.018 159.511C100.755 158.191 101.522 156.958 102.489 155.79C104.119 153.816 106.023 152.052 107.97 150.4C112.467 146.583 117.069 142.888 121.552 139.049C126.367 134.931 131.034 130.67 135.108 125.803C137.126 123.389 138.956 120.827 140.66 118.186C142.372 115.532 143.562 112.652 144.856 109.781C145.331 108.726 145.666 107.179 144.041 107.166C142.577 107.153 140.725 108.905 140.163 110.147Z" fill="#DEBE9F"/>
<path d="M87.9134 176.762C87.4602 180.083 87.2249 183.425 87.2206 186.776C87.2206 187.316 87.3644 187.808 87.9352 187.996C88.506 188.183 89.3513 187.869 89.835 187.595C90.6237 187.146 91.3601 186.531 91.8917 185.791C92.31 185.207 92.8155 184.462 92.8155 183.717C92.8155 180.366 93.0551 177.019 93.5083 173.703C93.578 173.18 93.3035 172.653 92.7937 172.483C92.2142 172.292 91.3775 172.61 90.8939 172.884C89.4995 173.682 88.14 175.106 87.9134 176.762Z" fill="#DEBE9F"/>
<path d="M85.1987 202.867C86.7456 206.567 87.7434 210.48 89.4254 214.127C90.9722 217.486 93.0594 220.689 95.4604 223.495C97.6565 226.066 100.402 229.042 103.626 230.245C104.724 230.654 105.927 231.304 107.086 231.487C109.308 231.835 111.853 229.596 112.363 227.526C112.694 226.179 112.018 225.299 110.589 225.752C109.16 226.206 107.417 227.783 107.047 229.295L107.003 229.469C107.469 228.755 107.94 228.044 108.406 227.33L108.293 227.434C109.007 226.968 109.718 226.498 110.432 226.031C111.334 225.779 110.986 226.018 110.602 225.826C110.393 225.722 110.158 225.661 109.94 225.569C109.496 225.382 109.06 225.199 108.607 225.033C107.143 224.502 106.092 223.931 104.925 222.89C102.65 220.859 100.541 218.75 98.7284 216.288C96.9157 213.826 95.2991 211.037 94.1357 208.114C92.8982 205.011 91.9875 201.787 90.6977 198.702C89.6519 196.196 84.2924 200.702 85.1987 202.867Z" fill="#DEBE9F"/>
<path d="M156.634 106.661C156.586 110.913 156.93 115.144 158.146 119.232C158.743 121.249 159.383 123.275 160.094 125.254C160.377 126.051 160.712 126.827 161.1 127.58C161.505 128.373 162.024 129.119 162.207 130.003C162.516 131.519 164.861 130.299 165.497 129.794C166.595 128.927 168.024 127.384 167.706 125.837C167.536 125.014 167.074 124.321 166.691 123.589C166.268 122.783 165.902 121.951 165.593 121.092C164.935 119.245 164.342 117.354 163.771 115.48C162.582 111.584 162.185 107.663 162.229 103.602C162.246 102.024 160.634 102.238 159.614 102.787C158.364 103.462 156.651 105.096 156.634 106.665V106.661Z" fill="#DEBE9F"/>
<path d="M165.658 139.672C166.83 142.012 167.911 144.404 169.044 146.766C170.055 148.875 170.817 151.001 172.098 152.975C173.366 154.927 174.334 157.049 175.575 159.015C176.996 161.267 178.599 163.402 180.033 165.647C185.576 174.326 190.051 183.869 190.129 194.37C190.151 197.577 195.737 193.564 195.72 191.307C195.68 186.004 194.665 181.067 192.948 176.065C191.258 171.132 188.791 166.793 186.103 162.352C184.713 160.052 183.188 157.847 181.671 155.625C180.268 153.568 179.17 151.376 177.902 149.241C175.297 144.844 173.44 140.077 171.148 135.498C169.902 133.01 164.621 137.611 165.649 139.663L165.658 139.672Z" fill="#DEBE9F"/>
<path d="M192.203 207.844C192.221 211.295 192.404 214.746 192.181 218.193C192.081 219.766 191.924 221.369 191.545 222.907C191.354 223.67 191.136 224.432 190.866 225.173C190.761 225.456 190.552 225.849 190.857 225.352C190.543 225.866 190.138 226.31 189.889 226.873C189.454 227.853 189.048 229.574 190.704 229.487C192.195 229.409 193.998 227.822 194.582 226.506C194.343 226.777 194.351 226.751 194.604 226.437C194.826 226.114 195.044 225.783 195.253 225.452C195.545 224.947 195.781 224.411 195.999 223.87C196.29 223.151 196.517 222.406 196.722 221.657C197.24 219.766 197.558 217.818 197.72 215.866C198.02 212.179 197.811 208.48 197.794 204.785C197.785 203.238 196.208 203.382 195.179 203.97C193.955 204.672 192.195 206.262 192.199 207.848L192.203 207.844Z" fill="#DEBE9F"/>
<path d="M135.954 147.624C135.335 147.428 134.712 147.563 134.106 147.72C133.853 147.786 133.596 147.877 133.348 147.99C133.169 148.012 132.986 148.056 132.816 148.112C132.019 148.396 131.256 148.901 130.677 149.515C129.256 151.036 128.132 152.705 127.383 154.653C127.112 155.359 126.812 156.147 126.807 156.906C126.807 157.524 126.903 157.973 127.265 158.479C127.635 158.997 128.263 159.158 128.864 159.167C130.115 159.189 131.317 158.348 132.293 157.668C133.086 157.119 133.84 156.479 134.489 155.764C135.94 154.169 137.413 152.265 137.378 149.995C137.37 149.446 137.348 148.993 137.078 148.522C136.821 148.073 136.459 147.786 135.949 147.624H135.954Z" fill="#6F6A5F"/>
<path d="M174.73 164.596C170.595 159.969 165.083 156.509 159.017 155.232C159.192 155.093 159.37 154.953 159.549 154.823C159.889 154.57 160.242 154.326 160.586 154.082C160.682 154.021 160.747 153.973 160.791 153.943C160.882 153.886 160.974 153.829 161.065 153.773C163.453 152.304 165.715 151.324 168.564 151.032C170.155 150.871 171.745 149.441 172.442 148.051C172.904 147.132 173.292 145.267 171.628 145.437C164.251 146.191 157.597 150.949 152.708 156.282C151.828 157.241 149.906 160.169 152.429 160.33C158.939 160.749 165.017 164.522 169.362 169.228C169.588 169.816 170.268 170.039 171.174 169.803C171.227 169.79 171.283 169.777 171.336 169.76C172.547 169.446 173.684 168.274 174.334 167.28C174.787 166.583 175.41 165.355 174.73 164.596Z" fill="#6F6A5F"/>
<path d="M153.418 169.773C153.379 168.387 153.318 166.997 153.244 165.612C153.218 165.15 153.183 164.771 152.743 164.514C152.329 164.274 151.771 164.309 151.335 164.483C150.926 164.649 150.516 164.81 150.106 164.975C149.941 165.032 149.771 165.08 149.605 165.128C149.514 165.128 149.331 165.18 149.27 165.189C148.956 165.228 148.647 165.233 148.333 165.224C147.553 165.119 146.821 164.871 146.124 164.505C145.052 163.834 144.137 162.962 143.309 162.008C143.095 161.76 142.634 161.703 142.333 161.716C141.714 161.747 141.126 162.073 140.62 162.4C139.509 163.124 138.633 164.161 138.141 165.398C136.328 169.969 134.755 174.644 133.57 179.416C132.598 183.337 131.836 187.329 131.509 191.355C131.261 194.423 131.274 197.521 131.696 200.575C131.975 202.58 132.45 204.619 133.413 206.414C134.211 207.896 135.191 209.194 136.795 209.852C138.463 210.536 140.424 209.992 141.928 209.151C144.394 207.765 146.241 205.551 147.701 203.172C149.143 200.824 150.137 198.166 150.891 195.525C151.932 191.874 152.564 188.1 152.956 184.327C153.457 179.494 153.553 174.623 153.418 169.769V169.773ZM149.649 165.137C149.649 165.137 149.623 165.137 149.605 165.137C149.623 165.137 149.64 165.137 149.649 165.137ZM149.597 165.132C149.553 165.145 149.509 165.158 149.466 165.172C149.148 165.259 149.466 165.145 149.597 165.132ZM142.172 204.527C142.172 204.527 142.163 204.527 142.159 204.527C142.176 204.519 142.193 204.514 142.215 204.506C142.202 204.514 142.185 204.519 142.172 204.527ZM141.971 204.602C141.971 204.602 142.002 204.597 142.019 204.593C141.862 204.658 141.766 204.684 141.971 204.602ZM146.289 194.458C146.25 194.632 146.211 194.81 146.172 194.985C146.08 195.381 145.984 195.778 145.88 196.174C145.705 196.858 145.514 197.538 145.305 198.214C145.113 198.832 144.904 199.451 144.677 200.061C144.573 200.344 144.464 200.628 144.346 200.911C144.294 201.042 144.241 201.168 144.185 201.299C143.814 202.096 143.409 202.872 142.952 203.621C142.93 203.656 142.908 203.687 142.882 203.721C142.756 203.896 142.625 204.07 142.494 204.24C142.433 204.305 142.368 204.375 142.307 204.44C142.281 204.458 142.259 204.48 142.233 204.497C142.198 204.51 142.167 204.523 142.132 204.536C141.976 204.554 141.819 204.562 141.657 204.562C141.331 204.501 141.017 204.397 140.721 204.249C139.993 203.769 139.422 203.085 138.965 202.349C138.05 200.689 137.566 198.802 137.274 196.941C137.178 196.331 137.108 195.721 137.047 195.107C136.795 191.8 136.999 188.466 137.439 185.181C137.575 184.17 137.736 183.159 137.919 182.152C138.015 181.621 138.115 181.093 138.224 180.566C138.276 180.313 138.328 180.065 138.381 179.812C138.193 180.736 138.407 179.695 138.459 179.459C138.991 177.102 139.623 174.762 140.337 172.453C140.629 171.507 140.938 170.566 141.252 169.629C141.61 169.851 141.984 170.052 142.376 170.23C144.067 170.993 145.976 170.958 147.736 170.474C148.098 178.47 147.919 186.61 146.285 194.462L146.289 194.458Z" fill="#B77F76"/>
<path d="M98.8417 133.755C98.04 133.759 97.2382 133.96 96.4539 134.225C96.5672 133.65 96.6108 133.066 96.5541 132.491C96.3972 130.888 93.7218 132.365 93.2643 132.7C92.4712 133.28 91.7131 133.968 91.0202 134.705C87.0071 132.914 82.4057 131.868 78.1006 132.557C72.3924 133.472 67.4424 135.729 63.1416 139.602C58.9716 143.363 55.9824 148.457 55.1328 154.043C54.3179 159.429 57.3594 164.074 61.3725 167.315C65.9827 171.041 72.5841 173.647 78.5799 172.937C80.2052 172.745 81.7085 171.355 82.458 169.956C82.9416 169.058 83.2902 167.146 81.6431 167.342C76.0395 168.008 69.9217 165.333 65.7343 161.764C63.5643 159.912 61.7865 157.829 60.9934 155.041C60.2396 152.396 60.7712 149.755 61.8257 147.263C63.7996 142.592 68.0742 139.803 72.8543 138.605C76.0134 137.816 78.911 137.685 82.044 138.596C84.2009 139.223 86.397 139.947 88.4014 140.945C88.3186 142.853 90.2969 142.047 91.5649 141.245C91.6869 141.315 91.8351 141.359 92.0181 141.372C92.0834 141.533 92.2577 141.733 92.3623 141.82C92.9157 142.282 93.7087 142.16 94.3362 141.955C95.8134 141.476 97.2862 140.391 98.3842 139.328C99.6043 138.147 102.428 133.724 98.8417 133.751V133.755Z" fill="#6F6A5F"/>
<path d="M245.224 123.637C245.01 122.478 243.899 122.138 242.549 122.147C242.71 121.611 242.771 121.044 242.697 120.452C242.627 119.903 241.912 119.711 241.477 119.737C240.313 119.811 239.298 120.221 238.365 120.787C238.387 120.399 238.4 120.003 238.413 119.589C238.453 118.395 237.468 118.177 236.505 118.46C235.163 118.853 233.917 120.103 233.272 121.301C232.579 122.591 231.947 123.668 231.459 125.066C231.402 125.227 231.346 125.389 231.285 125.55C229.341 126.443 227.511 127.912 225.864 129.171C221.489 132.513 217.228 136.195 213.524 140.269C206.482 148.017 200.295 157.673 198.609 168.152C198.347 169.777 200.369 169.429 201.223 168.967C202.657 168.196 203.938 166.723 204.203 165.089C205.694 155.799 211.685 146.984 218.252 140.461C221.698 137.04 225.507 133.598 229.638 131.018C230.705 130.352 231.816 129.868 232.849 129.249C232.893 129.829 233.219 130.282 234.073 130.256C235.729 130.208 237.276 129.912 238.849 129.397C240.348 128.905 241.764 128.6 243.028 127.58C244.143 126.683 245.525 125.188 245.237 123.624L245.224 123.637ZM239.747 127.859C239.851 127.868 239.891 127.877 239.769 127.881C240.13 127.859 239.838 128.042 239.747 127.859Z" fill="#6F6A5F"/>
<path d="M124.472 269.509C125.038 269.213 124.189 269.435 123.884 269.414C123.518 269.387 123.152 269.305 122.794 269.235C122.058 269.091 121.321 268.917 120.589 268.756C118.681 268.329 116.982 267.649 115.3 266.638C111.692 264.472 108.798 261.976 107.073 258.045C103.766 250.516 104.654 241.465 109.33 234.755C109.914 233.918 110.977 232.049 109.539 231.465C108.214 230.925 106.223 232.755 105.583 233.674C102.484 238.123 100.062 243.121 99.6653 248.603C99.321 253.352 99.7524 258.376 101.809 262.725C103.966 267.287 107.378 270.085 111.718 272.486C113.705 273.584 115.748 274.111 117.945 274.59C119.038 274.83 120.093 275 121.13 274.969C120.977 275.383 120.786 275.788 120.555 276.198C120.546 276.216 120.528 276.242 120.511 276.263C118.838 276.826 116.668 278.982 116.785 280.403C116.803 280.59 116.816 280.778 116.829 280.965C116.925 282.146 117.666 282.381 118.738 282.094C123.269 280.865 126.712 274.747 127.082 270.329C127.217 268.703 125.4 269.021 124.468 269.514L124.472 269.509Z" fill="#6F6A5F"/>
<path d="M236.932 212.937C236.867 212.95 236.801 212.968 236.731 212.981C235.006 213.351 233.307 215.5 233.049 217.168L233.015 217.404C232.962 217.752 233.015 218.005 233.137 218.192C233.006 218.515 232.832 218.885 232.749 219.068C232.23 217.879 231.629 216.728 230.971 215.608C229.468 213.042 227.916 210.763 225.672 208.785C221.337 204.968 216.57 201.913 210.997 200.253C198.626 196.562 185.824 200.793 175.349 207.552C169.58 211.273 164.582 216.737 161.009 222.563C160.381 223.587 160.303 225.164 161.824 225.177C163.427 225.19 164.957 223.413 165.702 222.197C170.987 213.582 180.539 207.63 190.26 205.347C200.988 202.833 211.45 205.992 219.725 212.994C222.043 214.955 223.786 217.007 225.35 219.609C226.091 220.837 226.766 222.092 227.333 223.413C227.638 224.132 227.969 224.89 228.174 225.648C228.326 226.219 228.3 226.816 228.54 227.36C229.611 229.77 232.984 226.11 233.638 225.094C234.884 223.155 236.213 221.177 237.259 219.121C238.056 217.552 239.18 215.299 238.797 213.508C238.605 212.606 237.555 212.802 236.932 212.933V212.937Z" fill="#6F6A5F"/>
<path d="M112.032 82.3289C108.946 78.172 104.014 75.6403 99.0944 75.9366C98.528 74.6381 97.8221 73.4006 97.0072 72.2764C95.7959 70.6032 94.2534 69.1435 92.31 68.3722C89.9701 67.4441 87.4341 67.8798 85.1246 68.6642C83.6039 69.1783 82.044 70.6468 81.5821 72.2067C81.1812 73.5575 81.9394 74.4595 83.3555 73.9802C86.4536 72.93 88.9766 73.7449 91.1204 76.185C91.6651 76.8081 92.1488 77.4835 92.5845 78.1894C87.5168 81.6753 80.0134 91.3792 86.6628 96.2987C89.7043 98.5471 93.7 96.2682 95.9615 93.9719C98.4931 91.401 100.236 87.9892 100.576 84.3769C100.646 83.6623 100.654 82.9433 100.62 82.22C103.861 83.5359 106.65 86.268 108.223 89.218C111.243 94.8782 111.082 101.345 110.389 107.497C110.149 109.624 112.96 108.473 113.727 107.841C113.835 107.754 113.94 107.663 114.049 107.576C115.012 106.787 116.79 105.057 116.258 103.619C116.215 103.502 116.158 103.41 116.097 103.323C116.807 96.1201 116.537 88.3901 112.036 82.3246L112.032 82.3289ZM93.9745 90.73C93.8002 91.0176 93.4952 91.4795 93.4429 91.5056C92.4756 92.0285 91.4167 91.1483 90.8197 90.4903C90.0311 89.6276 89.5256 88.8825 89.7304 87.6973C89.9308 86.5469 90.4537 85.3399 91.0943 84.3638C91.8742 83.1743 92.9418 82.2505 94.2316 81.7755C94.4146 82.3333 94.5758 82.8998 94.7022 83.4706C95.2294 85.8323 95.2686 88.5862 93.9789 90.7213L93.9745 90.73Z" fill="#ECD78E"/>
<path d="M125.038 93.1744C124.929 92.1635 125.117 91.0218 125.091 90.0196C125.051 88.647 124.943 87.2788 124.816 85.9106C124.594 83.4705 124.298 81.0608 123.622 78.6948C122.271 73.9365 119.831 69.5704 117.169 65.4352C116.393 64.2282 113.975 66.1237 113.409 66.6902C112.507 67.5921 111.339 69.1826 112.154 70.4506C114.729 74.455 117.008 78.6991 118.245 83.3267C118.877 85.6884 119.156 88.1154 119.348 90.5469C119.444 91.7277 119.5 92.9129 119.505 94.0981C119.505 95.279 119.361 96.4904 119.574 97.6581C119.679 98.242 120.328 98.3553 120.794 98.3727C120.851 98.3727 120.908 98.3727 120.964 98.3771C122.851 98.4425 126.071 94.4598 125.034 93.1787L125.038 93.1744Z" fill="#ECD78E"/>
<path d="M104.376 60.0976C104.859 60.6336 105.365 61.1565 105.757 61.7665C105.957 62.1412 106.14 62.5291 106.349 62.8994C106.593 63.3352 106.89 63.7273 107.164 64.1369C107.221 64.4158 107.347 64.6685 107.596 64.8167C108.367 65.5052 109.883 64.7078 110.58 64.1587C111.291 63.601 111.975 62.9169 112.384 62.102C112.489 61.8667 112.594 61.6314 112.694 61.4005C112.842 61.0083 112.872 60.6118 112.785 60.2022C112.768 60.0323 112.681 59.8754 112.559 59.7447C112.319 59.3351 112.027 58.9647 111.77 58.5682C111.565 58.1804 111.378 57.7882 111.164 57.4048C110.838 56.8209 110.485 56.3067 110.04 55.8056C109.304 54.9733 108.537 54.1672 107.888 53.2652C107.565 52.8164 106.659 52.9907 106.267 53.1127C105.495 53.3567 104.676 53.9406 104.127 54.5158C103.552 55.1171 102.951 55.8361 102.724 56.6553C102.563 57.2392 102.502 57.7534 102.877 58.2762C103.334 58.9168 103.848 59.5094 104.376 60.0933V60.0976Z" fill="#ECD78E"/>
</svg>
