<svg width="300" height="300" viewBox="0 0 300 300" fill="none" xmlns="http://www.w3.org/2000/svg">
<g clip-path="url(#clip0_1415_10705)">
<path d="M144.678 281.557C144.045 281.148 144.383 280.677 144.44 279.719C144.502 278.643 144.526 277.562 144.54 276.486C144.564 274.058 144.54 271.629 144.493 269.205C144.407 264.496 144.164 259.791 143.707 255.101C142.802 245.863 140.197 237.177 136.497 228.682C135.178 225.654 128.707 231.13 129.84 233.725C133.654 242.482 136.259 251.42 137.126 260.953C137.559 265.734 137.712 270.543 137.754 275.343C137.773 277.767 137.816 280.196 137.712 282.619C137.697 282.996 137.65 283.405 137.607 283.829C137.55 283.862 137.497 283.9 137.44 283.934C137.416 283.934 137.397 283.943 137.373 283.948C136.283 284.038 135.345 284.691 134.511 285.338C133.326 286.257 131.207 288.414 131.84 290.129C132.345 291.5 133.959 290.991 135.069 290.367C136.092 290.014 137.007 289.51 138.05 289.081C140.007 288.276 141.626 287.657 143.169 286.11C143.821 285.457 146.145 282.505 144.688 281.557H144.678Z" fill="#6F6A5F"/>
<path d="M166.865 283.881C164.588 283.348 162.403 282.291 160.145 281.634C159.212 281.362 158.188 281.324 157.645 280.505C157.069 279.643 157.069 277.91 157.055 276.934C156.974 271.343 157.517 265.662 157.822 260.082C158.112 254.763 158.498 249.429 159.369 244.168C160.298 238.553 162.088 233.13 164.236 227.873C164.917 226.201 163.627 225.277 162.088 225.725C160.131 226.296 158.541 228.196 157.798 230.015C153.136 241.434 151.588 253.134 150.969 265.372C150.817 268.415 150.679 271.453 150.536 274.496C150.402 277.372 150.04 280.353 150.459 283.214C150.831 285.753 151.555 287.286 154.098 288.019C156.679 288.767 159.217 289.914 161.822 290.529C164.65 291.191 169.836 284.567 166.865 283.872V283.881Z" fill="#6F6A5F"/>
<path d="M121.164 104.646C121.454 104.522 121.364 104.832 121.392 104.951C121.802 104.103 122.364 103.06 121.544 103.056C121.187 104.07 120.878 104.094 120.668 105.26C120.183 105.87 119.668 106.222 119.568 105.979C119.54 106.141 119.316 106.36 119.125 106.637C118.949 106.922 118.783 107.246 118.83 107.522C119.711 106.808 120.468 105.865 121.164 104.646Z" fill="#EDDECE"/>
<path d="M130.13 98.6938C129.849 98.7796 129.626 98.8843 129.426 98.9986C129.654 98.9272 129.873 98.8605 130.102 98.7938C130.111 98.7605 130.116 98.7319 130.135 98.6986L130.13 98.6938Z" fill="#EDDECE"/>
<path d="M106.43 122.536C106.444 122.57 106.473 122.574 106.492 122.598C106.52 122.503 106.516 122.46 106.43 122.536Z" fill="#EDDECE"/>
<path d="M130.597 98.6985L131.33 98.6414C130.997 98.6461 130.768 98.6652 130.597 98.6985Z" fill="#EDDECE"/>
<path d="M74.9576 147.207C74.5671 147.098 76.0195 145.674 74.1909 147.312C74.4957 147.193 74.7528 147.198 74.9576 147.207Z" fill="#EDDECE"/>
<path d="M130.178 98.9604C130.24 98.8175 130.359 98.7366 130.592 98.6985C130.416 98.7128 130.249 98.7366 130.097 98.789C130.069 98.8699 130.069 98.9366 130.178 98.9556V98.9604Z" fill="#EDDECE"/>
<path d="M240.986 197.873C240.638 198.578 240.2 199.23 239.79 199.892C240.152 199.344 240.643 198.64 240.986 197.873Z" fill="#EDDECE"/>
<path d="M86.8579 232.42C87.0055 232.558 87.1579 232.668 87.296 232.715L86.8579 232.42Z" fill="#EDDECE"/>
<path d="M235.433 205.316C235 205.473 234.633 205.72 234.224 205.944C234.171 206.035 234.104 206.125 234.09 206.211C234.562 205.944 234.99 205.625 235.433 205.316Z" fill="#EDDECE"/>
<path d="M243 186.711C242.629 181.854 241.581 177.464 240.295 173.35C241.214 173.264 241.429 177.997 242.214 177.654C241.586 175.65 241.109 174.083 240.376 172.607C240.043 171.859 239.728 171.116 239.424 170.312C239.109 169.512 238.705 168.693 238.367 167.731C238.052 166.717 238.909 168.15 239.171 168.431C237.386 164.702 235.647 161.226 233.228 158.469C233.29 158.436 233.6 158.698 233.862 158.969C233.419 158.402 232.947 157.564 232.719 157.836L233.219 158.336C233.485 159.531 230.657 156.721 230.381 156.802C231.952 157.079 228.29 153.945 230.5 154.579C230.138 154.264 229.628 153.931 229.519 154.164C229.114 153.598 229.071 153.336 229.738 153.693C227.914 151.879 228.223 152.845 226.638 151.179C226.766 151.064 227.138 151.35 227.447 151.383C226.38 150.783 225.371 150.15 224.028 148.76C224.185 148.76 224.109 148.512 224.533 148.907C222.052 146.664 219.752 145.784 217.118 143.298C218.418 143.379 216.299 142.346 216.542 141.717C215.995 141.355 215.433 141.022 214.871 140.684L215.309 141.398C213.942 140.374 212.471 139.831 211.404 138.817L212.585 139.346L209.923 137.584L211.252 138.827C209.661 138.098 210.928 139.593 209.194 138.136C209.604 138.35 207.823 137.141 207.304 136.336H207.309C206.504 136.027 205.67 135.712 204.732 134.869C204.58 134.517 205.347 134.436 205.251 134.203C204.266 134.174 201.885 132.089 200.699 131.974C201.061 132.06 201.266 131.793 201.208 131.669L200.389 131.641C199.818 131.084 199.761 130.965 200.018 130.817C198.113 129.427 200.18 131.908 198.061 130.05C198.261 130.146 198.213 130.031 198.627 130.236C196.408 128.503 193.98 127.412 191.999 125.751C191.746 124.789 193.932 126.912 193.532 125.965C190.427 123.941 186.803 122.17 184.06 119.846L184.551 120.308C183.589 120.736 182.698 118.336 181.041 117.517C181.427 117.746 181.813 117.489 181.656 117.494C180.751 116.67 179.736 115.936 178.617 115.084C177.484 114.246 176.179 113.356 174.755 112.16L175.251 112.308C174.798 111.737 174.132 111.065 173.446 110.389C172.789 109.689 172.122 108.979 171.627 108.384C171.141 108.213 170.55 107.541 170.674 108.165C170.065 107.094 169.455 106.079 168.708 105.218C167.955 104.356 167.184 103.541 166.46 102.703C164.922 101.099 163.569 99.3891 162.898 97.3177C163.174 97.7415 163.727 98.2177 163.507 97.8796C162.76 96.9368 162.169 95.8987 161.522 94.8844C161.312 95.3225 161.536 95.413 161.631 96.232C161.207 95.9463 160.555 95.1273 160.117 94.332C161.136 95.6511 160.674 94.0225 160.536 93.313C160.484 93.4702 160.25 93.3178 160.165 93.4273C160.022 91.3988 159.312 93.4844 158.679 90.9083L158.926 90.9511C158.693 90.5559 158.355 90.0321 158.098 89.6464C158.017 89.5607 157.998 89.3988 157.869 89.3797L157.469 89.3274C157.207 89.2893 156.95 89.2369 156.688 89.1655C156.369 88.6274 157.874 89.2083 158.217 88.8988C156.255 88.4607 154.864 89.0988 153.512 88.7179C154.155 88.5274 155.079 88.6274 155.745 88.5655C154.279 87.8655 154.055 88.0369 152.902 87.9941L153.017 88.0036C152.117 87.9464 151.217 88.0417 150.312 88.1369C150.545 88.1179 150.779 88.1274 151.017 88.1417C150.574 88.4845 150.155 88.8226 149.693 89.0226C149.226 89.2131 148.764 89.4083 148.274 89.6083C147.783 89.794 147.264 89.9845 146.778 90.3035C146.417 90.5178 146.055 90.7654 145.726 91.0892C146.859 89.775 145.488 90.8273 145.383 90.3416C144.745 90.5893 143.774 91.0416 143.94 90.7559C143.188 91.8416 142.002 91.8416 141.197 93.5844C141.012 93.5273 140.331 94.6368 140.178 94.1511C139.235 95.5558 140.659 94.013 140.726 94.2654C140.431 94.8463 140.04 95.3987 139.654 96.0177C139.216 96.6082 138.816 97.2749 138.397 97.9891C138.297 98.1701 138.173 98.3415 138.102 98.5415L137.902 98.9939C137.807 99.2129 137.716 99.3653 137.673 99.5796C137.588 99.9939 137.535 100.446 137.64 101.299C137.65 101.541 137.654 101.77 137.664 101.975C137.626 102.003 137.554 101.894 137.512 101.88C137.369 101.76 137.245 101.66 137.131 101.56C136.954 101.494 136.769 101.418 136.554 101.308C136.44 101.246 136.326 101.184 136.202 101.118C136.04 101.065 135.878 101.008 135.702 100.951C135.516 100.894 135.321 100.803 135.102 100.718C134.807 100.57 134.502 100.441 134.192 100.341C134.126 100.213 134.302 100.165 134.554 100.156C134.726 100.151 134.926 100.161 135.088 100.175C135.211 100.208 135.302 100.232 135.302 100.232C134.026 99.4034 132.611 99.1701 131.192 99.5129C131.483 99.3462 131.173 99.2415 130.683 99.0891C129.478 99.3224 129.988 99.7891 128.435 99.9462C128.626 99.6653 128.883 99.3034 129.43 98.9986C128.011 99.432 126.854 100.294 125.654 101.046C125.168 100.956 126.235 100.28 126.63 99.8843C125.116 100.608 123.059 102.222 122.968 102.894L123.659 102.546C123.445 102.58 123.473 102.218 123.716 101.96C124.692 100.908 125.506 101.061 125.64 101.175L124.83 101.78C125.511 101.908 126.34 101.441 127.292 100.841C127.792 100.575 128.321 100.289 128.835 100.018C129.383 99.8129 129.94 99.6272 130.445 99.5415C130.249 99.77 130.078 99.9986 129.907 100.227C124.916 101.227 119.702 105.67 118.616 109.413C118.578 109.498 118.535 109.579 118.497 109.66C118.297 109.446 118.116 109.194 117.878 109.07C117.997 108.97 118.125 108.765 118.23 108.422C118.13 108.165 118.03 107.889 117.949 107.618C117.806 108.06 117.692 108.518 117.573 108.96C117.573 108.975 117.578 108.984 117.582 108.998C117.197 108.998 116.649 109.332 115.754 110.427L115.178 112.498L114.52 112.894L115.34 111.341C114.544 112.032 114.53 112.741 114.378 113.479C114.135 113.522 113.849 113.689 113.54 113.979L112.987 116.075C112.587 116.094 113.006 114.97 112.078 115.984C111.811 116.975 113.182 115.636 112.444 117.079C111.563 117.679 111.525 117.27 111.058 118.398C110.782 118.389 110.873 118.136 111.058 117.698C110.625 118.684 109.33 119.841 109.301 120.541C108.787 120.784 108.225 121.465 107.73 122.017C107.211 122.551 106.716 122.908 106.496 122.608C106.387 122.96 105.563 124.303 104.877 124.993C105.215 124.051 104.549 124.665 103.763 125.374C102.944 126.06 101.949 126.793 101.825 126.279C101.577 127.003 100.715 127.822 99.7249 128.684C98.701 129.512 97.52 130.355 96.7057 131.236C96.7724 131.108 96.9057 130.846 97.0962 130.76C95.9867 131.479 95.5533 131.517 94.7581 131.869C95.0009 132.517 93.3771 133.812 92.6866 134.788C90.977 135.174 93.0628 133.574 92.2866 133.35C92.6628 133.755 90.2532 135.398 90.9627 135.46C89.696 135.827 89.9532 135.903 89.1055 135.803C89.3913 136.622 88.215 136.574 87.6388 137.584C85.8959 138.26 86.8055 137.193 85.2912 138.55C84.353 138.884 85.6626 137.617 85.6626 137.617C83.9625 138.779 85.2197 138.679 85.0673 139.227C83.1578 140.769 83.8673 139.488 82.9959 139.703C81.8244 140.703 81.2387 141.931 80.3006 142.584C80.1672 142.55 79.9672 142.655 80.0958 142.393C79.0672 143.707 76.3052 145.46 75.2671 147.174C75.1195 147.222 75.0337 147.231 74.9718 147.217C75.4195 147.25 75.6719 147.464 75.7766 147.674C75.0576 148.255 74.8147 149.145 74.2718 149.079C74.6814 148.688 74.6004 148.531 74.7004 148.25L74.1385 149.069C73.1051 149.26 74.9337 147.979 74.6337 147.655C73.4242 149.174 72.1765 151.031 71.0955 152.007C70.3908 151.788 73.3337 149.426 71.567 150.45L73.3289 148.993C71.4527 149.574 74.3575 148.055 72.5289 148.493C71.4003 149.512 70.8432 150.16 70.3193 150.822C69.8384 151.536 69.3622 152.241 68.3431 153.374C68.1717 154.102 68.8622 153.498 68.6907 154.222C67.5431 156.012 66.9383 156.598 66.243 156.988C65.5859 157.398 65.0049 157.726 64.5001 159.274C64.3716 160.155 64.9621 160.798 63.6763 162.64L63.3954 161.664C62.1525 164.345 63.4763 163.531 61.9906 166.212C61.8382 165.583 62.6525 164.012 62.3858 164.383C61.7144 165.188 61.6905 165.559 61.7667 165.902C61.8286 166.236 61.9715 166.536 61.7477 167.259L61.1001 167.378C60.7143 168.897 60.2667 170.474 60.0429 172.145C59.9429 172.983 59.8429 173.831 59.7476 174.683C59.6905 175.535 59.6333 176.393 59.5762 177.25C59.4238 177.045 59.3143 176.435 59.0429 177.221C58.8952 181.588 58.7809 186.526 59.3 190.783C59.5381 191.288 59.8715 191.768 60.1524 192.254C60.2381 192.616 60.1 192.983 59.9048 192.611C60.1143 194.264 60.2334 192.616 60.6143 193.335C60.8667 194.226 60.6334 194.611 60.3429 194.073C60.981 195.411 61.7858 197.316 62.7477 199.168C63.1668 200.121 63.6906 201.025 64.1192 201.902C64.524 202.792 64.9335 203.602 65.2478 204.316L64.8001 203.887C65.3621 204.959 65.9383 205.397 66.4811 205.806C67.0669 206.197 67.5955 206.563 68.0859 207.582L67.7574 207.306C68.4621 208.397 69.4431 209.316 70.3384 210.297C71.3098 211.201 72.3242 212.073 73.348 212.859C74.4337 213.563 75.3909 214.397 76.4385 214.959C76.6909 215.116 76.9386 215.268 77.1814 215.42C77.4386 215.582 77.3767 215.578 77.4814 215.668C77.6624 215.768 77.5957 216.03 77.5386 216.182C77.6386 216.206 77.6814 216.125 77.7767 216.33C77.8672 216.506 77.9481 216.725 78.0195 216.973C78.1672 217.473 78.2862 218.087 78.4862 218.673C78.8624 219.849 79.2148 220.982 79.7815 220.93C80.5577 223.806 79.9005 223.187 81.8625 226.992C82.4863 227.963 83.3102 228.054 84.2959 229.03L83.9102 229.392C84.4721 229.754 84.9769 230.154 85.5674 230.454L85.8245 231.611C86.1721 231.887 86.5055 232.177 86.8579 232.439C86.4959 232.058 86.2293 231.482 86.3912 231.434C87.1626 232.101 88.0865 232.906 88.7389 233.682C89.4246 234.42 89.9341 235.001 89.8722 235.139C90.5722 235.568 91.2961 235.939 92.0389 236.268C92.7723 236.62 93.5009 236.963 94.2628 237.225C94.1581 237.301 93.8485 237.249 93.4914 237.149C94.639 237.62 93.1818 237.692 95.2057 238.225C94.9676 237.977 95.4914 238.015 95.5819 237.939C96.0533 238.32 96.9248 238.739 97.9058 239.158C98.9058 239.52 100.02 239.853 100.987 240.049L100.52 240.306C103.963 241.387 107.944 241.687 111.897 241.768C110.478 241.553 110.844 240.949 111.982 240.906L112.435 241.468C113.178 241.125 111.239 241.253 112.763 240.834C114.216 240.901 113.754 241.472 112.906 241.653C113.506 241.582 114.101 241.549 114.692 241.439C114.801 241.601 114.387 241.71 114.282 241.93C114.997 241.544 117.435 242.353 118.44 241.601L118.559 241.758C122.497 241.287 124.235 240.753 127.33 239.906C127.268 239.434 128.507 239.211 129.288 238.539C131.559 238.02 134.135 237.425 136.697 236.196C138.383 235.111 137.045 235.572 137.716 234.93C138.059 235.301 140.507 233.873 139.378 234.863C140.869 234.03 141.778 233.43 142.764 232.739C143.264 232.411 143.755 232.011 144.336 231.534C144.917 231.063 145.593 230.52 146.364 229.763C145.888 229.911 145.431 230.173 145.555 229.887C146.112 229.349 147.045 228.939 147.098 229.168L146.964 229.33L147.545 228.754C147.636 228.644 147.736 228.535 147.84 228.43C148.05 228.22 148.283 228.025 148.512 227.858C148.707 228.044 148.893 228.244 149.059 228.435L149.298 228.715C149.34 228.768 149.35 228.796 149.421 228.863L149.717 229.12C150.507 229.796 151.255 230.544 152.064 231.134C153.645 232.382 155.269 233.349 156.755 233.701L156.541 233.649C157.812 234.096 159.069 234.534 160.36 234.873C162.017 235.653 159.222 234.753 160.365 235.53C164.612 236.439 166.765 237.887 170.341 238.177C171.546 239.087 173.984 239.525 176.551 239.649C179.117 239.834 181.794 239.682 183.675 240.039L183.446 239.744C184.394 239.387 184.618 239.844 185.337 239.868C185.218 239.639 184.275 239.663 184.86 239.458C188.899 239.015 193.051 238.377 197.161 237.196C201.261 236.02 205.289 234.211 208.813 231.715C210.104 230.801 210.185 230.196 210.375 229.592C210.552 228.963 210.937 228.473 212.523 227.306L212.152 228.511C214.171 226.054 216.152 223.549 217.852 220.858C219.566 218.178 220.828 215.249 221.595 212.321C221.618 212.706 221.752 212.768 221.542 213.325C221.757 213.059 221.98 212.654 222.133 212.173C222.214 211.935 222.29 211.678 222.361 211.421C222.371 211.359 222.361 211.33 222.361 211.273C222.347 211.168 222.314 211.049 222.28 210.897C222.29 210.816 222.304 210.73 222.261 210.649C222.542 210.687 222.471 210.949 222.628 211.121C222.614 211.154 222.776 211.154 222.604 211.178C222.799 211.159 222.999 211.13 223.199 211.092C223.604 211.016 224.019 210.911 224.404 210.806C225.166 210.54 225.823 210.297 226.238 210.416C226.381 210.454 225.89 210.63 225.642 210.716C226.085 210.563 227.081 210.225 227.871 209.954C228.647 209.649 229.162 209.325 228.685 209.287C231.023 208.535 232.633 206.963 234.238 205.968C234.852 204.821 237.352 203.335 237 202.511C237.224 202.816 238.047 202.149 238.762 201.125C239.505 200.125 240.109 198.783 240.29 198.049C240.276 198.606 241.076 196.992 241.114 197.664C241.871 196.107 242.229 194.545 241.757 194.702C241.986 194.368 242.176 194.011 242.333 193.649C242.39 193.497 242.548 193.183 242.59 192.883L242.638 192.202C242.671 191.473 242.629 190.754 242.59 190.088C242.505 188.745 242.486 187.588 243.019 186.74L243 186.711ZM59.8143 176.25C59.7953 176.459 59.7762 176.75 59.7334 177.259H59.7238C59.7619 176.84 59.7953 176.478 59.8143 176.25ZM59.9143 180.012C59.8191 179.783 59.6667 180.74 59.5143 181.354C59.5381 180.854 59.5714 180.235 59.6 179.578C59.7714 179.44 59.9381 179.607 59.9095 180.016L59.9143 180.012ZM132.083 100.003C131.464 99.9891 130.826 100.046 130.188 100.161C130.664 99.9224 131.169 99.7462 131.702 99.5653C131.978 99.6653 132.173 99.8462 132.083 100.003ZM138.364 102.646C138.288 102.327 138.235 101.884 138.245 101.165C138.364 101.17 138.488 101.151 138.621 101.118C138.507 101.618 138.421 102.127 138.364 102.646ZM164.988 102.36C164.727 102.003 164.465 101.646 164.207 101.284C164.403 101.26 164.727 101.456 165.312 102.07C165.246 102.18 165.141 102.318 164.988 102.36Z" fill="#EDDECE"/>
<path d="M123.654 102.537C123.711 102.527 123.783 102.499 123.878 102.422L123.654 102.537Z" fill="#EDDECE"/>
<path d="M93.4961 237.134C93.3056 237.058 93.0532 236.968 92.6913 236.863C92.9484 236.958 93.2342 237.058 93.4961 237.134Z" fill="#EDDECE"/>
<path d="M83.8149 229.458L83.9054 229.372L83.5863 229.153L83.8149 229.458Z" fill="#EDDECE"/>
<path d="M160.522 93.0081C160.522 93.0081 160.503 93.17 160.536 93.3176C160.555 93.2652 160.555 93.1747 160.522 93.0081Z" fill="#EDDECE"/>
<path d="M151.445 87.9939C152.083 87.9939 152.531 87.9653 152.898 87.9986C152.412 87.932 151.936 87.9891 151.445 87.9939Z" fill="#EDDECE"/>
<path d="M145.402 90.0796C145.364 90.2082 145.374 90.2796 145.378 90.3415H145.393L145.397 90.0796H145.402Z" fill="#EDDECE"/>
<path d="M233.866 158.974C233.924 159.059 233.986 159.14 234.043 159.207C234.49 159.731 234.209 159.359 233.866 158.974Z" fill="#EDDECE"/>
<path d="M207.313 136.35C207.666 136.488 208.013 136.622 208.361 136.798C207.875 136.417 207.485 136.136 207.313 136.35Z" fill="#EDDECE"/>
<path d="M241.105 197.645V197.635C241.057 197.716 241.024 197.787 240.986 197.873L241.105 197.645Z" fill="#EDDECE"/>
<path d="M208.356 136.798C208.751 137.117 209.209 137.503 209.666 137.741C209.218 137.303 208.785 137.022 208.356 136.798Z" fill="#EDDECE"/>
<path d="M123.23 101.551C123.23 101.551 123.249 101.608 123.24 101.641L123.549 101.346L123.23 101.551Z" fill="#EDDECE"/>
<path d="M123.24 101.641L122.935 101.937C123.092 101.822 123.225 101.722 123.24 101.641Z" fill="#EDDECE"/>
<path d="M122.297 102.546L122.935 101.932C122.687 102.108 122.373 102.322 122.297 102.546Z" fill="#EDDECE"/>
<path d="M133.754 98.9034L133.921 98.77C133.845 98.7843 133.788 98.8224 133.754 98.9034Z" fill="#EDDECE"/>
<path d="M135.435 99.3413C135.759 99.6366 136.107 99.9699 136.34 99.9366C136.126 99.7842 135.883 99.5271 135.64 99.2937C135.588 99.1842 135.188 99.0413 134.935 98.9318C134.65 98.8175 134.354 98.7271 134.059 98.6604L133.921 98.7652C134.216 98.7175 134.835 99.0223 135.435 99.3366V99.3413Z" fill="#EDDECE"/>
<path d="M194.513 126.736L193.894 126.803L195.175 127.522L194.513 126.736Z" fill="#EDDECE"/>
<path d="M131.278 100.637C130.03 104.108 128.849 107.432 126.954 110.613C125.245 113.484 123.316 116.208 121.216 118.808C116.797 124.26 111.63 129.084 106.549 133.907C101.573 138.631 96.3296 143.15 91.6247 148.145C89.177 150.745 86.8103 153.507 84.9578 156.574C83.2578 159.388 81.1911 162.95 80.6815 166.212C80.372 168.183 82.8054 167.759 83.8435 167.197C85.5721 166.269 87.1388 164.483 87.4484 162.502C87.6531 161.188 88.9056 159.393 89.5151 158.183C90.2865 156.655 91.1866 155.302 92.2485 153.96C94.1724 151.521 96.401 149.341 98.6487 147.207C103.611 142.507 108.644 137.888 113.563 133.136C118.568 128.303 123.473 123.284 127.64 117.693C129.745 114.865 131.688 111.884 133.426 108.817C135.283 105.546 136.445 102.013 137.716 98.489C138.321 96.8129 137.159 95.8796 135.569 96.3415C133.678 96.8938 131.93 98.8128 131.278 100.632V100.637Z" fill="#DEBE9F"/>
<path d="M79.1149 176.578C79.2577 180.854 79.6625 185.125 80.3816 189.34C80.4959 190.011 81.3054 190.23 81.8578 190.202C82.7102 190.159 83.7245 189.597 84.3674 189.087C85.7436 188.002 87.3627 186.202 87.0389 184.297C86.6198 181.835 86.3103 179.359 86.1008 176.868L86.1579 177.535C86.0293 175.983 85.9389 174.426 85.8865 172.869C85.8627 172.207 85.7293 171.626 85.0245 171.392C84.3198 171.159 83.3102 171.545 82.7245 171.878C81.7721 172.426 80.8768 173.169 80.2339 174.064C79.7387 174.754 79.0863 175.688 79.1196 176.573L79.1149 176.578Z" fill="#DEBE9F"/>
<path d="M116.573 231.325C116.406 231.287 116.225 231.263 116.078 231.23C115.406 231.072 114.739 230.944 114.059 230.82C112.225 230.491 110.825 229.882 109.249 228.901C105.992 226.872 102.982 224.611 100.272 221.887C97.5962 219.196 95.2199 216.239 93.2628 212.987C91.2389 209.62 89.5341 206.073 87.4293 202.754C86.5007 201.287 83.5577 203.592 82.8768 204.273C81.7815 205.368 80.3815 207.282 81.3577 208.825C83.8054 212.687 85.7054 216.863 88.2102 220.687C90.696 224.482 93.8532 227.915 97.3248 230.83C99.0296 232.258 100.839 233.525 102.73 234.696C104.696 235.915 106.444 237.02 108.754 237.439C110.225 237.706 111.858 238.287 113.363 238.234C116.101 238.139 119.211 235.244 119.359 232.491C119.454 230.753 117.768 230.834 116.573 231.33V231.325ZM116.959 231.449C117.201 231.501 117.273 231.363 116.959 231.449V231.449Z" fill="#DEBE9F"/>
<path d="M209.971 193.159C210.685 197.235 211.59 201.278 212.037 205.397C212.242 207.297 212.299 209.22 212.175 211.13C212.109 212.154 212.033 213.244 211.804 214.249C211.79 214.315 211.628 214.982 211.728 214.692C211.504 215.344 211.094 215.911 210.923 216.592C210.766 217.201 210.59 218.034 211.109 218.554C211.628 219.073 212.485 218.925 213.071 218.739C214.818 218.182 216.895 216.282 217.361 214.449C217.161 214.701 217.18 214.635 217.414 214.249C217.599 213.849 217.776 213.449 217.952 213.049C218.157 212.506 218.285 211.944 218.409 211.373C218.657 210.22 218.823 209.049 218.918 207.873C219.099 205.673 218.99 203.473 218.79 201.278C218.39 196.844 217.399 192.497 216.633 188.121C216.309 186.268 213.39 187.787 212.647 188.373C211.28 189.454 209.642 191.263 209.975 193.163L209.971 193.159Z" fill="#DEBE9F"/>
<path d="M167.35 207.192C168.269 210.206 169.627 213.749 172.355 215.573C173.989 216.663 175.803 217.115 177.765 216.92C179.036 216.796 180.336 216.511 181.522 216.03C182.556 215.611 183.446 215.139 184.365 214.506C184.556 214.373 184.737 214.239 184.922 214.101C185.046 214.011 185.165 213.92 185.294 213.83C184.727 214.177 184.637 214.258 185.018 214.058C185.951 213.606 186.894 212.692 187.508 211.873C187.979 211.244 188.622 210.201 188.622 209.363C188.627 207.387 186.713 207.768 185.46 208.377C184.837 208.682 184.26 209.082 183.703 209.492C183.57 209.592 183.341 209.701 183.241 209.835C183.775 209.501 183.903 209.416 183.622 209.577C183.513 209.639 183.398 209.701 183.284 209.758C183.713 209.582 183.798 209.539 183.551 209.639C183.432 209.687 183.313 209.735 183.194 209.777C182.994 209.849 182.789 209.911 182.579 209.968C182.294 210.049 182.06 210.073 182.484 210.001C182.232 210.044 181.979 210.087 181.727 210.12C181.375 210.163 181.022 210.192 180.67 210.192C180.575 210.192 180.479 210.192 180.379 210.182C180.184 210.173 180.251 210.182 180.579 210.201C180.46 210.249 180.155 210.139 180.041 210.111C179.417 209.977 178.827 209.744 178.27 209.43L178.779 209.725C177.408 208.911 176.413 207.673 175.622 206.311L175.917 206.82C175.089 205.344 174.498 203.758 174.008 202.144C173.47 200.373 170.898 201.706 170.022 202.397C169.146 203.087 168.331 203.901 167.836 204.887C167.493 205.568 167.112 206.411 167.35 207.187V207.192Z" fill="#6F6A5F"/>
<path d="M105.568 212.054C108.235 214.668 111.597 217.282 115.54 217.077C118.03 216.949 120.383 215.654 122.268 214.097C123.421 213.149 124.492 212.111 125.388 210.916C125.797 210.368 126.192 209.782 126.516 209.178C126.64 208.949 126.735 208.711 126.845 208.478C126.969 208.216 127.416 207.568 126.788 208.454C127.283 207.754 127.859 206.84 127.902 205.944C127.93 205.344 127.707 204.635 127.04 204.468C125.283 204.035 123.164 205.844 122.249 207.14C121.873 207.673 121.502 208.211 121.221 208.801C121.164 208.92 120.697 209.835 120.706 209.844C120.649 209.787 121.273 209.116 120.849 209.601C120.454 210.054 120.997 209.435 121.111 209.335C120.954 209.473 120.816 209.649 120.664 209.797C120.559 209.901 120.097 210.33 120.616 209.849C121.164 209.339 120.587 209.849 120.449 209.954C120.325 210.049 120.14 210.135 120.035 210.254C120.206 210.063 120.645 209.925 120.178 210.13C119.378 210.478 120.64 210.025 120.173 210.13C120.011 210.168 119.84 210.23 119.683 210.282C119.349 210.397 120.173 210.249 119.611 210.278C119.449 210.287 119.287 210.306 119.125 210.311C119.064 210.311 118.435 210.292 118.735 210.311C118.992 210.33 118.516 210.273 118.468 210.263C118.306 210.235 118.149 210.201 117.992 210.163C117.635 210.078 117.278 209.963 116.935 209.83C116.235 209.559 115.673 209.254 115.192 208.939C113.897 208.087 112.74 207.059 111.635 205.978C110.378 204.744 107.954 206.582 107.082 207.497C106.382 208.225 105.658 209.097 105.382 210.087C105.206 210.716 105.035 211.53 105.568 212.049V212.054Z" fill="#6F6A5F"/>
<path d="M143.174 112.227C145.426 112.789 147.602 111.084 147.598 108.76C147.474 70.8655 167.412 34.8519 209.123 27.7567C214.99 26.0472 214.928 19.4759 209.047 18.2378C201.528 16.8807 195.208 22.2425 188.713 24.9949C229.281 -19.7139 140.564 36.3042 139.664 106.589C139.659 107.055 139.745 107.517 139.912 107.955L140.712 110.036C141.131 111.122 142.05 111.941 143.178 112.222L143.174 112.227Z" fill="#80A187"/>
<path d="M171.746 219.287C171.731 219.225 171.717 219.163 171.708 219.101C171.06 216.035 166.041 220.815 165.536 221.844C165.069 222.792 164.684 223.434 164.279 223.849C163.912 224.22 163.855 224.311 163.122 224.649C161.541 225.377 159.641 225.53 157.936 225.301C154.074 224.792 150.369 222.458 148.593 218.93C147.012 215.787 142.678 221.015 142.045 222.525C142.007 222.611 141.945 222.701 141.883 222.772C141.721 222.868 141.388 223.068 141.259 223.12C140.007 223.62 138.564 223.72 137.231 223.553C134.169 223.163 131.311 221.387 130.097 218.482C128.826 215.449 122.34 220.906 123.44 223.525C125.387 228.172 130.073 230.577 135.007 230.377C138.321 230.239 141.354 228.891 143.797 226.806C146.602 230.168 150.759 232.087 155.298 232.153C161.636 232.249 167.36 228.068 170.498 222.734C171.35 221.734 172.003 220.487 171.746 219.282V219.287Z" fill="#B77F76"/>
<path d="M192.975 40.8565C192.78 40.9185 192.584 40.9804 192.389 41.0423C191.799 41.2327 191.203 41.5518 190.646 41.9565C189.894 42.2708 189.127 42.547 188.389 42.9041C186.875 43.6327 185.422 44.5327 183.965 45.366C180.927 47.1041 177.946 48.9421 175.122 51.0135C170.136 54.6658 165.508 58.8515 161.298 63.3752C152.593 72.7322 145.569 83.4939 139.812 94.8794C136.388 101.656 133.454 108.684 131.23 115.946C130.716 117.617 131.721 118.574 133.378 118.093C135.197 117.56 137.112 115.612 137.669 113.803C142.069 99.4556 149.183 85.5653 158.284 73.6274C162.522 68.0704 167.308 62.88 172.717 58.442C175.589 56.0849 178.598 53.9373 181.803 52.0516C183.403 51.1088 185.022 50.1945 186.651 49.2945C188.28 48.3898 190.08 47.8802 191.684 46.9279C193.208 46.0184 194.889 44.4612 195.208 42.6232C195.47 41.0946 194.475 40.3899 192.98 40.8661L192.975 40.8565Z" fill="#95CC92"/>
<path d="M151.517 98.627C155.783 110.065 160.626 121.484 168.341 131.079C176.584 141.331 187.256 149.179 196.008 158.936C198.332 161.526 200.47 164.274 202.304 167.231C203.199 168.673 204.032 170.159 204.999 171.559C205.851 172.788 207.29 173.954 207.742 175.388C208.704 178.397 215.28 173.107 214.399 170.345C213.618 167.897 211.256 165.893 209.909 163.712C208.27 161.055 206.656 158.431 204.708 155.983C200.775 151.036 196.108 146.736 191.494 142.441C181.917 133.522 172.651 124.56 166.474 112.865C163.203 106.665 160.612 100.141 158.164 93.5843C157.036 90.5557 150.502 95.9366 151.507 98.627H151.517Z" fill="#DEBE9F"/>
<path d="M90.658 238.32C90.9104 237.472 90.9389 236.558 89.9627 236.187C89.9484 236.182 89.9294 236.177 89.9151 236.172C89.1341 234.529 86.9864 235.506 85.8197 236.21C85.0816 236.653 84.4578 237.234 83.8197 237.791C83.7006 237.782 83.5864 237.777 83.4673 237.763C82.2958 237.653 81.1244 237.363 80.0005 237.015C77.8148 236.334 75.6481 235.477 73.6051 234.444C69.4765 232.358 65.8288 229.034 64.9525 224.325C63.1954 214.858 72.6861 208.925 79.7577 205.025C81.3006 204.173 83.3625 202.254 83.3625 200.33C83.3625 198.411 81.4482 198.654 80.2006 199.344C69.6622 205.159 56.2428 215.035 58.1952 228.763C59.0905 235.077 64.243 239.153 69.7098 241.658C71.8241 242.629 74.229 243.582 76.6624 244.115C76.1671 245.153 75.9671 246.367 77.1338 246.91C79.591 248.044 82.3577 247.248 84.7626 245.634C85.9769 245.905 87.4912 245.391 88.5103 244.867C89.8675 244.167 93.5199 240.777 91.7675 238.991C91.4199 238.639 91.0484 238.429 90.658 238.325V238.32ZM85.5769 237.706C86.1198 237.42 86.3055 237.572 85.5769 237.706V237.706Z" fill="#6F6A5F"/>
<path d="M238.9 225.163C238.547 222.739 237.052 220.377 235.5 218.525C233.628 216.296 231.285 214.468 229.033 212.644C226.361 210.482 223.59 208.458 220.637 206.692C217.899 205.054 212.332 211.42 214.571 212.758C219.209 215.539 223.647 218.925 227.576 222.644C229.29 224.263 230.895 226.13 231.752 228.353C232.523 230.358 232.262 231.806 230.957 233.448C228.404 236.658 224.404 237.991 220.142 238.086C217.804 238.139 215.223 237.701 213.166 236.529C212.79 236.315 212.447 236.053 212.113 235.777C211.709 234.829 211.628 233.934 211.232 232.953C210.542 231.244 208.194 232.468 207.247 233.206C206.389 233.872 205.451 234.796 204.808 235.834C204.037 236.039 203.27 236.506 202.594 237.106C201.075 237.22 199.28 238.958 198.604 239.886C196.846 242.291 196.846 244.382 198.404 246.82C199.789 248.991 201.842 249.71 204.218 248.496C205.004 248.096 205.775 247.558 206.475 246.924C207.299 246.924 208.113 246.753 208.851 246.372C209.766 245.901 210.68 245.215 211.451 244.396C215.428 245.344 219.804 244.81 223.614 243.577C229.238 241.763 234.024 237.448 237.09 232.463C238.447 230.253 239.276 227.768 238.9 225.163ZM211.232 234.934C211.175 234.872 211.118 234.815 211.061 234.753C210.009 233.629 211.928 233.448 211.232 234.934Z" fill="#6F6A5F"/>
</g>
<defs>
<clipPath id="clip0_1415_10705">
<rect width="185" height="282" fill="white" transform="translate(58 9)"/>
</clipPath>
</defs>
</svg>
