<svg width="300" height="300" viewBox="0 0 300 300" fill="none" xmlns="http://www.w3.org/2000/svg">
<path d="M110.566 55.0318C23.5185 75.1516 19.7395 192.994 37.5332 147.109C31.4451 159.591 48.3025 176.975 50.8882 168.016C51.577 151.229 51.8099 129.17 61.5653 108.934C83.0216 51.7619 130.814 63.6463 113.54 54.3516" fill="#80A187"/>
<path d="M98.7972 78.9074C99.6074 79.1406 100.126 79.5633 99.9324 79.7139C100.257 79.675 101.174 80.2095 101.703 79.9666C100.733 79.2912 99.4715 78.9025 97.9968 78.6401C97.7591 78.4069 98.0987 78.3923 98.2054 78.3243C97.2206 78.2077 95.9351 77.9599 96.2601 78.7616C97.4389 78.7956 97.5699 79.0969 98.8021 78.9171L98.7972 78.9074Z" fill="#EDDECE"/>
<path d="M92.6461 72.6737C92.6121 72.7028 92.583 72.7271 92.5442 72.7611C92.6073 72.7368 92.6655 72.7125 92.7043 72.6931C92.8353 72.6154 92.942 72.5522 93.039 72.4939L92.7722 72.6251L92.6461 72.6688V72.6737Z" fill="#EDDECE"/>
<path d="M108.97 97.9874C109.004 97.9971 109.023 97.9728 109.052 97.9728C108.994 97.8854 108.96 97.8611 108.97 97.9874Z" fill="#EDDECE"/>
<path d="M92.0397 72.7514C92.1852 72.7854 92.2871 72.766 92.3841 72.7417C92.2677 72.7563 92.1513 72.7709 92.0397 72.7514Z" fill="#EDDECE"/>
<path d="M102.503 139.583C102.115 139.699 102.61 137.62 101.902 140.098C102.12 139.83 102.319 139.685 102.503 139.583Z" fill="#EDDECE"/>
<path d="M92.7868 72.5085C92.6267 72.63 92.5151 72.7125 92.3841 72.7417C92.4715 72.7368 92.5539 72.7028 92.6412 72.6737C92.7286 72.6008 92.8013 72.5328 92.7819 72.5085H92.7868Z" fill="#EDDECE"/>
<path d="M257.083 94.7175C257.451 95.4172 257.733 96.1654 258.058 96.8893C257.805 96.2723 257.495 95.4609 257.083 94.7175Z" fill="#EDDECE"/>
<path d="M148.414 209.105C148.608 209.198 148.797 209.261 148.952 209.271L148.414 209.105Z" fill="#EDDECE"/>
<path d="M261.119 105.008L260.794 103.41C260.769 103.866 260.823 104.328 260.91 104.785C260.978 104.867 261.041 104.964 261.114 105.008H261.119Z" fill="#EDDECE"/>
<path d="M94.9746 76.6869C94.9503 76.6286 94.9067 76.5606 94.8145 76.4732C94.863 76.5509 94.9212 76.6141 94.9746 76.6869Z" fill="#EDDECE"/>
<path d="M93.2622 72.3433C93.204 72.3773 93.136 72.4259 93.039 72.4988C93.1069 72.455 93.1846 72.4016 93.2622 72.3433Z" fill="#EDDECE"/>
<path d="M92.7966 73.777C92.7818 73.6397 92.7966 73.8702 92.7966 73.777V73.777Z" fill="#EDDECE"/>
<path d="M155.734 211.797C156.02 211.807 156.336 211.817 156.617 211.812C156.404 211.797 156.117 211.787 155.734 211.797Z" fill="#EDDECE"/>
<path d="M212.647 60.012C212.72 60.0314 212.797 60.0508 212.87 60.0703C212.773 60.0411 212.705 60.0265 212.647 60.012Z" fill="#EDDECE"/>
<path d="M263.389 118.787C263.355 117.777 263.675 118.535 263.796 117.898C263.986 116.48 262.933 114.507 263.219 113.734C263.268 113.598 263.403 114.099 263.471 114.347C263.209 113.472 262.802 110.212 262.496 111.15C262.259 108.711 261.216 106.699 260.905 104.785C260.454 104.27 260.182 103.278 259.92 102.389C259.629 101.51 259.319 100.752 258.902 100.708C259.285 100.65 259.052 99.6005 258.557 98.4295C258.028 97.2732 257.286 95.9808 256.791 95.3831C257.243 95.7281 256.379 94.1053 256.947 94.4843C256.107 92.9489 255.229 91.6128 255.026 92.0841C254.177 88.8288 250.99 87.0797 250.863 84.971C247.439 81.0695 243.98 77.7801 240.4 74.8747C241.05 74.3937 244.198 78.2806 244.576 77.615C243.776 76.8521 242.942 76.2885 242.209 75.7201C241.462 75.1613 240.768 74.6463 240.031 74.175C239.308 73.694 238.6 73.1984 237.872 72.6494C237.116 72.1295 236.325 71.5659 235.476 70.8857C234.627 70.1326 236.184 70.9926 236.572 71.114C232.842 68.7916 229.461 66.3428 225.667 65.167C226.094 65.8715 222.79 64.8901 222.291 64.9581C223.654 64.55 218.977 63.1895 221.287 62.8737C220.816 62.7328 220.19 62.6259 220.195 62.8834C219.564 62.519 219.414 62.3004 220.195 62.3636C217.614 61.421 218.327 62.1109 216.004 61.2363C216.067 61.0809 216.566 61.1878 216.882 61.0906C215.562 60.9643 214.277 60.8719 212.317 60.1529C212.443 60.0994 212.331 59.9537 212.642 60.0168C209.28 59.1374 206.695 59.3415 203.047 58.2531C204.318 57.7673 201.8 57.7527 201.717 57.0919L199.622 56.883L200.388 57.3397C198.588 56.985 196.915 57.1599 195.401 56.6935L196.784 56.6643L193.383 56.2222L195.261 56.7712C193.383 56.7907 195.328 57.5875 192.956 57.0336C193.456 57.0433 191.157 56.7421 190.269 56.2368H190.274C189.352 56.2999 188.401 56.3874 187.091 56.0376C186.771 55.7849 187.465 55.3816 187.256 55.2164C186.301 55.6149 182.992 54.8035 181.804 55.231C182.192 55.1436 182.255 54.818 182.138 54.7354L181.343 55.0755C180.518 54.8423 180.402 54.7597 180.572 54.5119C178.054 54.1427 181.285 55.4011 178.321 54.716C178.558 54.7063 178.456 54.6285 178.951 54.6188C175.958 54.0989 173.101 54.2787 170.346 53.8171C169.584 53.1029 172.786 53.8803 171.898 53.2584C167.876 53.0009 163.539 53.3167 159.673 52.9377L160.391 53.0543C159.799 53.924 157.529 52.4324 155.54 52.7628C156.025 52.7191 156.195 52.2915 156.059 52.3887C153.406 52.1069 150.607 52.3547 146.566 52.5393L147.07 52.3207C145.508 52.068 142.937 52.1166 141.244 52C140.74 52.2235 139.769 52.1846 140.356 52.5247C135.112 51.1935 130.407 53.3216 125.735 52.4762C126.288 52.4421 127.05 52.1992 126.608 52.2235L122.664 52.6754C123.004 53.0446 123.198 52.8794 124.047 53.1272C123.562 53.3944 122.466 53.6422 121.491 53.72C123.237 53.3264 121.427 53.0883 120.642 52.9329C120.782 53.0446 120.53 53.1952 120.603 53.3118C118.483 52.7822 120.326 54.1232 117.484 53.9143L117.61 53.6957C116.572 53.9046 115.635 54.2884 114.505 54.3613C113.981 53.9629 115.592 54.0164 115.621 53.6422C114.03 53.8463 112.603 54.8812 111.114 54.6528C111.764 54.4245 112.729 54.2787 113.389 54.0747C111.754 53.7443 111.589 53.9289 110.411 54.0115H110.527L107.796 54.2253L108.504 54.2447C106.748 55.7703 104.507 55.2164 102.081 56.674C104.434 55.3088 102.397 56.1493 102.455 55.6003C101.747 55.6343 100.675 55.7849 100.927 55.5566C99.8014 56.3145 98.7245 55.8724 97.1915 57.0919C97.0509 56.951 95.8818 57.6166 95.9933 57.1162C94.4507 57.9082 96.4833 57.2231 96.4251 57.4709C95.3142 58.2191 93.8637 58.7341 92.3065 59.5455C90.7881 60.3424 89.0806 61.5959 88.2995 63.6025C87.9115 64.4188 87.732 65.1184 87.6689 65.7355C87.6107 66.0367 87.6252 66.3234 87.6398 66.5906C87.6689 66.8773 87.6204 67.1639 87.7174 67.4214C88.0618 68.262 88.4936 68.9276 89.2746 69.6321C89.4783 69.8702 89.6966 70.0937 89.9392 70.2978C90.109 70.7496 89.0224 70.1229 88.8429 69.948C89.3086 70.6816 89.9101 71.2064 90.5844 71.561C90.9337 71.7311 91.2975 71.8671 91.6856 71.9497C92.0106 72.008 92.2677 72.0129 92.6073 71.9837C92.2823 72.0906 92.486 72.2558 92.6364 72.387C92.8692 72.3627 93.0536 72.2461 93.2331 72.1635C93.4514 72.0323 93.6503 71.8914 93.8831 71.7651C93.9753 71.7019 94.082 71.6339 94.2227 71.5367L94.31 71.4833C94.31 71.4833 94.2663 71.5513 94.2421 71.5902C94.179 71.6776 94.1063 71.7797 94.0238 71.8914C93.9607 71.8914 93.8637 71.9254 93.7618 71.9595C93.6115 72.0566 93.4126 72.217 93.2234 72.3579C93.5629 72.1441 93.2573 72.5376 93.267 72.766C93.2622 72.9409 93.1894 73.1207 93.2331 73.3636L93.2525 73.728C93.2525 73.6746 93.2816 73.8252 93.301 73.9369L93.3689 74.2673C93.2573 74.5297 93.1118 74.2868 92.9711 73.8446C92.8741 73.7329 92.8498 73.4413 92.7625 73.3685C92.7625 73.4705 92.7625 73.5823 92.7625 73.6989V73.7863C92.7625 73.7863 92.7625 73.796 92.7625 73.8106L92.845 74.3062C92.8838 74.6463 93.0002 74.9573 93.1506 75.2488C93.2816 75.55 93.432 75.8318 93.626 76.0456C94.3391 76.9979 95.1686 77.3769 95.5131 77.372C95.3045 77.168 95.1153 76.9396 94.9358 76.7015C95.0425 76.9493 94.6641 76.959 94.3197 76.7015C93.6309 76.1914 93.3398 75.5452 93.3107 75.0933C93.2331 74.6512 93.4077 74.3985 93.4805 74.3402C93.5387 74.7532 93.7958 75.0933 93.9559 75.4528C94.1305 74.7483 93.8006 73.8155 93.9559 72.834C94.0723 72.3822 94.1451 71.9595 94.3343 71.6485L94.4458 71.4104C94.4992 71.3375 94.4216 71.3958 94.3585 71.4396L94.1839 71.561C93.9607 71.7311 93.723 71.8137 93.5241 71.906C93.4029 71.9352 93.2913 71.9643 93.1797 71.9886L93.888 71.561L94.2663 71.3084L94.3585 71.2452C94.6205 71.1383 94.8776 71.0023 95.1201 70.8225C90.9676 76.3517 99.2775 79.1795 103.653 79.8014C103.716 79.8791 103.774 79.9568 103.833 80.0394C103.498 80.1269 103.129 80.1658 102.921 80.4038C102.853 80.3941 102.785 80.3795 102.707 80.3747L101.999 80.8022C102.251 80.8314 102.503 80.8508 102.761 80.8654C102.741 81.2687 102.896 81.8955 103.367 82.9206L105.036 84.4851C105.075 84.7426 105.055 85.0293 105.055 85.3014C104.808 84.7281 104.366 84.2713 104.036 83.7515C104.182 84.2859 104.415 84.6406 104.691 84.9273C104.929 85.2382 105.196 85.4909 105.463 85.7727C105.366 86.0302 105.375 86.3752 105.506 86.7979L107.17 88.4158C106.996 88.7753 106.19 87.789 106.646 89.164C107.301 89.9949 106.966 87.9639 107.733 89.4896C107.747 90.6362 107.369 90.4273 108.068 91.5108C107.932 91.7391 107.723 91.5302 107.476 91.0978C107.772 91.5788 108.039 92.259 108.305 92.8761C108.528 93.5028 108.693 94.081 108.965 94.3142C108.776 95.4949 109.872 97.9923 109.033 98.0068C109.242 98.3226 109.809 99.892 109.945 100.922C109.382 100.018 109.533 100.971 109.537 102.103C109.518 103.24 109.489 104.547 109.009 104.299C109.896 105.688 109.174 109.328 109.285 111.854C109.242 111.708 109.154 111.417 109.227 111.203C108.955 112.588 108.655 112.957 108.373 113.827C108.689 113.968 108.805 114.589 108.868 115.333C108.892 116.071 108.863 116.936 108.946 117.563C107.971 119.142 108.388 116.373 107.675 116.795C108.223 116.81 107.607 119.851 108.16 119.37C107.51 120.59 107.713 120.449 107.025 120.993C107.781 121.411 106.865 122.232 107.097 123.427C106.234 125.206 106.244 123.714 105.928 125.832C105.414 126.741 105.632 124.841 105.632 124.841C105.045 126.921 105.957 125.983 106.181 126.518C105.661 129.063 105.414 127.548 104.876 128.31C104.609 129.909 104.783 131.269 104.424 132.421C104.298 132.479 104.196 132.693 104.153 132.392C104.153 134.18 102.697 137.294 102.717 139.403C102.62 139.529 102.547 139.587 102.494 139.612C102.887 139.388 103.207 139.437 103.406 139.563C103.134 140.506 103.26 141.424 102.761 141.662C102.945 141.089 102.799 140.992 102.761 140.685L102.634 141.725C101.8 142.444 102.843 140.321 102.426 140.195C102.023 142.172 101.829 144.563 101.257 146.006C100.612 146.161 102.062 142.473 101 144.32L101.883 142.09C100.485 143.576 102.363 140.719 100.946 142.046C99.8984 145.024 100.233 145.51 99.2387 148.518C99.3697 149.29 99.7577 148.411 99.8887 149.183C99.6122 151.389 99.0398 152.307 98.5498 152.648C98.0259 153.269 97.4389 153.77 97.4341 155.558C97.5893 156.525 98.2054 156.981 97.4341 159.284L96.9344 158.366C96.6046 159.936 96.8714 160.421 96.9781 160.907C97.1139 161.393 97.177 161.879 96.8859 163.507C96.6434 162.909 96.8326 161.019 96.7258 161.49C96.0515 163.599 96.9878 163.031 96.9102 164.658L96.3329 164.989C96.3717 168.375 97.1333 172.029 98.0017 175.6C97.7931 175.44 97.4777 174.852 97.4874 175.736C98.7051 180.264 100.233 185.361 102.28 189.535L103.624 190.769C103.823 191.119 103.857 191.522 103.517 191.211C104.395 192.79 103.833 191.114 104.488 191.702C105.099 192.503 105.031 192.965 104.536 192.528C105.618 193.703 107.238 195.292 108.96 196.774C110.653 198.295 112.574 199.553 113.889 200.661L113.253 200.438C115.499 201.949 116.314 200.923 118.4 202.172C118.24 202.172 118.09 202.128 117.935 202.104C120.603 203.124 123.678 203.416 126.482 203.188C129.296 202.974 131.867 202.362 133.997 201.9C134.123 201.657 134.516 201.429 135.035 201.205C135.525 201.006 136.306 200.608 136.398 200.603C136.524 200.554 136.621 200.515 136.718 200.462L136.864 200.379C136.902 200.389 136.936 200.428 136.975 200.442C137.121 200.515 137.281 200.506 137.446 200.316C137.557 200.617 137.94 201.166 138.164 201.536C138.396 201.915 138.576 202.201 138.77 202.522C139.139 203.207 139.813 203.795 141.496 205.359C141.962 205.753 142.413 205.908 142.898 206.064C143.398 206.19 143.965 206.273 144.625 206.608L144.383 207.074L146.401 207.614L147.046 208.712L148.394 209.135C147.89 208.892 147.405 208.459 147.55 208.357C149.622 208.994 152.285 210.743 152.314 210.908L154.871 211.389C155.298 211.462 155.715 211.559 156.142 211.608L157.432 211.69C157.345 211.797 157.005 211.831 156.598 211.841C157.966 211.943 156.467 212.448 158.703 212.37C158.383 212.2 158.926 212.089 158.999 211.991C160.187 212.608 163.079 212.623 165.189 212.56L164.786 212.91C165.752 212.973 166.736 212.808 167.741 212.74C168.74 212.609 169.783 212.609 170.792 212.332C172.829 211.87 174.93 211.447 176.958 210.694C175.434 211.01 175.609 210.296 176.763 209.858L177.414 210.233C178.068 209.659 176.113 210.437 177.54 209.528C179.053 209.101 178.777 209.786 177.957 210.242C178.554 209.98 179.155 209.737 179.708 209.377C179.878 209.484 179.495 209.756 179.461 209.999C180.048 209.348 182.798 209.091 183.584 208.041L183.759 208.129C185.597 206.963 186.985 206.185 188.12 205.228C189.226 204.237 190.327 203.396 191.603 202.172C191.322 201.774 192.345 200.85 192.777 199.835C193.233 199.388 193.757 198.975 194.218 198.479C194.659 197.964 195.105 197.435 195.566 196.891C196.027 196.342 196.493 195.773 196.949 195.18C197.4 194.583 197.715 193.878 198.084 193.193C198.181 192.936 198.254 192.732 198.312 192.566C198.375 192.382 198.317 192.435 198.322 192.367C198.297 192.29 198.263 192.246 198.225 192.212C198.142 192.134 198.016 192.139 198.011 191.838C198.2 191.964 198.399 191.716 198.559 191.702C198.807 191.847 198.884 191.935 198.748 192.066C198.855 192.085 198.957 192.1 199.049 192.115C199.243 192.153 199.423 192.192 199.593 192.226C200.281 192.367 200.893 192.523 201.548 192.605C202.207 192.634 202.901 192.668 203.726 192.707C204.55 192.698 205.496 192.853 206.67 192.664C206.161 192.503 205.598 192.445 205.894 192.285C206.733 192.183 207.81 192.401 207.699 192.61L207.476 192.664C208.79 192.46 210.197 192.44 211.628 192.202C212.351 192.134 213.088 192.061 213.821 191.988C214.558 191.925 215.266 191.726 215.994 191.6C216.717 191.449 217.43 191.303 218.128 191.157C218.817 190.978 219.453 190.706 220.079 190.467C221.248 189.996 222.32 189.51 223.091 188.801L224.808 187.528L225.677 186.877L226.477 186.134C228.117 184.997 225.706 187.12 227.05 186.449C227.879 185.58 228.704 184.929 229.407 184.253C230.096 183.558 230.765 182.956 231.425 182.378C232.109 181.819 232.682 181.192 233.24 180.517C233.802 179.846 234.355 179.137 234.874 178.316C236.194 177.437 237.829 175.226 238.906 172.588C239.57 171.329 239.934 169.91 240.4 168.637C240.914 167.379 241.215 166.16 241.622 165.183L241.278 165.353C241.21 164.255 241.714 164.129 241.942 163.361C241.685 163.434 241.438 164.449 241.409 163.774C241.661 162.681 241.583 161.529 241.695 160.402L241.806 158.697C241.821 158.128 241.753 157.555 241.734 156.981L241.69 156.121V155.83C241.714 155.704 241.612 155.495 241.821 155.485L242.03 155.417C242.132 155.378 242.059 155.427 242.408 155.266L243.98 154.581C248.093 152.58 252.066 149.927 255.258 146.496C256.462 145.272 256.369 144.577 256.486 143.936C256.534 143.606 256.612 143.27 256.869 142.833C257.146 142.405 257.553 141.852 258.222 141.026L258.087 142.362C259.654 139.296 261.065 136.143 262.094 132.853C263.069 129.559 263.549 126.148 263.433 122.883C263.554 123.277 263.704 123.296 263.661 123.933C264.199 122.563 263.753 118.802 263.365 118.817L263.389 118.787ZM89.5463 63.6997C89.522 63.5199 89.6045 63.1847 89.9586 62.5531C90.1866 62.4947 90.4146 62.4462 90.6426 62.4024C90.2254 62.8203 89.8616 63.2527 89.5463 63.6997ZM92.2483 71.8574C92.0979 71.7311 91.9621 71.561 91.9912 71.425C92.0009 71.3958 92.0155 71.3716 92.0349 71.3521C92.6946 71.5173 93.3689 71.527 94.0044 71.3521C93.3058 71.6679 92.7577 71.77 92.2483 71.8574ZM98.1714 175.537C98.0647 175.095 97.9774 174.721 97.9192 174.482C97.9726 174.701 98.0502 175.007 98.1812 175.537H98.1714ZM98.7875 177.956C98.904 177.767 99.1126 177.884 99.2241 178.311C99.064 178.107 99.2193 179.137 99.292 179.808C99.1514 179.288 98.9767 178.641 98.7875 177.961V177.956ZM131.629 53.2681C131.149 53.2827 130.669 53.2973 130.193 53.3118C130.29 53.1418 130.664 52.9863 131.566 52.8648C131.62 52.9766 131.673 53.1272 131.634 53.2681H131.629Z" fill="#EDDECE"/>
<path d="M226.516 65.3225C225.798 65.0164 224.93 64.4577 224.881 64.8221L225.589 65.0456C225.628 65.0893 225.652 65.1233 225.677 65.1573C225.716 65.099 226.128 65.2059 226.516 65.3225Z" fill="#EDDECE"/>
<path d="M144.344 207.147L144.402 207.045L144.004 206.929L144.344 207.147Z" fill="#EDDECE"/>
<path d="M120.666 52.928C120.617 52.8891 120.525 52.8551 120.346 52.8308C120.36 52.86 120.501 52.894 120.666 52.928Z" fill="#EDDECE"/>
<path d="M110.435 54.0066L108.965 54.0795C109.605 54.0698 110.066 54.0358 110.435 54.0066Z" fill="#EDDECE"/>
<path d="M102.586 55.3573C102.508 55.4642 102.494 55.5323 102.484 55.5954H102.499L102.581 55.3573H102.586Z" fill="#EDDECE"/>
<path d="M226.516 65.3225C226.618 65.3662 226.715 65.4051 226.807 65.4342C227.515 65.6626 227.045 65.4828 226.516 65.3225Z" fill="#EDDECE"/>
<path d="M190.283 56.2319C190.686 56.2028 191.084 56.1785 191.501 56.1833C190.851 56.0473 190.342 55.9647 190.283 56.2319Z" fill="#EDDECE"/>
<path d="M256.966 94.4794H256.956C257 94.562 257.039 94.6301 257.082 94.7126L256.966 94.4794Z" fill="#EDDECE"/>
<path d="M191.501 56.1833C192.035 56.2951 192.66 56.4457 193.213 56.4603C192.573 56.2659 192.02 56.193 191.501 56.1833Z" fill="#EDDECE"/>
<path d="M94.0578 77.2408C94.0772 77.2117 94.1111 77.2165 94.1548 77.2311L93.7473 76.8813L94.0578 77.2457V77.2408Z" fill="#EDDECE"/>
<path d="M94.1548 77.2263L94.5574 77.5615C94.3876 77.3915 94.2421 77.2408 94.1548 77.2263Z" fill="#EDDECE"/>
<path d="M95.4452 78.1154L94.5574 77.5664C94.8339 77.7947 95.1784 78.0862 95.4452 78.1154Z" fill="#EDDECE"/>
<path d="M89.9829 71.8428L89.7646 71.9157C89.8519 71.9254 89.9295 71.906 89.9829 71.8428Z" fill="#EDDECE"/>
<path d="M88.4354 70.7011C87.9745 70.0791 87.6835 69.3358 87.3536 68.9811C87.6786 69.8751 88.3626 71.2938 89.5851 71.9595L89.7646 71.9109C89.425 71.8623 88.8768 71.3278 88.4305 70.7011H88.4354Z" fill="#EDDECE"/>
<path d="M173.242 53.4527L172.698 53.7977L174.28 53.822L173.242 53.4527Z" fill="#EDDECE"/>
<path d="M206.554 145.034C206.399 144.334 206.108 143.669 205.792 143.027C205.065 141.56 204.274 140.088 203.328 138.752C202.707 137.877 201.96 137.075 201.232 136.288C200.383 135.375 199.374 134.607 198.137 134.816C198.103 134.753 198.074 134.685 198.04 134.622C197.715 133.985 197.322 133.728 196.58 133.767C195.736 133.81 194.732 134.369 194.096 134.874C193.247 135.545 192.423 136.366 191.933 137.343C191.632 137.94 191.113 138.961 191.448 139.626C192.723 142.138 193.8 144.747 195.319 147.128C196.032 148.246 196.857 149.266 197.827 150.17C198.317 150.626 198.758 151.136 199.263 151.579C199.471 151.763 199.656 151.958 199.855 152.152C200.315 152.609 200.81 152.628 201.426 152.643C202.493 152.667 203.59 151.817 204.337 151.166C205.191 150.417 206.175 149.378 206.447 148.226C206.709 147.128 206.796 146.151 206.554 145.039V145.034Z" fill="#6F6A5F"/>
<path d="M215.538 113.268C217.605 114.599 219.894 115.552 222.407 115.265C225.381 114.93 228.141 113.234 230.13 111.048C232.124 108.861 233.715 106.179 234.069 103.191C234.205 102.03 234.132 100.694 233.7 99.6005C233.298 98.585 232.497 98.002 231.935 97.1128C231.585 96.5638 230.426 96.7922 229.994 96.9282C229.072 97.2197 228.093 97.9242 227.433 98.6142C226.773 99.3041 226.021 100.198 225.749 101.18C225.546 101.903 225.517 102.467 225.934 103.123C226.312 103.726 226.889 104.163 227.253 104.775L226.962 104.27C227.258 104.853 227.389 105.489 227.452 106.135L227.394 105.475C227.433 106.014 227.389 106.529 227.346 107.063C227.287 107.389 227.307 107.326 227.404 106.869C227.375 106.995 227.341 107.122 227.307 107.248C227.239 107.481 227.147 107.71 227.064 107.938C226.86 108.511 227.496 107.068 227.079 107.889C227.001 108.045 226.919 108.2 226.831 108.351C226.341 109.201 227.331 107.685 226.928 108.215C226.788 108.4 226.642 108.579 226.501 108.764C227.394 107.578 226.943 108.249 226.652 108.54C226.157 109.041 227.661 107.744 226.846 108.351C226.526 108.594 226.157 108.642 227.142 108.171C226.943 108.264 226.715 108.38 226.531 108.502C227.113 108.254 227.229 108.195 226.889 108.336C226.768 108.385 226.642 108.424 226.521 108.463C226.385 108.506 226.249 108.54 226.113 108.574C226.55 108.487 226.603 108.472 226.278 108.526C225.735 108.57 225.221 108.604 224.673 108.56L225.332 108.618C224.047 108.472 222.858 108.021 221.733 107.389L222.237 107.68C222 107.544 221.767 107.399 221.534 107.248C220.889 106.83 220.336 106.83 219.594 107.063C218.672 107.355 217.692 108.059 217.032 108.749C216.372 109.439 215.62 110.333 215.349 111.315C215.203 111.844 214.946 112.884 215.533 113.258L215.538 113.268Z" fill="#6F6A5F"/>
<path d="M226.555 157.001C222.883 158.813 217.905 159.396 215.815 155.247C214.912 153.459 214.815 151.686 215.077 149.771C215.179 149.023 215.431 148.09 215.873 147.089C215.616 147.672 216.241 146.443 216.334 146.273C216.654 145.695 215.771 147.016 216.421 146.132C216.63 145.85 216.833 145.573 217.056 145.306C216.164 146.375 218.25 144.315 217.221 145.151C217.459 144.956 217.697 144.776 217.944 144.597C218.502 144.189 217.134 145.029 218.167 144.461C219.201 143.892 219.875 143.63 221.228 143.329C225.541 142.357 229.921 140.826 231.086 135.963C232.686 129.282 232.953 121.265 237.562 116.013C238.076 115.425 238.28 115.94 237.28 116.139C237.736 116.047 238.139 115.892 238.605 115.828C239.386 115.726 240.118 115.78 240.87 116.003C242.389 116.46 243.553 117.573 244.412 118.88C246.323 121.79 246.759 125.672 246.512 129.068C246.371 130.992 248.506 130.662 249.646 130.045C251.237 129.19 253.076 127.31 253.216 125.39C253.711 118.549 251.072 108.137 242.277 109.114C231.716 110.29 227.768 122.946 225.982 131.702C225.57 133.728 224.799 136.026 224.716 138.086C224.634 140.146 228.553 135.866 226.545 136.162C226.157 136.22 225.779 136.356 225.4 136.454C224.517 136.677 223.586 136.847 222.693 137.1C219.186 138.091 215.989 140.204 213.539 142.882C209.663 147.133 206.811 153.712 208.902 159.464C211.681 167.126 220.311 165.499 226.118 162.632C227.661 161.869 229.689 159.829 229.689 157.978C229.689 156.024 227.801 156.384 226.555 157.001Z" fill="#B77F76"/>
<path d="M90.662 72.8437C95.1298 72.0323 98.8457 74.5734 101.965 77.5129C104.764 80.1512 107.544 83.1393 109.678 86.3509C113.569 92.1959 114.781 99.3478 114.587 106.257C114.161 121.115 108.441 135.19 107.452 149.966C106.962 157.302 107.946 164.697 112.385 170.751C114 172.952 120.239 167.253 118.391 164.736C110.154 153.508 115.189 137.309 117.852 125.031C120.933 110.839 124.421 94.6252 116.358 81.395C114.039 77.5907 110.808 74.073 107.524 71.08C103.891 67.7713 99.3939 65.2107 94.3343 66.129C92.3647 66.4837 90.628 67.9559 89.6869 69.705C89.1582 70.6913 88.6682 73.2033 90.662 72.8437Z" fill="#DEBE9F"/>
<path d="M119.472 183.85C122.359 188.213 125.337 192.562 129.039 196.283C130.746 198.003 132.701 199.369 134.511 200.962C136.082 202.347 137.97 204.232 140.264 203.848C142.195 203.528 144.038 202.017 144.911 200.272C145.416 199.267 145.95 196.798 143.936 197.134C143.703 197.172 143.34 197.085 143.757 197.187C143.529 197.129 143.32 197.066 143.107 196.973C142.84 196.862 142.588 196.677 142.205 196.385C141.438 195.797 140.759 195.108 140.007 194.5C138.13 192.984 136.272 191.536 134.588 189.787C131.1 186.168 128.253 182.004 125.483 177.825C125.124 177.281 123.984 177.5 123.542 177.641C122.621 177.932 121.641 178.637 120.981 179.327C119.938 180.42 118.473 182.315 119.477 183.84L119.472 183.85Z" fill="#DEBE9F"/>
<path d="M92.2823 70.667C95.4452 69.2192 98.5886 67.4749 102.013 66.6975C105.637 65.8715 108.96 66.6635 112.4 67.8199C119.545 70.2152 126.075 73.6649 131.464 79.0483C133.55 81.1326 139.57 75.1322 137.47 73.0332C131.493 67.0619 124.003 63.2819 116.038 60.7651C112.206 59.5552 108.402 59.3075 104.478 60.2355C100.345 61.2121 96.5561 63.2721 92.7189 65.031C91.1665 65.7403 89.1485 67.8733 89.1485 69.6856C89.1485 71.6679 91.0307 71.2355 92.2823 70.6622V70.667Z" fill="#DEBE9F"/>
<path d="M152.726 95.9565C152.576 95.8058 152.382 95.7184 152.173 95.6649C151.766 94.8827 151.388 94.0859 150.97 93.3085C150.461 92.361 149.947 91.4185 149.437 90.4662C148.385 88.4935 147.371 86.5015 146.478 84.456C145.756 82.7992 143.529 83.9167 142.534 84.7086C141.685 85.3791 140.861 86.2002 140.371 87.1768C140.056 87.7987 139.58 88.7559 139.886 89.4604C140.856 91.6857 141.972 93.8429 143.117 95.9808C143.684 97.0351 144.252 98.0797 144.819 99.134C145.392 100.203 145.823 101.388 146.595 102.331C146.842 102.632 147.41 102.695 147.764 102.681C148.506 102.642 149.209 102.253 149.816 101.86C151.106 101.019 152.275 99.7414 152.785 98.2643C152.824 98.1477 152.867 98.0263 152.906 97.9097C153.105 97.3412 153.207 96.4521 152.722 95.9662L152.726 95.9565Z" fill="#DEBE9F"/>
<path d="M150.243 121.115C152.794 129.428 155.331 137.741 157.713 146.103C159.877 153.697 162.521 161.155 166.513 168.001C170.302 174.492 175.633 179.589 181.532 184.156C187.669 188.908 194.407 192.528 201.732 195.064C204.405 195.992 209.741 189.51 206.724 188.461C199.612 185.998 193.194 182.543 187.251 177.918C181.459 173.404 176.147 168.341 172.48 161.908C168.706 155.286 166.261 148.003 164.19 140.695C161.856 132.465 159.343 124.292 156.835 116.115C155.923 113.137 149.399 118.36 150.243 121.115Z" fill="#DEBE9F"/>
<path d="M140.259 61.3821C146.498 61.6979 152.576 63.2721 158.635 64.686C164.694 66.0999 170.879 67.4555 176.861 69.5544C182.638 71.5805 188.333 73.9418 193.897 76.5072C199.462 79.0726 203.609 82.5368 207.767 86.691C209.853 88.7753 215.873 82.7749 213.772 80.6759C211.74 78.645 209.838 76.7793 207.519 75.0593C205.128 73.281 202.654 71.7117 199.966 70.4144C194.111 67.5818 187.989 65.1087 181.857 62.9563C175.75 60.8136 169.526 59.4629 163.239 57.9956C156.855 56.504 150.505 55.0027 143.932 54.6723C141.268 54.5362 136.354 61.1878 140.259 61.387V61.3821Z" fill="#DEBE9F"/>
<path d="M179.218 234.434C174.702 233.229 170.404 230.838 167.939 226.718C165.781 223.108 165.456 218.73 166.077 214.649C166.829 209.684 169.138 204.956 172.068 200.967C172.795 199.976 174.023 197.712 172.32 197.017C170.709 196.356 168.376 198.577 167.576 199.665C162.205 206.972 158.111 216.189 159.309 225.45C159.819 229.39 161.638 233.185 164.539 235.925C166.135 237.431 168.051 238.617 170.035 239.535C171.975 240.434 174.057 240.871 176.05 241.581H175.58C173.023 241.581 167.91 247.999 171.908 248.295C176.502 248.636 181.75 248.067 185.122 244.588C186.771 242.888 188.163 240.279 186.466 238.16C184.831 236.115 181.615 235.075 179.213 234.434H179.218ZM180.576 244.37C180.576 244.37 180.557 244.336 180.562 244.302C180.926 244.496 180.567 244.37 180.576 244.37Z" fill="#6F6A5F"/>
<path d="M209.445 237.043C208.213 229.57 203.837 223.992 200.432 217.467C198.972 214.673 197.851 211.608 197.846 208.415C197.836 203.659 199.728 199.247 201.96 195.137C202.639 193.888 202.857 192.017 200.985 191.998C199.132 191.983 197.138 194.097 196.338 195.574C191.952 203.644 189.163 212.677 193.315 221.403C194.848 224.619 196.905 227.544 198.666 230.634C200.34 233.574 201.64 236.664 202.421 239.929C200.437 241.348 197.439 242.047 194.955 242.227C194.169 241.377 191.855 242.621 191.263 243.068C189.832 244.151 188.382 245.92 188.619 247.819C188.634 247.926 188.644 248.028 188.658 248.135C188.746 248.82 189.599 248.995 190.118 248.99C196.027 248.947 202.168 246.318 206.394 242.081C207.461 241.406 208.417 240.41 208.97 239.331C208.97 239.322 208.979 239.312 208.984 239.307C209.3 238.69 209.649 237.747 209.45 237.043H209.445Z" fill="#6F6A5F"/>
<path d="M270.845 84.3005C271.505 80.7051 270.064 76.2545 266.95 74.1604C263.394 71.7651 258.974 72.0129 254.914 72.5522C249.646 73.2519 244.402 74.3305 239.429 76.2302C237.586 76.9347 235.791 78.5575 235.18 80.4864C234.68 82.0558 235.631 83.251 237.305 82.6145C241.734 80.9237 246.323 79.9325 251.009 79.3009C254.686 78.8053 259.333 78.2174 262.166 81.2104C263.35 82.4591 264.146 84.2811 264.296 85.9913C264.451 87.7939 263.67 89.5139 262.894 91.0929C261.89 93.1336 260.721 95.0916 259.552 97.04C259.134 97.7347 258.649 98.449 258.271 99.1972C255.603 100.378 252.27 105.455 255.695 105.669C256.093 105.693 256.719 106.097 257.179 106.179C257.98 106.325 258.761 106.325 259.561 106.228C260.371 106.131 261.182 106.014 261.972 105.815C262.729 105.625 263.399 105.256 263.961 105.12C265.8 104.688 267.653 102.618 268.211 100.864C268.769 99.1 267.731 98.3518 266.086 98.7356C265.038 98.9834 264.48 99.2992 263.568 99.4644C264.063 98.585 264.524 97.6862 265.043 96.8213C267.376 92.9441 270.02 88.8239 270.845 84.3054V84.3005Z" fill="#6F6A5F"/>
<path d="M152.193 193.29C151.994 193.422 151.795 193.548 151.596 193.679C151.674 193.611 151.465 193.684 150.956 193.912C150.068 194.136 149.248 194.456 148.336 194.583C146.769 194.801 145.154 194.777 143.577 194.797C140.444 194.84 137.266 194.704 134.317 193.548C131.707 192.528 129.519 190.691 127.714 188.573C125.968 186.522 124.212 184.127 124.445 181.309C124.925 175.527 128.908 171.698 133.167 168.249C134.326 167.311 136.446 165.217 135.811 163.497C135.18 161.787 132.755 163.031 131.867 163.75C127.147 167.573 122.427 171.868 119.807 177.471C118.604 180.041 117.678 183.073 117.702 185.934C117.726 188.723 118.987 190.978 120.598 193.179C123.974 197.799 128.748 200.7 134.448 201.302C137.373 201.613 140.351 201.574 143.286 201.414C144.873 201.327 146.454 201.03 147.977 200.569C147.866 200.753 147.754 200.943 147.643 201.127C147.643 201.132 147.633 201.142 147.628 201.147C147.521 201.307 147.415 201.463 147.303 201.618C147.157 201.817 147.012 202.017 146.862 202.211C146.847 202.23 146.828 202.255 146.813 202.274C146.779 202.313 146.745 202.347 146.706 202.386C146.609 202.444 146.512 202.502 146.415 202.556C144.742 203.518 143.291 204.635 142.078 206.151C141.574 206.783 141.016 207.798 140.972 208.639C140.943 209.232 141.166 209.936 141.826 210.101C142.593 210.291 143.446 209.995 144.106 209.616C144.742 209.251 145.304 208.794 145.819 208.284C146.11 208.119 146.401 207.954 146.682 207.774C147.371 207.342 147.972 206.914 148.564 206.428C148.477 207.866 149.923 208.556 151.669 207.575C151.814 207.492 151.96 207.41 152.106 207.332C153.595 206.496 155.462 204.752 155.657 202.911C156.782 200.865 157.65 198.664 157.451 196.298C157.189 193.213 155.094 191.643 152.212 193.295L152.193 193.29Z" fill="#6F6A5F"/>
<path d="M92.0979 66.2602C85.8449 71.5513 79.8247 77.0951 74.6341 83.4551C69.4435 89.8151 65.3928 96.8893 62.3852 104.469C56.4911 119.322 54.4052 135.603 56.9665 151.399C58.2472 159.314 60.9881 167.015 66.1496 173.243C67.9493 175.415 74.1199 169.595 72.1552 167.228C63.7968 157.147 61.8758 142.284 62.5647 129.579C62.9867 121.81 64.7525 113.87 67.2314 106.51C69.5017 99.7803 72.65 93.3765 76.8704 87.6579C81.5711 81.2881 87.3681 75.8561 93.3932 70.7594C94.538 69.7925 96.6822 67.7518 96.037 66.0076C95.3918 64.2633 92.9663 65.5168 92.0931 66.2602H92.0979Z" fill="#95CB91"/>
</svg>
