<svg width="96" height="96" viewBox="0 0 96 96" fill="none" xmlns="http://www.w3.org/2000/svg">
<g clip-path="url(#clip0_1540_6342)">
<path d="M48 96C74.5097 96 96 74.5097 96 48C96 21.4903 74.5097 0 48 0C21.4903 0 0 21.4903 0 48C0 74.5097 21.4903 96 48 96Z" fill="#B9B0FF"/>
<mask id="mask0_1540_6342" style="mask-type:luminance" maskUnits="userSpaceOnUse" x="0" y="0" width="96" height="96">
<path d="M48 96C74.5097 96 96 74.5097 96 48C96 21.4903 74.5097 0 48 0C21.4903 0 0 21.4903 0 48C0 74.5097 21.4903 96 48 96Z" fill="white"/>
</mask>
<g mask="url(#mask0_1540_6342)">
<path d="M38.18 15.13C38.3 15.08 38.26 15.21 38.26 15.26C38.47 14.93 38.73 14.49 38.4 14.48C38.22 14.9 38.08 14.89 37.95 15.38C37.72 15.62 37.5 15.77 37.47 15.66C37.45 15.73 37.36 15.82 37.26 15.93C37.17 16.04 37.1 16.18 37.11 16.3C37.49 16.01 37.85 15.64 38.18 15.13Z" fill="#F3EADE"/>
<path d="M42.23 12.9499C42.1 12.9699 42 12.9799 41.91 13.0199C42.01 12.9999 42.11 12.9899 42.21 12.9799C42.21 12.9699 42.21 12.9599 42.23 12.9399V12.9499Z" fill="#F3EADE"/>
<path d="M31.79 22.8499C31.79 22.8499 31.81 22.8599 31.82 22.8699C31.83 22.8299 31.82 22.8099 31.79 22.8499Z" fill="#F3EADE"/>
<path d="M42.75 12.9799C42.6 12.9499 42.51 12.9699 42.43 12.9699C42.53 12.9699 42.64 12.9499 42.75 12.9799Z" fill="#F3EADE"/>
<path d="M19.58 35.2498C19.71 35.1998 19.81 35.1798 19.89 35.1798C19.73 35.1498 20.28 34.4998 19.58 35.2498Z" fill="#F3EADE"/>
<path d="M42.24 13.06C42.28 13.01 42.33 12.98 42.43 12.97C42.35 12.97 42.28 12.97 42.21 12.98C42.19 13.01 42.19 13.04 42.24 13.05V13.06Z" fill="#F3EADE"/>
<path d="M85.02 61.6299C84.9 61.9399 84.73 62.2399 84.58 62.5399C84.71 62.2899 84.89 61.9699 85.02 61.6299Z" fill="#F3EADE"/>
<path d="M82.9 64.99C82.73 65.08 82.56 65.18 82.41 65.29C82.39 65.33 82.37 65.37 82.36 65.41C82.54 65.27 82.73 65.14 82.9 64.99Z" fill="#F3EADE"/>
<path d="M21.77 74.5399C21.7 74.4899 21.61 74.4299 21.48 74.3499C21.57 74.4099 21.68 74.4799 21.77 74.5399Z" fill="#F3EADE"/>
<path d="M85.48 56.86C85.25 54.79 84.84 52.93 84.31 51.18C84.63 51.17 84.81 53.1499 85.1 53.0099C84.85 52.16 84.6 51.5 84.35 50.86C84.05 50.2299 83.86 49.58 83.56 48.77C83.43 48.34 83.78 48.96 83.89 49.08C83.5 48.29 83.22 47.5 82.85 46.77C82.51 46.02 82.13 45.33 81.67 44.7C81.7 44.69 81.81 44.82 81.9 44.9399C81.74 44.68 81.6 44.3 81.49 44.4L81.67 44.6399C81.7 44.8999 81.46 44.6899 81.2 44.4199C80.93 44.16 80.62 43.84 80.57 43.84C81.19 44.06 79.86 42.5099 80.72 42.9199C80.59 42.7699 80.4 42.59 80.35 42.68C80.21 42.42 80.2 42.31 80.46 42.5C79.78 41.65 79.87 42.06 79.31 41.25C79.37 41.2099 79.5 41.36 79.63 41.3899C79.24 41.0499 78.83 40.75 78.38 40.06C78.44 40.07 78.43 39.9599 78.58 40.16C78.15 39.6 77.69 39.1899 77.25 38.7599C76.81 38.3199 76.36 37.8799 75.9 37.25C76.43 37.4 75.63 36.7899 75.77 36.5499L75.15 35.9799L75.28 36.31C74.79 35.77 74.23 35.42 73.86 34.91L74.31 35.2299L73.34 34.27L73.8 34.9C73.2 34.46 73.61 35.18 73 34.43C73.15 34.55 72.51 33.9 72.35 33.52C72.04 33.32 71.72 33.1199 71.39 32.6899C71.35 32.5299 71.67 32.57 71.65 32.4599C71.25 32.3599 70.42 31.2899 69.94 31.1399C70.08 31.2099 70.19 31.12 70.17 31.06L69.84 30.97C69.64 30.69 69.63 30.64 69.74 30.6C69.05 29.86 69.74 31.06 68.99 30.11C69.07 30.17 69.05 30.11 69.21 30.24C68.41 29.33 67.49 28.67 66.78 27.83C66.74 27.41 67.5 28.4699 67.4 28.0499C66.25 26.9499 64.87 25.93 63.86 24.76L64.03 24.99C63.62 25.09 63.38 24.03 62.73 23.58C62.88 23.7 63.05 23.63 62.98 23.62C62.32 22.8 61.47 22.09 60.36 20.95L60.56 21.04C60.22 20.52 59.57 19.75 59.19 19.2C59 19.1 58.78 18.78 58.81 19.05C57.99 17.11 56.3 16 55.78 14.18C55.88 14.37 56.1 14.59 56.02 14.44L55.21 13.12C55.12 13.3 55.21 13.34 55.26 13.69C55.09 13.56 54.79 13.21 54.64 12.86C55.03 13.45 54.87 12.74 54.83 12.43C54.81 12.5 54.71 12.43 54.68 12.47C54.6 11.61 54.32 12.48 54.04 11.39L54.14 11.41C53.95 11.04 53.71 10.72 53.57 10.29C53.68 10.05 53.81 10.67 53.96 10.64C53.9 10.49 53.82 10.36 53.74 10.22C53.65 10.07 53.55 9.91995 53.46 9.76995L53.4 9.66995L53.27 9.64995C53.18 9.63995 53.1 9.61995 53.03 9.60995C52.88 9.57995 52.74 9.51995 52.6 9.43995C52.74 9.43995 52.93 9.48995 53.11 9.51995C53.29 9.55995 53.52 9.54995 53.56 9.73995C53.58 9.47995 53.4 9.45995 53.3 9.39995C53.19 9.33995 53.09 9.29995 53 9.26995C52.91 9.23995 52.82 9.20995 52.71 9.17995C52.62 9.15995 52.53 9.13995 52.4 9.11995H52.45C52.26 9.08995 52.07 9.03995 51.88 9.00995L51.3 8.94995L51.6 9.00995C51.17 9.22995 50.77 9.29995 50.32 9.36995C49.88 9.44995 49.39 9.56995 48.96 9.92995C49.84 9.27995 49.06 9.69995 49.05 9.46995C48.76 9.51995 48.33 9.65995 48.42 9.54995C48.02 9.93995 47.53 9.86995 47.06 10.55C46.98 10.51 46.62 10.94 46.6 10.72C46.11 11.25 46.81 10.69 46.82 10.8C46.49 11.24 46.03 11.66 45.59 12.21C45.39 12.49 45.16 12.81 45.04 13.14C44.96 13.33 44.94 13.49 44.94 13.81C44.92 13.99 44.94 14.17 44.93 14.35C44.93 14.43 44.93 14.56 44.93 14.59L44.87 14.54C44.79 14.49 44.75 14.4 44.59 14.32C44.52 14.27 44.44 14.22 44.34 14.14C44.3 14.11 44.25 14.08 44.19 14.06C44.09 13.99 43.99 13.92 43.89 13.86C43.79 13.67 44.28 13.86 44.27 13.86C44.16 13.76 44.06 13.67 43.96 13.59C43.86 13.51 43.69 13.46 43.56 13.41C43.28 13.28 42.98 13.3 42.66 13.28C42.79 13.24 42.66 13.16 42.47 13.1C41.94 13.13 42.13 13.33 41.47 13.34C41.57 13.25 41.69 13.1 41.94 12.99C41.32 13.14 40.77 13.4 40.24 13.71C40.04 13.67 40.51 13.39 40.7 13.26C40.03 13.52 39.09 14.11 39.03 14.41C39.16 14.35 39.29 14.29 39.43 14.23C39.23 14.37 39.23 14.15 39.38 14.03C39.83 13.61 40.17 13.7 40.23 13.76C40.1 13.83 39.98 13.9 39.86 13.98C40 14.01 40.16 13.98 40.35 13.93C40.53 13.87 40.73 13.76 40.95 13.67C41.17 13.57 41.4 13.45 41.64 13.39C41.76 13.35 41.88 13.32 42 13.29C42.12 13.28 42.24 13.27 42.35 13.27C42.25 13.35 42.16 13.43 42.08 13.51C39.95 13.68 37.55 15.47 37 17.05C36.98 17.08 36.96 17.12 36.94 17.15C36.86 17.06 36.79 16.95 36.7 16.9C36.75 16.86 36.82 16.78 36.87 16.63C36.84 16.52 36.8 16.4 36.78 16.29C36.7 16.47 36.65 16.67 36.58 16.85C36.58 16.86 36.58 16.87 36.58 16.87C36.42 16.86 36.19 16.99 35.78 17.46L35.49 18.34L35.21 18.51L35.59 17.85C35.24 18.14 35.22 18.44 35.14 18.76C35.04 18.78 34.91 18.85 34.78 18.98L34.52 19.88C34.35 19.89 34.54 19.41 34.14 19.86C34.02 20.28 34.6 19.7 34.28 20.32C33.91 20.59 33.89 20.41 33.69 20.9C33.58 20.9 33.61 20.79 33.69 20.6C33.51 21.03 32.98 21.56 32.97 21.86C32.54 22.1 32.04 23.09 31.82 22.84C31.78 22.99 31.47 23.6 31.19 23.92C31.43 23.1 30.13 25.08 29.96 24.65C29.8 25.28 28.65 26.24 28.05 27.07C28.07 27.01 28.11 26.9 28.19 26.85C27.76 27.23 27.58 27.27 27.27 27.49C27.41 27.74 26.82 28.4 26.59 28.86C25.9 29.15 26.67 28.33 26.34 28.2999C26.52 28.4399 25.61 29.3 25.91 29.27C25.41 29.52 25.52 29.53 25.17 29.56C25.34 29.87 24.85 29.95 24.67 30.41C23.99 30.83 24.3 30.32 23.76 30.9799C23.39 31.1899 23.86 30.57 23.86 30.57C23.23 31.17 23.74 31.04 23.71 31.27C23.01 32.04 23.23 31.47 22.88 31.62C22.46 32.13 22.27 32.65 21.92 32.9799C21.86 32.9799 21.79 33.03 21.83 32.91C21.48 33.53 20.4 34.38 20.02 35.13C19.96 35.16 19.93 35.16 19.9 35.16C20.08 35.16 20.19 35.23 20.24 35.31C19.97 35.59 19.85 35.9399 19.64 35.9399C19.8 35.7599 19.77 35.7 19.81 35.59C19.73 35.7 19.66 35.8299 19.59 35.9399C19.16 36.0499 19.9 35.4599 19.78 35.3499C19.29 35.9899 18.82 36.83 18.36 37.24C18.09 37.18 19.26 36.11 18.55 36.59L19.25 35.9399C18.49 36.2299 19.66 35.52 18.91 35.75C18.03 36.66 18.03 36.8599 17.19 37.7999C17.11 38.1099 17.4 37.85 17.32 38.16C16.39 39.69 15.95 38.8799 15.44 40.16C15.37 40.53 15.54 40.81 14.87 41.49L14.83 41.08C14.13 42.1 14.79 41.88 13.97 42.8899C13.99 42.6399 14.38 42.0099 14.26 42.16C13.65 42.77 14.09 42.75 13.77 43.2999H13.49C13.17 43.8699 12.96 44.5499 12.69 45.2099C12.57 45.54 12.42 45.87 12.32 46.22C12.22 46.57 12.11 46.92 12.01 47.27C11.97 47.17 11.98 46.91 11.8 47.2099C11.21 48.95 10.71 51.0399 10.5 52.8499L10.69 53.54C10.69 53.7 10.59 53.84 10.55 53.66C10.48 54.3699 10.68 53.6999 10.77 54.0299C10.8 54.43 10.68 54.56 10.6 54.31C10.7 54.93 10.88 55.7999 11.06 56.66C11.17 57.09 11.25 57.5299 11.34 57.93C11.44 58.33 11.51 58.7099 11.55 59.04L11.42 58.81C11.51 59.31 11.74 59.5499 11.91 59.7799C12.09 60.0099 12.24 60.2299 12.36 60.6899L12.25 60.54C12.64 61.57 13.25 62.57 13.89 63.4599C14.22 63.8999 14.57 64.2999 14.88 64.6999C15.23 65.0599 15.53 65.4399 15.82 65.7699C16.05 65.7499 16.45 66.13 16.89 66.44C17.1 66.58 17.37 66.74 17.49 66.79C17.56 66.7999 17.65 66.7899 17.75 66.7399C17.81 66.7899 17.75 66.8999 17.75 66.9499C17.75 67.0099 17.72 67.0299 17.73 67.1399C17.73 67.32 17.73 67.4499 17.73 67.5999C17.73 67.8999 17.78 68.25 17.99 69.1399C18.16 69.5999 18.48 69.7299 18.77 70.2399L18.58 70.3399L19.14 70.9599C19.12 71.1299 19.14 71.29 19.14 71.4599L19.48 71.91C19.37 71.71 19.31 71.4499 19.38 71.4499C19.88 72.1499 20.5 73.26 20.45 73.35C20.95 73.84 21.5 74.27 22.07 74.66C22.01 74.69 21.89 74.62 21.75 74.54C22.2 74.87 21.58 74.73 22.39 75.15C22.31 75.03 22.53 75.09 22.57 75.07C22.73 75.28 23.07 75.52 23.44 75.79C23.83 76.03 24.27 76.27 24.67 76.42L24.46 76.48C25.83 77.21 27.5 77.63 29.18 77.91C28.59 77.74 28.78 77.51 29.27 77.57L29.43 77.83C29.76 77.74 28.94 77.66 29.61 77.6C30.22 77.71 29.99 77.91 29.62 77.94C29.88 77.96 30.14 77.9399 30.39 77.95C30.43 78.02 30.24 78.04 30.19 78.12C30.51 78.03 31.51 78.46 31.98 78.23L32.02 78.3C33.72 78.33 34.48 78.16 35.84 77.97C35.84 77.77 36.38 77.74 36.74 77.5C37.73 77.38 38.85 77.24 39.99 76.85C40.76 76.47 40.17 76.61 40.48 76.37C40.6 76.53 41.71 76.05 41.18 76.41C41.85 76.12 42.27 75.91 42.71 75.66C42.94 75.54 43.17 75.4 43.43 75.22C43.7 75.05 44.01 74.85 44.37 74.56C44.16 74.6 43.96 74.7 44.02 74.58C44.28 74.38 44.7 74.24 44.7 74.34L44.64 74.4C44.95 74.16 45.26 73.89 45.61 73.66C45.83 73.51 45.84 73.5 45.95 73.44C46.03 73.39 46.12 73.35 46.19 73.31C46.3 73.46 46.4 73.59 46.47 73.7C46.71 73.9399 46.97 74.19 47.22 74.41C47.74 74.84 48.26 75.2 48.76 75.36L48.67 75.33C49.18 75.59 49.72 75.79 50.24 76.01C50.93 76.38 49.76 75.92 50.23 76.28C52 76.82 52.88 77.5099 54.4 77.74C54.89 78.15 55.92 78.4 57.01 78.53C58.1 78.68 59.24 78.6899 60.04 78.88L59.95 78.75C60.36 78.65 60.45 78.82 60.75 78.85C60.7 78.75 60.3 78.74 60.56 78.67C62.29 78.58 64.08 78.4 65.86 77.98C67.63 77.54 69.38 76.84 70.92 75.81C71.48 75.4399 71.51 75.16 71.62 74.93C71.72 74.69 71.86 74.45 72.56 73.98L72.37 74.47C73.27 73.46 74.15 72.4 74.87 71.25C75.06 70.97 75.23 70.6699 75.39 70.3799C75.55 70.0799 75.72 69.79 75.85 69.48C75.98 69.17 76.1 68.8699 76.23 68.5599C76.29 68.4099 76.33 68.2499 76.38 68.0899L76.41 67.97C76.41 67.97 76.41 67.9399 76.41 67.93V67.8499C76.44 67.9399 76.52 67.92 76.48 68.05C76.53 67.96 76.53 68.0099 76.55 67.9899C76.57 67.9899 76.58 67.9699 76.58 67.9599C76.59 67.93 76.59 67.9 76.63 67.9L76.67 67.87H76.68C76.68 67.87 76.7 67.8499 76.65 67.8499C76.7 67.84 76.74 67.8299 76.78 67.82C76.94 67.7799 77.04 67.7399 77.04 67.6999C77.47 67.6899 77.15 67.82 77.43 67.87C78.05 67.89 78.85 67.37 79.18 67.4C79.22 67.4 79.14 67.46 79.05 67.51C79.25 67.41 79.59 67.3 79.86 67.16C80.17 67 80.39 66.8699 80.19 66.86C81.15 66.4599 81.78 65.7399 82.43 65.2699C82.68 64.7899 83.66 64.05 83.51 63.72C83.62 63.85 83.92 63.52 84.21 63.07C84.49 62.61 84.7 62.02 84.76 61.7C84.77 61.94 85.05 61.2099 85.08 61.5C85.13 61.32 85.21 61.19 85.27 60.88C85.29 60.6399 85.28 60.5599 85.27 60.4199C85.26 60.1899 85.22 60.0499 85.13 60.0999C85.69 58.8599 84.99 57.54 85.49 56.83L85.48 56.86ZM11.84 48.43C11.82 48.33 11.65 48.7 11.55 48.95C11.6 48.74 11.67 48.49 11.77 48.22C11.86 48.18 11.9 48.26 11.84 48.43ZM12.09 47.29C12.14 47.12 12.19 46.97 12.22 46.88C12.19 46.97 12.16 47.08 12.09 47.29ZM42.97 13.59C42.71 13.54 42.44 13.53 42.17 13.54C42.39 13.47 42.61 13.39 42.85 13.38C42.96 13.44 43.02 13.53 42.97 13.59ZM45.25 14.23C45.23 14.12 45.22 13.95 45.25 13.68C45.32 13.66 45.39 13.62 45.47 13.58C45.39 13.79 45.32 14.01 45.26 14.23H45.25ZM56.58 16.41C56.48 16.25 56.39 16.09 56.29 15.93C56.37 15.93 56.49 16.02 56.71 16.3C56.68 16.34 56.64 16.39 56.58 16.41Z" fill="#FFE0BD"/>
<path d="M18.56 70.37L18.6 70.34L18.49 70.22L18.56 70.37Z" fill="#F3EADE"/>
<path d="M52.39 9.16002C52.19 9.12002 51.99 9.04002 51.78 9.02002C52.05 9.06002 52.24 9.13002 52.39 9.16002Z" fill="#F3EADE"/>
<path d="M49.07 9.41992C49.07 9.41992 49.04 9.48992 49.04 9.51992L49.07 9.41992Z" fill="#F3EADE"/>
<path d="M81.89 44.96C81.89 44.96 81.93 45.03 81.96 45.06C82.13 45.29 82.03 45.13 81.89 44.96Z" fill="#F3EADE"/>
<path d="M72.33 33.5599C72.46 33.6499 72.6 33.7299 72.73 33.8399C72.56 33.6399 72.42 33.4899 72.33 33.5599Z" fill="#F3EADE"/>
<path d="M85.06 61.53C85.06 61.53 85.03 61.6 85.02 61.63L85.06 61.53Z" fill="#F3EADE"/>
<path d="M73.2 34.3398C73.05 34.1198 72.89 33.9698 72.73 33.8398C72.87 34.0098 73.03 34.2098 73.2 34.3398Z" fill="#F3EADE"/>
<path d="M39.17 13.8901C39.17 13.8901 39.17 13.9101 39.17 13.9301L39.32 13.8201L39.17 13.8901Z" fill="#F3EADE"/>
<path d="M39.17 13.9199L39.03 14.0399C39.1 13.9999 39.16 13.9499 39.17 13.9199Z" fill="#F3EADE"/>
<path d="M38.74 14.29L39.03 14.04C38.92 14.11 38.78 14.19 38.74 14.29Z" fill="#F3EADE"/>
<path d="M44.26 13.5C44.41 13.63 44.47 13.79 44.53 13.77C44.41 13.62 44.33 13.34 43.92 13.21L43.85 13.24C43.9 13.24 44.05 13.28 44.09 13.32C44.14 13.37 44.2 13.43 44.27 13.5H44.26Z" fill="#F3EADE"/>
<path d="M67.74 28.49L67.48 28.46L67.96 28.87L67.74 28.49Z" fill="#F3EADE"/>
<path d="M40.69 15.79C40.23 17.25 39.83 18.72 39.14 20.09C38.45 21.46 37.74 22.69 36.9 23.9C35.14 26.43 33.04 28.68 30.94 30.93C28.92 33.08 26.8 35.16 24.9 37.43C23.95 38.56 23.04 39.79 22.38 41.11C22.04 41.78 21.77 42.48 21.48 43.17C21.19 43.86 20.88 44.47 20.79 45.21C20.69 46.01 21.64 45.85 22.08 45.61C22.76 45.24 23.45 44.5 23.55 43.7C23.63 43.08 24.05 42.44 24.28 41.87C24.57 41.17 24.89 40.5 25.31 39.87C26.01 38.8 26.85 37.83 27.71 36.89C29.69 34.76 31.72 32.68 33.69 30.55C35.79 28.27 37.83 25.91 39.51 23.3C40.33 22.03 41.08 20.71 41.73 19.34C42.38 17.97 42.83 16.42 43.31 14.93C43.52 14.25 43.11 13.86 42.44 14.06C41.7 14.28 40.93 15.07 40.69 15.81V15.79Z" fill="#E6C6A8"/>
<path d="M19.08 51.0599C19.05 52.7999 19.14 54.5399 19.35 56.2699C19.38 56.5399 19.74 56.6299 19.95 56.6199C20.3 56.5999 20.71 56.3699 20.97 56.1699C21.56 55.7099 22.15 55.0099 22.06 54.2199C22.01 53.8099 21.97 53.3999 21.93 52.9899L21.95 53.2599C21.85 52.0299 21.81 50.7899 21.83 49.5499C21.83 49.2799 21.75 49.0399 21.48 48.9499C21.21 48.8599 20.78 49.0099 20.54 49.1499C20.15 49.3699 19.79 49.6699 19.53 50.0399C19.32 50.3299 19.08 50.6899 19.08 51.0599Z" fill="#E6C6A8"/>
<path d="M33.15 73.9699C33.07 73.9499 32.98 73.9299 32.91 73.9099C32.7 73.8499 32.49 73.7899 32.28 73.7399C31.52 73.5599 30.94 73.3499 30.3 72.8999C29.04 72.0199 27.87 71.0899 26.83 69.9599C25.8 68.8399 24.86 67.6199 24.14 66.2699C23.37 64.8399 22.74 63.3399 21.95 61.9299C21.59 61.2899 20.79 61.6799 20.33 62.0299C19.94 62.3199 18.9 63.3699 19.24 63.9799C20.2 65.6799 20.93 67.4999 21.92 69.1799C22.85 70.7499 24.03 72.1799 25.36 73.4199C26.03 74.0499 26.75 74.6099 27.51 75.1299C28.24 75.6399 28.93 76.1199 29.8 76.3299C30.41 76.4799 31.07 76.7299 31.7 76.7499C32.86 76.7799 34.12 75.5799 34.22 74.4399C34.28 73.7599 33.62 73.7699 33.15 73.9499V73.9699ZM33.29 74.0199C33.37 74.0499 33.39 73.9999 33.29 74.0199V74.0199Z" fill="#E6C6A8"/>
<path d="M48.64 13.0299C48.86 15.0799 49.28 17.0599 50.11 18.9599C50.5 19.8499 50.91 20.7499 51.34 21.6299C51.54 22.0499 51.78 22.4499 52.03 22.8399C52.25 23.1799 52.54 23.4799 52.67 23.8699C53.08 25.0999 55.75 22.9299 55.38 21.8199C55.11 21.0099 54.43 20.3499 54.05 19.5799C53.62 18.6999 53.21 17.8099 52.82 16.9099C51.99 15.0199 51.57 13.0299 51.35 10.9799C51.32 10.7099 50.96 10.6199 50.75 10.6299C50.4 10.6499 49.99 10.8799 49.73 11.0799C49.14 11.5499 48.56 12.2299 48.64 13.0299Z" fill="#E6C6A8"/>
<path d="M55.05 28.5898C56.36 30.5798 57.42 32.7998 58.93 34.6398C59.66 35.5298 60.25 36.5098 60.98 37.3998C61.82 38.4098 62.72 39.3798 63.56 40.3998C65.17 42.3798 66.69 44.3798 67.82 46.6798C68.95 48.9798 69.81 51.3798 70.14 53.9898C70.24 54.7598 71.48 54.0998 71.76 53.8898C72.35 53.4498 72.95 52.7198 72.85 51.9398C72.19 46.6898 69.46 42.2598 66.23 38.1898C65.41 37.1498 64.51 36.1798 63.65 35.1698C62.87 34.2598 62.24 33.2198 61.49 32.2898C59.95 30.3998 58.86 28.1498 57.52 26.1198C56.92 25.2198 54.34 27.5098 55.05 28.5898Z" fill="#E6C6A8"/>
<path d="M75.28 63.9801C75.2 62.1101 74.88 60.2601 74.65 58.4101C74.62 58.1401 74.26 58.0501 74.05 58.0601C73.7 58.0801 73.29 58.3101 73.03 58.5101C72.45 58.9701 71.84 59.6701 71.94 60.4601C72.15 62.1301 72.45 63.8001 72.52 65.4901C72.56 66.3301 72.54 67.1701 72.43 67.9901C72.39 68.3201 72.34 68.6601 72.25 68.9901C72.25 68.9901 72.09 69.4001 72.17 69.2401C72.05 69.5001 71.91 69.7301 71.82 70.0001C71.61 70.6701 72.02 71.0901 72.69 70.8701C73.43 70.6301 74.2 69.8801 74.43 69.1301C74.44 69.1101 74.46 69.0901 74.47 69.0501C74.56 68.8901 74.63 68.7301 74.7 68.5701C74.78 68.3701 74.85 68.1701 74.9 67.9601C75.01 67.5401 75.09 67.1001 75.15 66.6701C75.28 65.7801 75.3 64.8801 75.26 63.9801H75.28Z" fill="#E6C6A8"/>
<path d="M37.84 56.1499C37.34 56.2599 36.79 56.5199 36.35 56.8299C36.18 56.8799 36 56.9199 35.83 56.9799C34.81 57.3199 33.83 57.6899 32.89 58.2299C32.47 58.4699 31.95 58.8699 31.74 59.3199C31.59 59.6299 31.55 60.0599 31.87 60.2999C32.24 60.5699 32.77 60.6099 33.21 60.5499C33.85 60.4699 34.46 60.2599 35.02 59.9399C35.03 59.9399 35.04 59.9299 35.05 59.9199C35.31 59.7999 35.58 59.6899 35.85 59.5999C36.15 59.5099 36.45 59.4099 36.75 59.3299C37.55 59.1199 38.31 58.8599 39.04 58.4599C39.44 58.2399 39.8 57.9299 40.06 57.5599C40.23 57.3199 40.41 56.9599 40.27 56.6599C39.85 55.7899 38.6 55.9799 37.84 56.1499ZM36.93 58.9599C37.01 58.9599 37.08 58.9399 37.15 58.9299C37.1 58.9299 37.05 58.9499 37 58.9599C36.97 58.9599 36.95 58.9599 36.92 58.9599H36.93Z" fill="#6F6A5F"/>
<path d="M60.98 54.6499C61.03 54.4899 61.03 54.3199 60.96 54.0999C60.78 53.5399 59.96 53.2799 59.48 53.1799C58.75 53.0199 57.89 52.9699 57.18 53.2299C56.77 53.3799 55.88 53.6699 55.94 54.2899C56 54.8599 56.25 55.3999 56.43 55.9399C56.62 56.5099 56.81 57.0799 57.01 57.6499C57.39 58.7699 57.77 59.8899 58.14 61.0199C58.27 61.3999 58.96 61.6699 59.27 61.7699C59.85 61.9499 60.58 62.0099 61.18 61.9199C61.95 61.7999 63.27 61.4399 62.93 60.4099C62.58 59.3699 62.23 58.3399 61.88 57.2999C61.58 56.4199 61.26 55.5399 60.97 54.6599L60.98 54.6499Z" fill="#6F6A5F"/>
<path d="M58.51 63.85C57.84 62.6 56.33 62.01 55.03 61.68C53.41 61.27 51.69 61.33 50.12 61.92C48.75 62.44 47.38 63.17 46.47 64.35C45.66 65.4 45.13 66.94 46.09 68.06C45.88 68.08 45.66 68.1 45.45 68.11C43.1 68.24 41 67.44 38.84 66.64C38.02 66.33 36.3 66.09 35.68 66.93C35.02 67.81 36.5 68.53 37.1 68.75C40.05 69.85 43.02 70.76 46.21 70.73C49.05 70.7 52.11 70.25 54.78 69.21C56.76 68.44 59.88 66.39 58.51 63.85ZM53.88 64.73C53.64 65.68 52.68 66.33 51.85 66.74C51.4 66.96 50.91 67.15 50.4 67.31C50.34 66.66 51.17 65.69 51.51 65.37C52.18 64.74 53.03 64.36 53.9 64.09C53.9 64.28 53.91 64.59 53.87 64.73H53.88Z" fill="#B77F76"/>
</g>
</g>
<defs>
<clipPath id="clip0_1540_6342">
<rect width="96" height="96" fill="white"/>
</clipPath>
</defs>
</svg>
