<svg width="375" height="318" viewBox="0 0 375 318" fill="none" xmlns="http://www.w3.org/2000/svg">
<path d="M83.0363 150.8L98.5314 149.784C98.7789 160.845 99.2575 167.792 99.9918 175.142C100.524 180.47 101.522 181.824 106.898 181.283C111.477 180.825 114.806 180.223 121.019 178.902L122.888 192.221C116.593 193.818 108.775 195.246 102.76 195.853C90.1939 197.111 85.3919 193.232 84.1337 180.66C83.2508 171.766 82.8754 162.657 83.0363 150.8ZM134.839 144.427L136.485 160.891L140.215 160.519L141.547 173.838L137.818 174.209L139.786 193.867L125.409 195.308L120.462 145.868L134.839 144.427Z" fill="#B59779"/>
<path d="M149.129 122L166.227 123.52L166.079 125.16C170.754 124.058 174.409 123.919 177.504 124.194C190.134 125.316 194.503 132.769 193.269 146.521C192.758 152.22 191.689 158.991 188.595 168.355L190.633 168.536L189.998 183.003L164.94 180.776C149.022 179.362 144.508 173.544 145.857 158.482L149.129 122ZM168.468 166.568L171.756 166.859C174.442 159.837 175.787 152.955 176.262 147.651C176.745 142.281 175.94 138.645 170.353 138.147C168.645 137.995 167.106 138.123 164.87 138.649L162.955 160.002C162.534 164.719 163.533 166.128 168.468 166.568ZM215.686 126.462L213.871 146.702L218.476 147.113L217.007 163.486L212.402 163.075L210.236 187.243L192.477 185.665L197.924 124.884L215.682 126.462H215.686Z" fill="#542B16"/>
<path d="M220.128 149.848L292 156.243L291.028 167.088L219.156 160.693L220.128 149.848ZM226.652 127.437L245.8 129.606C244.91 132.839 244.703 133.684 244.55 135.391C244.31 138.084 245.378 138.776 250.652 139.247C261.862 140.244 272.041 140.884 289.77 141.799L289.427 153.031C275.781 152.545 262.341 151.947 247.177 150.598C228.583 148.945 223.285 146.483 224.153 136.822C224.476 133.206 225.262 130.361 226.656 127.437H226.652ZM286.668 183.858L239.26 179.64L239.09 181.545L287.16 185.821L286.424 194.039L219.562 188.089L220.997 172.053L268.405 176.271L268.575 174.366L220.836 170.119L221.514 162.561L288.046 168.482L286.668 183.862V183.858Z" fill="#542B16"/>
<path d="M112.489 232.092C112.129 228.517 110.181 226.88 106.492 227.248C103.496 227.545 100.052 228.215 92.0696 229.98L89.127 216.802C97.0968 214.387 104.134 212.879 109.804 212.312C121.093 211.184 126.278 216.004 127.55 228.703C129.618 249.301 119.568 259.52 94.7427 262L91.8002 248.822C110.317 244.87 113.471 241.86 112.493 232.096L112.489 232.092ZM143.386 208.311L148.355 257.829L133.108 259.35L128.139 209.832L143.386 208.311Z" fill="#B59779"/>
<path d="M162.862 222.523C163.502 224.558 165.596 226.02 168.762 225.706C172.248 225.359 174.204 223.283 173.922 220.455C173.639 217.627 171.317 216.087 167.827 216.433C164.503 216.764 162.443 218.906 162.754 221.999L148.433 222.345C147.499 213.073 155.006 206.942 166.751 205.774C175.708 204.882 182.572 207.429 185.974 212.689L189.942 212.292L189.065 203.606L203.278 202.194L206.386 233.051L192.173 234.463L191.122 224.018L187.848 224.344C186.203 231.127 179.622 235.714 169.863 236.684C158.064 237.856 149.476 232.737 148.591 223.943L162.858 222.523H162.862ZM206.523 234.38L208.264 251.646L192.979 253.165L192.231 245.758L156.298 249.334L155.305 239.475L206.523 234.38Z" fill="#B59779"/>
<path d="M208.264 213.995L237.787 211.08L238.903 222.073L237.027 222.257C237.787 224.423 238.301 226.831 238.567 229.418C239.617 239.777 236.346 248.056 226.701 249.006C217.324 249.931 212.443 242.885 211.215 232.919L223.268 231.728C223.65 234.946 224.331 237.922 225.563 237.799C226.904 237.668 226.95 234.942 226.501 230.499C226.049 226.061 225.455 223.395 224.115 223.526C222.828 223.653 222.766 226.221 223.214 231.195L211.053 231.33C210.87 229.001 210.92 226.806 211.202 224.804L209.38 224.984L208.264 213.991V213.995ZM208.799 202.199L234.89 199.623L235.882 209.401L209.791 211.976L208.799 202.199ZM263.877 196.757L268.853 245.804L256.958 246.979L254.87 226.421L252.675 226.638L254.733 246.934L242.946 248.097L237.994 199.312L249.782 198.149L251.492 215.01L253.687 214.793L251.977 197.932L263.873 196.757H263.877Z" fill="#B59779"/>
<g clip-path="url(#clip0_1484_2930)">
<path d="M238.873 65.2719C239.646 66.1523 241.036 66.172 241.69 65.315C252.406 51.3084 270.902 43.9839 290.211 53.8144C293.129 54.9338 294.971 52.495 292.884 50.2827C290.152 47.5379 286.009 47.631 282.535 46.7073C312.056 42.3315 259.361 36.5048 239.016 62.1466C238.88 62.3165 238.784 62.513 238.731 62.723L238.469 63.7291C238.333 64.2535 238.484 64.83 238.871 65.2715L238.873 65.2719Z" fill="#80A187"/>
<path d="M279.587 51.2874C279.497 51.2568 279.408 51.2267 279.317 51.1962C279.044 51.1019 278.735 51.0566 278.415 51.054C278.048 50.9625 277.685 50.8537 277.312 50.7811C276.546 50.6341 275.756 50.5657 274.983 50.4736C273.371 50.2778 271.751 50.1391 270.128 50.1261C267.261 50.1063 264.377 50.3809 261.558 50.8999C255.725 51.9733 250.13 54.0346 244.835 56.6814C241.684 58.2568 238.646 60.062 235.808 62.1491C235.154 62.6292 235.263 63.2645 236.013 63.5413C236.838 63.8455 238.09 63.653 238.799 63.1329C244.41 59.0103 250.905 55.8076 257.601 53.8832C260.717 52.9868 263.938 52.3816 267.178 52.2257C268.902 52.1424 270.616 52.1769 272.332 52.361C273.189 52.4528 274.044 52.5601 274.901 52.6766C275.757 52.7909 276.568 53.101 277.43 53.1872C278.251 53.2712 279.307 53.157 279.933 52.5604C280.454 52.0636 280.278 51.5245 279.589 51.29L279.587 51.2874Z" fill="#95CC92"/>
<path d="M234.809 60.4708C234.953 60.4426 234.882 60.5744 234.883 60.6312C235.151 60.286 235.507 59.8669 235.135 59.7857C234.875 60.2116 234.733 60.1926 234.525 60.7018C234.246 60.9316 233.978 61.0419 233.956 60.9221C233.928 60.9928 233.805 61.0706 233.692 61.1776C233.584 61.2903 233.478 61.4212 233.473 61.5511C233.941 61.3119 234.376 60.957 234.809 60.4708Z" fill="#EDDECE"/>
<path d="M239.453 58.6321C239.318 58.6439 239.206 58.6698 239.104 58.7024C239.215 58.692 239.321 58.6829 239.431 58.6747C239.438 58.6605 239.443 58.648 239.455 58.6347L239.453 58.6321Z" fill="#EDDECE"/>
<path d="M226.397 67.1669C226.4 67.1834 226.412 67.1883 226.419 67.201C226.441 67.1605 226.443 67.1406 226.397 67.1669Z" fill="#EDDECE"/>
<path d="M239.665 58.6793L240.003 58.7241C239.851 58.6941 239.746 58.6807 239.665 58.6793Z" fill="#EDDECE"/>
<path d="M209.733 75.3304C209.566 75.2431 210.362 74.737 209.374 75.304C209.524 75.2794 209.641 75.3064 209.733 75.3304Z" fill="#EDDECE"/>
<path d="M239.449 58.7577C239.491 58.6989 239.553 58.6736 239.663 58.6788C239.581 58.6683 239.503 58.6631 239.429 58.6721C239.408 58.7061 239.402 58.7364 239.45 58.7556L239.449 58.7577Z" fill="#EDDECE"/>
<path d="M280.196 114.343C279.97 114.629 279.709 114.883 279.459 115.144C279.676 114.93 279.967 114.657 280.196 114.343Z" fill="#EDDECE"/>
<path d="M206.913 115.154C206.966 115.231 207.025 115.295 207.083 115.33L206.913 115.154Z" fill="#EDDECE"/>
<path d="M276.958 117.185C276.746 117.214 276.556 117.291 276.349 117.354C276.316 117.39 276.277 117.424 276.262 117.462C276.502 117.386 276.727 117.283 276.958 117.185Z" fill="#EDDECE"/>
<path d="M282.187 109.471C282.487 107.231 282.435 105.137 282.249 103.146C282.674 103.195 282.315 105.364 282.704 105.284C282.612 104.314 282.547 103.557 282.357 102.816C282.278 102.445 282.207 102.077 282.146 101.683C282.081 101.289 281.976 100.878 281.915 100.409C281.871 99.9186 282.121 100.652 282.213 100.805C281.762 98.9401 281.309 97.1947 280.477 95.71C280.508 95.7008 280.623 95.8496 280.716 95.998C280.57 95.6981 280.437 95.2722 280.307 95.3734L280.486 95.6486C280.491 96.2167 279.479 94.6687 279.345 94.6788C280.032 94.9558 278.672 93.1804 279.614 93.681C279.48 93.5035 279.281 93.303 279.209 93.3984C279.08 93.1021 279.085 92.9791 279.354 93.2055C278.701 92.2062 278.748 92.6747 278.189 91.7653C278.259 91.7259 278.4 91.8914 278.537 91.9364C278.111 91.5611 277.713 91.1763 277.238 90.4157C277.309 90.4308 277.299 90.3111 277.453 90.5314C276.543 89.2741 275.584 88.6524 274.629 87.2702C275.211 87.4323 274.349 86.7589 274.52 86.4971C274.306 86.28 274.084 86.0745 273.861 85.8668L273.991 86.2333C273.47 85.6368 272.854 85.2484 272.468 84.6852L272.953 85.039L271.915 83.9826L272.398 84.6748C271.746 84.1907 272.177 84.9915 271.531 84.163C271.696 84.2997 271.004 83.579 270.846 83.1637L270.849 83.1641C270.513 82.946 270.165 82.723 269.821 82.2499C269.786 82.0753 270.141 82.1125 270.121 81.9974C269.676 81.8894 268.797 80.7131 268.27 80.5468C268.426 80.6206 268.544 80.5193 268.53 80.4576L268.161 80.3657C267.956 80.0577 267.941 79.9981 268.072 79.9559C267.342 79.1411 268.04 80.4665 267.258 79.4192C267.339 79.4817 267.329 79.4252 267.497 79.5581C266.657 78.5574 265.66 77.8281 264.921 76.8828C264.9 76.4219 265.687 77.5966 265.597 77.1279C264.383 75.9099 262.909 74.7563 261.888 73.437L262.066 73.694C261.588 73.7957 261.416 72.6205 260.743 72.0889C260.896 72.2299 261.096 72.1504 261.024 72.1374C260.693 71.6762 260.303 71.2455 259.877 70.7507C259.444 70.261 258.938 69.731 258.407 69.0512L258.617 69.1659C258.467 68.863 258.229 68.4939 257.983 68.1209C257.752 67.7398 257.518 67.3534 257.351 67.0355C257.147 66.9108 256.944 66.5491 256.94 66.8442C256.767 66.2991 256.588 65.78 256.332 65.3167C256.073 64.8529 255.802 64.4089 255.554 63.9587C255.011 63.082 254.562 62.1756 254.457 61.1707C254.542 61.3897 254.746 61.6591 254.68 61.4845C254.431 60.9845 254.263 60.4564 254.067 59.9336C253.93 60.1122 254.023 60.1748 253.987 60.5558C253.822 60.3852 253.605 59.9505 253.483 59.5473C253.818 60.2443 253.766 59.4606 253.771 59.1253C253.733 59.1915 253.641 59.0999 253.592 59.1413C253.723 58.2068 253.199 59.085 253.161 57.8547L253.269 57.898C253.201 57.6961 253.098 57.4258 253.019 57.2259C252.99 57.1792 252.997 57.1039 252.941 57.0828L252.764 57.0205C252.649 56.9779 252.537 56.9293 252.425 56.8716C252.332 56.5966 252.959 57.0055 253.145 56.8981C252.297 56.51 251.604 56.6654 251.027 56.3621C251.337 56.3376 251.747 56.4722 252.055 56.5084C251.457 56.0492 251.339 56.1054 250.82 55.9748L250.871 55.9901C250.468 55.8774 250.05 55.8338 249.631 55.7897C249.738 55.8036 249.843 55.8304 249.95 55.8599C249.716 55.9727 249.493 56.0858 249.264 56.132C249.034 56.1734 248.806 56.2175 248.564 56.2609C248.323 56.2979 248.069 56.3343 247.818 56.4322C247.633 56.4945 247.445 56.572 247.265 56.6873C247.906 56.2001 247.182 56.5454 247.181 56.3149C246.868 56.3657 246.383 56.4773 246.486 56.3637C246.04 56.7839 245.502 56.6695 244.968 57.3829C244.89 57.339 244.474 57.7769 244.451 57.5418C243.888 58.0884 244.683 57.5255 244.689 57.6465C244.499 57.8817 244.268 58.0947 244.034 58.3384C243.778 58.5642 243.532 58.8282 243.273 59.1119C243.21 59.1844 243.137 59.2503 243.085 59.3341L242.951 59.5202C242.887 59.6104 242.831 59.6708 242.791 59.7639C242.712 59.9437 242.645 60.144 242.61 60.5409C242.591 60.6521 242.571 60.7563 242.555 60.8501C242.535 60.8594 242.514 60.8028 242.495 60.7922C242.442 60.7244 242.396 60.6671 242.353 60.6107C242.28 60.5634 242.203 60.5109 242.116 60.4405C242.07 60.4014 242.024 60.3623 241.975 60.3201C241.906 60.2807 241.838 60.2391 241.764 60.1962C241.685 60.1523 241.605 60.0924 241.514 60.0324C241.394 59.9369 241.268 59.8492 241.137 59.7739C241.12 59.7091 241.204 59.7045 241.32 59.7246C241.398 59.7389 241.488 59.7626 241.56 59.7847C241.613 59.8117 241.652 59.8313 241.652 59.8313C241.152 59.3321 240.533 59.0898 239.856 59.1085C240.004 59.0608 239.873 58.9834 239.665 58.867C239.096 58.8566 239.282 59.1176 238.563 59.0392C238.676 58.93 238.828 58.7906 239.106 58.7051C238.42 58.7649 237.812 59.0444 237.194 59.2701C236.983 59.1822 237.532 58.9782 237.75 58.837C236.992 59.0194 235.903 59.5536 235.797 59.8496L236.144 59.7584C236.044 59.7529 236.092 59.5914 236.227 59.4981C236.771 59.1146 237.126 59.2624 237.175 59.3271L236.75 59.5235C237.046 59.6475 237.467 59.5157 237.958 59.3352C238.21 59.2624 238.478 59.1837 238.737 59.1102C239.006 59.0701 239.276 59.0395 239.514 59.0493C239.403 59.1342 239.303 59.2214 239.203 59.3086C236.842 59.281 234.047 60.7944 233.193 62.3884C233.167 62.4237 233.14 62.4563 233.115 62.4893C233.045 62.3728 232.987 62.2408 232.891 62.1616C232.955 62.1277 233.033 62.0472 233.113 61.9017C233.093 61.7753 233.074 61.6403 233.064 61.5093C232.956 61.6966 232.86 61.893 232.763 62.0825C232.762 62.089 232.763 62.0938 232.764 62.1007C232.589 62.0635 232.308 62.162 231.796 62.5727L231.335 63.4572L230.998 63.5732L231.52 62.9477C231.092 63.1843 231.017 63.505 230.877 63.8253C230.763 63.8213 230.617 63.8694 230.448 63.9714L229.996 64.869C229.812 64.8391 230.111 64.3694 229.592 64.7402C229.375 65.164 230.127 64.689 229.652 65.2727C229.195 65.46 229.217 65.2705 228.896 65.7377C228.772 65.7067 228.837 65.6009 228.964 65.42C228.672 65.8255 227.972 66.2258 227.892 66.5407C227.635 66.6013 227.314 66.8562 227.036 67.0591C226.749 67.2511 226.49 67.3654 226.42 67.2081C226.336 67.3575 225.832 67.8875 225.455 68.1347C225.699 67.7394 225.337 67.9539 224.912 68.2001C224.474 68.4323 223.952 68.6691 223.945 68.4238C223.763 68.7284 223.293 69.017 222.76 69.3126C222.216 69.5899 221.598 69.8585 221.144 70.1798C221.186 70.1278 221.272 70.0218 221.367 70.0013C220.794 70.2206 220.594 70.1961 220.199 70.2793C220.246 70.5967 219.384 71.0279 218.977 71.4043C218.164 71.4145 219.265 70.8895 218.934 70.713C219.066 70.933 217.814 71.4462 218.13 71.5428C217.52 71.587 217.629 71.6464 217.254 71.5192C217.304 71.9185 216.775 71.7834 216.416 72.186C215.56 72.3248 216.076 71.9284 215.258 72.3983C214.8 72.4591 215.516 72.0105 215.516 72.0105C214.633 72.3738 215.213 72.4497 215.091 72.6836C214.075 73.1996 214.521 72.6867 214.105 72.6999C213.477 73.0407 213.092 73.5418 212.604 73.7474C212.546 73.7194 212.445 73.7477 212.529 73.6412C211.935 74.1385 210.513 74.6674 209.876 75.3453C209.805 75.3526 209.765 75.3487 209.738 75.3362C209.938 75.3945 210.032 75.5162 210.059 75.6214C209.677 75.8157 209.481 76.1964 209.241 76.1138C209.464 75.976 209.443 75.8969 209.515 75.779L209.181 76.0966C208.694 76.0833 209.647 75.6784 209.542 75.5025C208.847 76.0752 208.102 76.7977 207.517 77.1365C207.218 76.9691 208.782 76.181 207.881 76.4753L208.821 75.9839C207.914 76.0666 209.378 75.6574 208.506 75.6798C207.896 76.0334 207.58 76.2736 207.279 76.5235C206.992 76.8013 206.708 77.0752 206.136 77.4913C205.988 77.8054 206.359 77.5975 206.212 77.9095C205.518 78.6114 205.187 78.8189 204.834 78.929C204.496 79.0515 204.201 79.1446 203.822 79.7983C203.679 80.1857 203.885 80.5345 203.124 81.2468L203.09 80.7767C202.268 81.8735 202.947 81.6317 202.014 82.7051C202.006 82.4051 202.527 81.7705 202.37 81.9133C201.988 82.2138 201.941 82.3801 201.942 82.5431C201.938 82.7003 201.974 82.8503 201.803 83.1572L201.497 83.1487C201.176 83.801 200.821 84.4731 200.558 85.2101C200.432 85.5809 200.304 85.9559 200.179 86.3336C200.071 86.7149 199.962 87.0985 199.854 87.482C199.804 87.3743 199.813 87.0871 199.614 87.4175C199.126 89.3852 198.598 91.6153 198.423 93.5976C198.482 93.8496 198.587 94.1001 198.667 94.3476C198.671 94.5201 198.573 94.6732 198.521 94.4858C198.456 95.256 198.669 94.5197 198.773 94.8828C198.801 95.3113 198.658 95.4638 198.578 95.1916C198.739 95.8604 198.92 96.8026 199.178 97.7361C199.277 98.2088 199.427 98.6699 199.537 99.1089C199.635 99.5521 199.743 99.9591 199.816 100.314L199.655 100.076C199.806 100.616 200.025 100.871 200.232 101.109C200.461 101.343 200.665 101.56 200.789 102.07L200.667 101.913C200.882 102.476 201.238 102.988 201.55 103.519C201.903 104.024 202.28 104.517 202.669 104.972C203.093 105.397 203.447 105.867 203.869 106.223C203.968 106.319 204.066 106.412 204.161 106.505C204.262 106.603 204.235 106.595 204.273 106.646C204.346 106.709 204.29 106.821 204.25 106.885C204.293 106.905 204.32 106.873 204.344 106.975C204.368 107.064 204.383 107.171 204.392 107.29C204.411 107.531 204.405 107.822 204.44 108.107C204.497 108.677 204.547 109.225 204.81 109.256C204.885 110.636 204.646 110.292 205.169 112.208C205.359 112.709 205.724 112.83 206.077 113.368L205.867 113.495C206.087 113.713 206.278 113.944 206.517 114.137L206.522 114.687C206.653 114.846 206.776 115.01 206.911 115.163C206.783 114.955 206.718 114.667 206.796 114.661C207.082 115.038 207.424 115.493 207.645 115.908C207.885 116.309 208.06 116.622 208.019 116.679C208.295 116.941 208.588 117.179 208.893 117.4C209.192 117.631 209.489 117.857 209.81 118.049C209.755 118.073 209.62 118.02 209.467 117.94C209.943 118.265 209.274 118.156 210.141 118.594C210.057 118.458 210.291 118.526 210.34 118.5C210.517 118.719 210.872 118.993 211.277 119.278C211.696 119.539 212.169 119.797 212.589 119.979L212.353 120.051C213.811 120.874 215.589 121.394 217.375 121.812C216.751 121.578 216.976 121.339 217.497 121.429L217.648 121.728C218.018 121.644 217.126 121.515 217.858 121.472C218.511 121.642 218.246 121.857 217.844 121.857C218.123 121.883 218.397 121.925 218.675 121.932C218.709 122.016 218.511 122.026 218.442 122.115C218.803 122.009 219.832 122.612 220.36 122.367L220.399 122.45C222.232 122.616 223.072 122.542 224.559 122.456C224.576 122.236 225.16 122.254 225.579 122.024C226.66 122.008 227.887 121.986 229.168 121.676C230.038 121.346 229.386 121.426 229.753 121.199C229.872 121.401 231.121 120.988 230.513 121.329C231.27 121.095 231.741 120.91 232.255 120.692C232.514 120.591 232.775 120.457 233.084 120.297C233.394 120.139 233.753 119.958 234.176 119.688C233.946 119.709 233.713 119.784 233.797 119.666C234.101 119.476 234.564 119.38 234.566 119.489L234.49 119.55L234.809 119.344C234.861 119.303 234.917 119.263 234.975 119.226C235.09 119.151 235.215 119.085 235.334 119.031C235.405 119.134 235.47 119.243 235.527 119.345L235.608 119.496C235.623 119.524 235.624 119.538 235.65 119.575L235.759 119.72C236.053 120.103 236.32 120.515 236.631 120.861C237.228 121.579 237.872 122.175 238.512 122.478L238.42 122.434C238.954 122.759 239.482 123.08 240.035 123.358C240.712 123.872 239.53 123.194 239.974 123.656C241.814 124.479 242.651 125.343 244.246 125.82C244.705 126.349 245.769 126.783 246.922 127.087C248.069 127.419 249.299 127.608 250.118 127.952L250.043 127.796C250.507 127.725 250.565 127.954 250.889 128.034C250.857 127.919 250.426 127.839 250.712 127.802C252.588 127.991 254.534 128.102 256.513 127.962C258.487 127.824 260.49 127.391 262.33 126.599C263.004 126.308 263.099 126.042 263.244 125.786C263.384 125.517 263.607 125.332 264.439 124.955L264.154 125.466C265.308 124.546 266.448 123.6 267.479 122.543C268.516 121.492 269.371 120.284 270.002 119.029C269.975 119.206 270.03 119.247 269.881 119.48C270.004 119.38 270.145 119.218 270.26 119.014C270.32 118.914 270.379 118.804 270.437 118.695C270.447 118.667 270.445 118.654 270.451 118.628C270.455 118.579 270.451 118.521 270.45 118.449C270.463 118.413 270.477 118.376 270.466 118.335C270.59 118.379 270.532 118.491 270.587 118.584C270.577 118.598 270.65 118.614 270.57 118.608C270.661 118.618 270.754 118.624 270.849 118.626C271.04 118.631 271.238 118.623 271.423 118.613C271.795 118.565 272.116 118.519 272.293 118.613C272.354 118.644 272.114 118.676 271.994 118.691C272.209 118.665 272.694 118.607 273.079 118.56C273.46 118.497 273.725 118.4 273.513 118.336C274.646 118.221 275.528 117.663 276.353 117.366C276.742 116.904 278.02 116.471 277.94 116.063C278.012 116.223 278.45 116 278.873 115.604C279.307 115.222 279.711 114.671 279.864 114.355C279.803 114.607 280.322 113.951 280.275 114.26C280.769 113.626 281.081 112.952 280.852 112.978C280.988 112.848 281.109 112.705 281.215 112.556C281.256 112.492 281.358 112.364 281.406 112.232L281.493 111.928C281.579 111.6 281.629 111.27 281.676 110.964C281.766 110.346 281.869 109.819 282.193 109.486L282.187 109.471ZM200.058 87.0489C200.03 87.1422 199.993 87.2722 199.924 87.4993L199.92 87.4984C199.978 87.3119 200.028 87.1508 200.058 87.0489ZM199.741 88.7681C199.719 88.6552 199.558 89.0749 199.429 89.339C199.488 89.1144 199.563 88.8366 199.64 88.5411C199.731 88.495 199.79 88.5867 199.738 88.7698L199.741 88.7681ZM240.213 59.4148C239.934 59.3486 239.638 59.313 239.338 59.3033C239.577 59.2412 239.823 59.2099 240.082 59.1792C240.198 59.2513 240.269 59.3522 240.213 59.4148ZM242.809 61.2202C242.805 61.0681 242.824 60.862 242.898 60.5366C242.951 60.5503 243.009 60.5536 243.073 60.5513C242.973 60.7672 242.885 60.9902 242.809 61.2202ZM254.919 63.6611C254.835 63.4738 254.751 63.2864 254.669 63.0974C254.76 63.1054 254.888 63.2252 255.094 63.5605C255.054 63.6038 254.993 63.6564 254.919 63.6611Z" fill="#EDDECE"/>
<path d="M236.143 59.7535C236.17 59.7547 236.205 59.7486 236.255 59.7233L236.143 59.7535Z" fill="#EDDECE"/>
<path d="M209.471 117.932C209.392 117.879 209.286 117.813 209.132 117.731C209.24 117.799 209.36 117.872 209.471 117.932Z" fill="#EDDECE"/>
<path d="M205.82 113.514L205.867 113.486L205.744 113.354L205.82 113.514Z" fill="#EDDECE"/>
<path d="M253.794 58.9855C253.794 58.9855 253.77 59.0571 253.771 59.1274C253.785 59.1054 253.793 59.0644 253.794 58.9855Z" fill="#EDDECE"/>
<path d="M250.159 55.832C250.449 55.8935 250.655 55.9238 250.818 55.9743C250.604 55.8971 250.382 55.8771 250.159 55.832Z" fill="#EDDECE"/>
<path d="M247.215 56.1978C247.185 56.2525 247.183 56.2858 247.179 56.3144L247.185 56.3158L247.213 56.1974L247.215 56.1978Z" fill="#EDDECE"/>
<path d="M280.718 96.0005C280.736 96.0449 280.756 96.0876 280.775 96.1234C280.928 96.4043 280.836 96.2086 280.718 96.0005Z" fill="#EDDECE"/>
<path d="M270.85 83.1689C270.996 83.2656 271.141 83.3596 271.282 83.4731C271.098 83.2534 270.948 83.0882 270.85 83.1689Z" fill="#EDDECE"/>
<path d="M280.272 114.25L280.273 114.246C280.244 114.278 280.222 114.307 280.196 114.342L280.272 114.25Z" fill="#EDDECE"/>
<path d="M271.28 83.4727C271.429 83.6556 271.599 83.8747 271.783 84.0269C271.622 83.7849 271.453 83.6156 271.28 83.4727Z" fill="#EDDECE"/>
<path d="M236.046 59.2632C236.046 59.2632 236.049 59.291 236.042 59.3052L236.211 59.2011L236.046 59.2632Z" fill="#EDDECE"/>
<path d="M236.042 59.3052L235.875 59.4098C235.957 59.373 236.027 59.3405 236.042 59.3052Z" fill="#EDDECE"/>
<path d="M235.526 59.6269L235.875 59.4097C235.745 59.4658 235.582 59.5327 235.526 59.6269Z" fill="#EDDECE"/>
<path d="M241.077 59.0789L241.166 59.0345C241.13 59.0336 241.1 59.0454 241.077 59.0789Z" fill="#EDDECE"/>
<path d="M241.798 59.4399C241.916 59.6051 242.042 59.7899 242.151 59.7973C242.069 59.7075 241.983 59.5674 241.896 59.438C241.882 59.3833 241.715 59.2798 241.611 59.2058C241.492 59.1263 241.367 59.0568 241.239 58.9981L241.166 59.0323C241.305 59.0392 241.556 59.2372 241.798 59.4377L241.798 59.4399Z" fill="#EDDECE"/>
<path d="M265.967 77.5727L265.68 77.5432L266.192 77.9931L265.967 77.5727Z" fill="#EDDECE"/>
<path d="M239.786 59.6267C238.885 61.0819 238.029 62.4765 236.861 63.7374C235.809 64.8757 234.67 65.9259 233.467 66.9033C230.935 68.9516 228.125 70.6425 225.353 72.3417C222.639 74.0056 219.824 75.5508 217.206 77.3641C215.845 78.308 214.504 79.3332 213.368 80.5463C212.324 81.6596 211.043 83.0768 210.497 84.5081C210.166 85.373 211.312 85.4154 211.837 85.2605C212.711 85.0059 213.594 84.3465 213.926 83.4773C214.146 82.9006 214.887 82.2066 215.281 81.7165C215.778 81.0971 216.317 80.5702 216.929 80.0631C218.037 79.1422 219.259 78.3673 220.485 77.6159C223.19 75.9614 225.92 74.3506 228.611 72.6682C231.349 70.9574 234.059 69.1526 236.49 67.0173C237.718 65.9366 238.887 64.7711 239.972 63.5469C241.13 62.2413 241.998 60.7497 242.915 59.2731C243.352 58.5707 242.914 58.035 242.148 58.0912C241.237 58.1595 240.258 58.8619 239.787 59.6246L239.786 59.6267Z" fill="#DEBE9F"/>
<path d="M208.786 89.0598C208.439 91.0144 208.21 92.992 208.13 94.9741C208.117 95.2899 208.463 95.4674 208.717 95.5077C209.108 95.5705 209.622 95.4133 209.963 95.2441C210.693 94.8841 211.601 94.2233 211.638 93.3276C211.685 92.1698 211.784 91.0161 211.929 89.8655L211.89 90.1736C211.982 89.4567 212.091 88.7412 212.217 88.0294C212.27 87.7267 212.266 87.4502 211.969 87.2763C211.671 87.1024 211.176 87.1801 210.878 87.2749C210.393 87.4315 209.915 87.6823 209.537 88.0266C209.245 88.2922 208.859 88.6529 208.789 89.0581L208.786 89.0598Z" fill="#DEBE9F"/>
<path d="M220.505 117.521C220.433 117.488 220.353 117.459 220.289 117.43C220 117.294 219.71 117.171 219.413 117.049C218.612 116.723 218.036 116.312 217.415 115.714C216.132 114.48 214.985 113.163 214.018 111.665C213.063 110.186 212.269 108.614 211.695 106.949C211.101 105.226 210.67 103.452 210.035 101.742C209.755 100.987 208.197 101.749 207.822 101.992C207.219 102.384 206.399 103.118 206.693 103.912C207.432 105.901 207.891 107.98 208.659 109.957C209.421 111.919 210.523 113.782 211.817 115.439C212.453 116.252 213.152 117.002 213.897 117.716C214.672 118.459 215.359 119.129 216.366 119.542C217.009 119.805 217.694 120.226 218.382 120.347C219.634 120.568 221.324 119.554 221.657 118.319C221.868 117.54 221.095 117.414 220.505 117.523L220.505 117.521ZM220.668 117.614C220.773 117.662 220.819 117.606 220.668 117.614V117.614Z" fill="#DEBE9F"/>
<path d="M266.575 109.211C266.506 111.13 266.526 113.052 266.332 114.965C266.242 115.847 266.082 116.725 265.842 117.58C265.713 118.038 265.573 118.526 265.372 118.96C265.359 118.989 265.222 119.276 265.295 119.154C265.131 119.428 264.89 119.646 264.746 119.938C264.616 120.2 264.456 120.561 264.642 120.847C264.827 121.132 265.23 121.148 265.514 121.12C266.361 121.036 267.487 120.374 267.875 119.587C267.76 119.682 267.775 119.654 267.918 119.501C268.041 119.337 268.16 119.173 268.278 119.008C268.424 118.782 268.536 118.539 268.647 118.292C268.871 117.793 269.06 117.277 269.216 116.752C269.511 115.771 269.673 114.762 269.794 113.747C270.04 111.696 270.01 109.627 270.084 107.567C270.116 106.695 268.645 107.103 268.251 107.297C267.527 107.656 266.609 108.319 266.577 109.214L266.575 109.211Z" fill="#DEBE9F"/>
<path d="M246.706 117.38C246.706 117.351 246.705 117.321 246.707 117.292C246.709 115.838 243.97 117.523 243.641 117.942C243.338 118.327 243.101 118.581 242.878 118.73C242.675 118.863 242.641 118.899 242.275 118.982C241.487 119.16 240.61 119.046 239.859 118.777C238.155 118.174 236.699 116.757 236.233 114.984C235.819 113.405 233.347 115.36 232.914 115.984C232.889 116.02 232.852 116.055 232.817 116.081C232.734 116.109 232.564 116.167 232.5 116.179C231.884 116.285 231.219 116.191 230.63 115.987C229.278 115.514 228.153 114.432 227.882 112.997C227.597 111.498 224.127 113.349 224.374 114.643C224.81 116.941 226.704 118.484 228.963 118.869C230.48 119.126 231.987 118.807 233.297 118.096C234.245 119.893 235.947 121.165 238 121.633C240.868 122.288 243.869 120.942 245.808 118.824C246.291 118.453 246.707 117.949 246.707 117.378L246.706 117.38Z" fill="#B77F76"/>
<path d="M249.166 60.665C249.999 66.2679 251.095 71.9177 253.671 77.0168C256.423 82.4651 260.509 87.0563 263.54 92.3291C264.345 93.7289 265.05 95.1822 265.597 96.7012C265.864 97.4425 266.099 98.1972 266.403 98.9258C266.671 99.5656 267.211 100.234 267.278 100.928C267.425 102.387 270.92 100.62 270.786 99.2815C270.668 98.0953 269.789 96.9576 269.388 95.8377C268.901 94.4737 268.421 93.1271 267.774 91.8284C266.466 89.2034 264.763 86.8016 263.083 84.407C259.597 79.4352 256.256 74.4738 254.581 68.57C253.694 65.4405 253.148 62.2297 252.669 59.0175C252.449 57.5341 248.965 59.346 249.162 60.664L249.166 60.665Z" fill="#DEBE9F"/>
<path d="M226.858 101.246C226.552 101.122 226.233 101.169 225.921 101.223C225.79 101.244 225.658 101.282 225.528 101.331C225.437 101.334 225.343 101.35 225.254 101.372C224.84 101.485 224.435 101.711 224.12 102.001C223.343 102.714 222.713 103.518 222.259 104.474C222.096 104.819 221.914 105.207 221.882 105.591C221.856 105.904 221.891 106.135 222.055 106.405C222.222 106.682 222.534 106.787 222.837 106.815C223.47 106.875 224.109 106.494 224.629 106.186C225.05 105.937 225.456 105.644 225.812 105.306C226.607 104.553 227.425 103.648 227.493 102.499C227.509 102.22 227.515 101.991 227.396 101.742C227.284 101.505 227.112 101.347 226.858 101.246Z" fill="#6F6A5F"/>
<path d="M247.654 105.666C247.983 105.677 248.256 105.85 248.519 106.026C248.63 106.099 248.735 106.187 248.834 106.285C248.916 106.325 248.995 106.378 249.067 106.434C249.4 106.706 249.678 107.076 249.848 107.469C250.268 108.437 250.516 109.427 250.541 110.486C250.551 110.867 250.559 111.296 250.432 111.66C250.328 111.956 250.203 112.153 249.943 112.333C249.678 112.518 249.35 112.487 249.062 112.389C248.459 112.187 248.03 111.578 247.681 111.086C247.397 110.687 247.146 110.254 246.958 109.801C246.538 108.79 246.159 107.629 246.564 106.552C246.662 106.291 246.75 106.079 246.96 105.9C247.159 105.73 247.38 105.655 247.654 105.666Z" fill="#6F6A5F"/>
</g>
<defs>
<clipPath id="clip0_1484_2930">
<rect width="85.4134" height="92" fill="white" transform="translate(212.443 26.7781) rotate(12)"/>
</clipPath>
</defs>
</svg>
