<svg width="36" height="36" viewBox="0 0 36 36" fill="none" xmlns="http://www.w3.org/2000/svg">
<mask id="mask0_1285_5163" style="mask-type:luminance" maskUnits="userSpaceOnUse" x="3" y="3" width="14" height="20">
<path fill-rule="evenodd" clip-rule="evenodd" d="M3 3.00073H16.943V22.6567H3V3.00073Z" fill="white"/>
</mask>
<g mask="url(#mask0_1285_5163)">
<path fill-rule="evenodd" clip-rule="evenodd" d="M10.0879 22.6567C9.77741 22.6567 9.46691 22.5277 9.24491 22.2757C1.23191 13.1977 2.38091 8.49673 4.75691 6.15073C4.78091 6.12073 4.86341 6.03973 4.88891 6.01273C6.99491 3.87523 8.43491 3.00073 9.84041 3.00073H9.88391C11.5504 3.02173 12.7279 4.28023 14.2189 5.87473C14.5849 6.26623 14.9839 6.69073 15.4249 7.13923C17.5699 9.32773 16.9609 11.1097 16.4704 12.5407C16.1164 13.5772 15.8074 14.4742 16.3684 15.7507C16.6189 16.3207 16.3609 16.9852 15.7924 17.2342C15.2194 17.4832 14.5579 17.2252 14.3089 16.6567C13.3954 14.5732 13.9414 12.9772 14.3419 11.8117C14.7754 10.5472 14.9929 9.91273 13.8199 8.71723C13.3654 8.25523 12.9544 7.81573 12.5749 7.41223C11.4064 6.16123 10.5604 5.25823 9.85541 5.25073H9.84341C9.14291 5.25073 8.04641 6.01573 6.49241 7.59223C6.49391 7.58923 6.49691 7.58773 6.49691 7.58773C6.49991 7.58773 6.42941 7.66123 6.33791 7.75123C3.12491 10.9252 7.83641 17.2807 10.9309 20.7877C11.3419 21.2527 11.2984 21.9637 10.8319 22.3762C10.6189 22.5637 10.3534 22.6567 10.0879 22.6567Z" fill="currentColor"/>
</g>
<path fill-rule="evenodd" clip-rule="evenodd" d="M26.9442 34.2261C23.5077 34.2261 19.1007 31.6176 13.8387 26.4681C13.3947 26.0331 13.3857 25.3206 13.8207 24.8781C14.2572 24.4326 14.9697 24.4266 15.4122 24.8601C21.5007 30.8196 25.0587 32.0616 27.0417 31.9746C28.4892 31.9446 29.1732 31.2111 29.5017 30.8601C29.5932 30.7626 29.6652 30.6906 29.7192 30.6426C31.2087 29.1186 31.9602 27.9966 31.9512 27.2706C31.9407 26.5311 31.0482 25.6641 29.8122 24.4626C29.4207 24.0831 28.9977 23.6721 28.5492 23.2161C27.3987 22.0431 26.8287 22.2471 25.5762 22.7001C24.0342 23.2551 21.9192 24.0201 18.8487 21.4941C18.3672 21.0996 18.2967 20.3901 18.6927 19.9116C19.0857 19.4301 19.7997 19.3611 20.2752 19.7571C22.3617 21.4641 23.4402 21.0741 24.8142 20.5821C26.1552 20.0991 27.9927 19.4421 30.1557 21.6381C30.5907 22.0821 31.0017 22.4811 31.3797 22.8501C32.9442 24.3696 34.1787 25.5696 34.1997 27.2436C34.2192 28.6716 33.3657 30.1311 31.2627 32.2791L31.1189 32.4248L31.1908 32.352C30.7363 32.838 29.4852 34.1721 27.0927 34.2246C27.0417 34.2261 26.9922 34.2261 26.9442 34.2261Z" fill="currentColor"/>
<path fill-rule="evenodd" clip-rule="evenodd" d="M6.95911 33.5992C6.68311 33.5992 6.40711 33.4987 6.18961 33.2947C5.73661 32.8702 5.71411 32.1577 6.13861 31.7047L28.6386 7.70465C29.0616 7.25015 29.7756 7.22765 30.2286 7.65365C30.6816 8.07815 30.7041 8.79065 30.2796 9.24365L7.77961 33.2437C7.55761 33.4806 7.25911 33.5992 6.95911 33.5992Z" fill="currentColor"/>
</svg>
