<svg width="80" height="80" viewBox="0 0 80 80" fill="none" xmlns="http://www.w3.org/2000/svg">
<rect x="1" y="1" width="78" height="78" rx="39" fill="#FCF8F5"/>
<rect x="1" y="1" width="78" height="78" rx="39" stroke="#B59779" stroke-width="2"/>
<mask id="mask0_1472_2292" style="mask-type:luminance" maskUnits="userSpaceOnUse" x="30" y="30" width="20" height="20">
<path fill-rule="evenodd" clip-rule="evenodd" d="M30.0004 30.0002H49.96V49.95H30.0004V30.0002Z" fill="white"/>
</mask>
<g mask="url(#mask0_1472_2292)">
<path fill-rule="evenodd" clip-rule="evenodd" d="M35.6504 31.5C33.1294 31.5 31.5004 33.227 31.5004 35.899V44.051C31.5004 46.724 33.1294 48.45 35.6504 48.45H44.3004C46.8274 48.45 48.4604 46.724 48.4604 44.051V35.899C48.4604 33.227 46.8274 31.5 44.3004 31.5H35.6504ZM44.3004 49.95H35.6504C32.2704 49.95 30.0004 47.579 30.0004 44.051V35.899C30.0004 32.371 32.2704 30 35.6504 30H44.3004C47.6854 30 49.9604 32.371 49.9604 35.899V44.051C49.9604 47.579 47.6854 49.95 44.3004 49.95Z" fill="#B59779"/>
</g>
<path fill-rule="evenodd" clip-rule="evenodd" d="M33.2814 45.1804C33.0954 45.1804 32.9104 45.1124 32.7654 44.9744C32.4644 44.6904 32.4524 44.2144 32.7374 43.9154L34.2654 42.3024C35.0744 41.4434 36.4394 41.4014 37.3024 42.2114L38.2604 43.1834C38.5274 43.4534 38.9614 43.4584 39.2294 43.1944C39.3304 43.0754 41.5084 40.4304 41.5084 40.4304C41.9224 39.9284 42.5064 39.6184 43.1554 39.5544C43.8054 39.4974 44.4364 39.6864 44.9394 40.0994C44.9824 40.1344 45.0214 40.1684 47.2174 42.4234C47.5064 42.7194 47.5014 43.1944 47.2044 43.4834C46.9084 43.7744 46.4324 43.7654 46.1434 43.4694C46.1434 43.4694 44.0944 41.3664 43.9484 41.2244C43.7934 41.0974 43.5444 41.0234 43.2994 41.0474C43.0504 41.0724 42.8264 41.1914 42.6674 41.3844C40.3434 44.2034 40.3154 44.2304 40.2774 44.2674C39.4194 45.1094 38.0344 45.0954 37.1914 44.2354C37.1914 44.2354 36.2614 43.2914 36.2454 43.2724C36.0144 43.0584 35.6024 43.0724 35.3554 43.3334L33.8254 44.9464C33.6774 45.1024 33.4794 45.1804 33.2814 45.1804Z" fill="#B59779"/>
<path fill-rule="evenodd" clip-rule="evenodd" d="M36.5576 36.1289C36.0046 36.1289 35.5546 36.5789 35.5546 37.1329C35.5546 37.6869 36.0046 38.1379 36.5586 38.1379C37.1126 38.1379 37.5636 37.6869 37.5636 37.1329C37.5636 36.5799 37.1126 36.1299 36.5576 36.1289ZM36.5586 39.6379C35.1776 39.6379 34.0546 38.5139 34.0546 37.1329C34.0546 35.7519 35.1776 34.6289 36.5586 34.6289C37.9406 34.6299 39.0636 35.7539 39.0636 37.1329C39.0636 38.5139 37.9396 39.6379 36.5586 39.6379Z" fill="#B59779"/>
</svg>
