<svg width="36" height="36" viewBox="0 0 36 36" fill="none" xmlns="http://www.w3.org/2000/svg">
<mask id="mask0_1285_4673" style="mask-type:luminance" maskUnits="userSpaceOnUse" x="4" y="1" width="29" height="27">
<path fill-rule="evenodd" clip-rule="evenodd" d="M4.50012 1.5H32.2455V27.522H4.50012V1.5Z" fill="white"/>
</mask>
<g mask="url(#mask0_1285_4673)">
<path fill-rule="evenodd" clip-rule="evenodd" d="M18.3706 3.75C13.1281 3.75 9.47414 7.857 9.47414 11.5425C9.47414 14.661 8.60864 16.1025 7.84364 17.3745C7.23014 18.396 6.74564 19.203 6.74564 20.9565C6.99614 23.7855 8.86364 25.272 18.3706 25.272C27.8251 25.272 29.7511 23.7195 30.0001 20.859C29.9956 19.203 29.5111 18.396 28.8976 17.3745C28.1326 16.1025 27.2671 14.661 27.2671 11.5425C27.2671 7.857 23.6131 3.75 18.3706 3.75ZM18.3706 27.522C11.3566 27.522 5.01764 27.027 4.50014 21.0525C4.49564 18.5805 5.25014 17.3235 5.91614 16.2165C6.58964 15.0945 7.22414 14.037 7.22414 11.5425C7.22414 6.693 11.7031 1.5 18.3706 1.5C25.0381 1.5 29.5171 6.693 29.5171 11.5425C29.5171 14.037 30.1516 15.0945 30.8251 16.2165C31.4911 17.3235 32.2456 18.5805 32.2456 20.9565C31.7221 27.027 25.3846 27.522 18.3706 27.522Z" fill="black"/>
</g>
<path fill-rule="evenodd" clip-rule="evenodd" d="M18.2975 33.75H18.2945C16.613 33.7485 15.0215 33.0075 13.814 31.662C13.3985 31.2015 13.436 30.489 13.898 30.075C14.36 29.658 15.071 29.6955 15.4865 30.159C16.2635 31.0245 17.261 31.5 18.296 31.5H18.2975C19.337 31.5 20.339 31.0245 21.1175 30.1575C21.5345 29.697 22.2455 29.6595 22.706 30.075C23.168 30.4905 23.2055 31.203 22.79 31.6635C21.578 33.009 19.9835 33.75 18.2975 33.75Z" fill="black"/>
</svg>
