<svg width="48" height="48" viewBox="0 0 48 48" fill="none" xmlns="http://www.w3.org/2000/svg">
<mask id="mask0_1297_6014" style="mask-type:luminance" maskUnits="userSpaceOnUse" x="4" y="10" width="25" height="32">
<path fill-rule="evenodd" clip-rule="evenodd" d="M4.00024 10.0005H28.0402V41.0043H4.00024V10.0005Z" fill="white"/>
</mask>
<g mask="url(#mask0_1297_6014)">
<path fill-rule="evenodd" clip-rule="evenodd" d="M22.4162 13.0123C20.6802 13.0123 18.4602 14.7743 16.6122 16.2423C14.8342 17.6523 13.4302 18.7683 12.0302 18.8723C11.4102 18.9163 10.8782 18.9363 10.4102 18.9523C8.91621 19.0023 8.53821 19.0363 7.86421 19.5923C6.98021 20.3183 6.99421 23.2843 7.00221 25.0543L7.00421 25.4963V25.5043L7.00221 25.9463C6.99421 27.7183 6.98021 30.6843 7.86421 31.4103C8.53621 31.9663 8.91421 31.9983 10.4042 32.0523C10.8742 32.0663 11.4082 32.0863 12.0302 32.1323C13.4302 32.2343 14.8342 33.3503 16.6122 34.7603C18.8182 36.5103 21.5502 38.6803 23.3622 37.7783C24.8782 36.4643 25.0402 32.9803 25.0402 25.5003C25.0402 18.0203 24.8782 14.5383 23.3622 13.2223C23.0682 13.0763 22.7502 13.0123 22.4162 13.0123ZM22.4362 41.0043C19.6542 41.0043 16.8962 38.8143 14.7482 37.1103C13.7782 36.3403 12.3122 35.1763 11.8062 35.1243C11.2322 35.0803 10.7362 35.0623 10.2982 35.0503C8.70221 34.9923 7.44021 34.9503 5.95621 33.7263C3.97221 32.0923 3.99021 28.6763 4.00221 25.9323L4.00421 25.5003L4.00221 25.0683C3.99021 22.3243 3.97221 18.9103 5.95621 17.2763C7.44221 16.0523 8.70621 16.0083 10.3062 15.9543C10.7422 15.9383 11.2362 15.9223 11.8102 15.8803C12.3122 15.8263 13.7782 14.6623 14.7482 13.8923C17.5462 11.6703 21.3782 8.63626 24.9482 10.6703C25.0102 10.7083 25.0722 10.7483 25.1282 10.7943C27.9162 12.9843 28.0402 17.1143 28.0402 25.5003C28.0402 33.8883 27.9162 38.0183 25.1282 40.2103C25.0722 40.2543 25.0102 40.2963 24.9462 40.3323C24.1182 40.8043 23.2762 41.0043 22.4362 41.0043Z" fill="#B59779"/>
</g>
<mask id="mask1_1297_6014" style="mask-type:luminance" maskUnits="userSpaceOnUse" x="38" y="11" width="7" height="29">
<path fill-rule="evenodd" clip-rule="evenodd" d="M38.1677 11.8071H44.9679V39.1918H38.1677V11.8071Z" fill="white"/>
</mask>
<g mask="url(#mask1_1297_6014)">
<path fill-rule="evenodd" clip-rule="evenodd" d="M39.6671 39.1918C39.3711 39.1918 39.0731 39.1038 38.8111 38.9218C38.1311 38.4498 37.9631 37.5158 38.4371 36.8338C43.2231 29.9538 43.2231 21.0558 38.4371 14.1638C37.9631 13.4838 38.1311 12.5498 38.8131 12.0758C39.4931 11.6018 40.4251 11.7718 40.8991 12.4538C46.3251 20.2618 46.3251 30.7478 40.8991 38.5498C40.6071 38.9678 40.1411 39.1918 39.6671 39.1918Z" fill="#B59779"/>
</g>
<path fill-rule="evenodd" clip-rule="evenodd" d="M34.6612 34.3736C34.4072 34.3736 34.1512 34.3096 33.9152 34.1736C33.1972 33.7616 32.9492 32.8436 33.3612 32.1276C35.7032 28.0456 35.7032 22.9696 33.3612 18.8756C32.9492 18.1556 33.1992 17.2396 33.9172 16.8276C34.6372 16.4236 35.5512 16.6656 35.9632 17.3836C38.8332 22.3996 38.8332 28.6196 35.9632 33.6196C35.6852 34.1036 35.1812 34.3736 34.6612 34.3736Z" fill="#B59779"/>
</svg>
