<svg width="36" height="36" viewBox="0 0 36 36" fill="none" xmlns="http://www.w3.org/2000/svg">
<path fill-rule="evenodd" clip-rule="evenodd" d="M23.5737 25.4607H12.7437C12.1227 25.4607 11.6187 24.9567 11.6187 24.3357C11.6187 23.7147 12.1227 23.2107 12.7437 23.2107H23.5737C24.1947 23.2107 24.6987 23.7147 24.6987 24.3357C24.6987 24.9567 24.1947 25.4607 23.5737 25.4607Z" fill="#B59779"/>
<path fill-rule="evenodd" clip-rule="evenodd" d="M23.5737 19.1809H12.7437C12.1227 19.1809 11.6187 18.6769 11.6187 18.0559C11.6187 17.4349 12.1227 16.9309 12.7437 16.9309H23.5737C24.1947 16.9309 24.6987 17.4349 24.6987 18.0559C24.6987 18.6769 24.1947 19.1809 23.5737 19.1809Z" fill="#B59779"/>
<path fill-rule="evenodd" clip-rule="evenodd" d="M16.8757 12.9155H12.7432C12.1222 12.9155 11.6182 12.4115 11.6182 11.7905C11.6182 11.1695 12.1222 10.6655 12.7432 10.6655H16.8757C17.4967 10.6655 18.0007 11.1695 18.0007 11.7905C18.0007 12.4115 17.4967 12.9155 16.8757 12.9155Z" fill="#B59779"/>
<mask id="mask0_1480_2348" style="mask-type:luminance" maskUnits="userSpaceOnUse" x="4" y="3" width="28" height="30">
<path fill-rule="evenodd" clip-rule="evenodd" d="M4.5 3.00024H31.747V32.8649H4.5V3.00024Z" fill="white"/>
</mask>
<g mask="url(#mask0_1480_2348)">
<path fill-rule="evenodd" clip-rule="evenodd" d="M23.8631 5.25L12.3296 5.256C8.83757 5.277 6.74957 7.437 6.74957 11.0355V24.8295C6.74957 28.452 8.85707 30.615 12.3836 30.615L23.9171 30.6105C27.4091 30.5895 29.4971 28.4265 29.4971 24.8295V11.0355C29.4971 7.413 27.3911 5.25 23.8631 5.25ZM12.3851 32.865C7.66907 32.865 4.49957 29.6355 4.49957 24.8295V11.0355C4.49957 6.186 7.57007 3.0345 12.3221 3.006L23.8616 3H23.8631C28.5791 3 31.7471 6.2295 31.7471 11.0355V24.8295C31.7471 29.6775 28.6766 32.8305 23.9246 32.8605L12.3851 32.865Z" fill="#B59779"/>
</g>
</svg>
