<svg width="174" height="242" viewBox="0 0 174 242" fill="none" xmlns="http://www.w3.org/2000/svg">
<g clip-path="url(#clip0_1270_4383)">
<path d="M76.8724 113.157C90.9391 87.582 79.0482 56.5508 77.5698 28.8401C77.4981 27.5031 77.8726 26.17 78.5899 25.1842C86.7749 13.9571 88.325 49.3387 87.5599 55.6847C86.6992 37.485 86.9901 15.3261 97.1834 1.59648C99.5464 -1.58847 103.758 0.295359 104.021 4.64971C104.655 15.1066 102.308 25.9545 100.387 36.3595C95.3503 63.6351 93.2702 91.7807 94.2266 119.763L76.8724 113.157Z" fill="#80A187"/>
<path d="M89.377 81.4196C91.0028 70.0767 94.7885 58.7259 100.26 48.6641C102.758 44.0703 105.691 39.692 109.142 35.7607C110.995 33.6534 112.999 31.6857 115.167 29.9057C116.251 29.0117 117.355 28.1416 118.463 27.2795C119.57 26.4174 120.858 25.8227 121.941 24.9207C122.838 24.1744 124.177 22.8613 123.982 21.5482C123.794 20.287 122.456 20.6302 121.615 21.0533L121.2 21.2608C120.025 21.8515 118.479 23.3961 118.475 24.813C118.475 26.2977 119.917 26.0343 120.866 25.5593L121.28 25.3518C121.172 24.0626 121.061 22.7735 120.953 21.4843C119.881 22.3784 118.586 22.985 117.474 23.8431C116.203 24.8249 114.948 25.8267 113.717 26.8524C111.27 28.8959 108.979 31.0831 106.855 33.4658C102.758 38.0596 99.2197 43.1204 96.239 48.5085C90.1859 59.4682 86.0417 71.8368 84.2644 84.2254C84.0492 85.7141 85.8584 85.4028 86.6553 84.9717C87.9464 84.2773 89.1658 82.9123 89.381 81.4196H89.377Z" fill="#95CC92"/>
<path d="M73.0509 82.9842C73.29 82.9243 73.1744 83.1518 73.1784 83.2476C73.6446 82.6808 74.2185 81.9265 73.6008 81.8347C73.1744 82.5771 72.9114 82.5212 72.5807 83.4032C72.1025 83.7944 71.6681 84.0179 71.6283 83.8183C71.5805 83.9381 71.3852 84.0897 71.186 84.2653C71.0027 84.4569 70.8353 84.6964 70.8273 84.9079C71.5884 84.4489 72.3416 83.8503 73.0509 82.9882V82.9842Z" fill="#EDDECE"/>
<path d="M80.945 79.9188C80.9569 79.8949 80.9689 79.8789 80.9888 79.855C80.7537 79.855 80.5505 79.867 80.3751 79.9188C80.5624 79.9029 80.7537 79.9188 80.945 79.9188Z" fill="#EDDECE"/>
<path d="M59.57 95.8237C59.582 95.8476 59.6019 95.8516 59.6138 95.8716C59.6417 95.7957 59.6417 95.7638 59.57 95.8237Z" fill="#EDDECE"/>
<path d="M81.3514 79.9429C81.5427 79.9668 81.7379 79.9588 81.9332 80.0307C81.6702 79.9349 81.4909 79.9548 81.3514 79.9429Z" fill="#EDDECE"/>
<path d="M34.9474 115.971C34.6526 115.875 35.8201 114.806 34.3537 116.035C34.6008 115.963 34.7881 115.959 34.9474 115.971Z" fill="#EDDECE"/>
<path d="M80.9768 80.0587C81.0565 79.9749 81.1641 79.939 81.3514 79.939C81.2119 79.931 81.0764 79.923 80.9449 79.915C80.9051 79.9669 80.8931 80.0148 80.9768 80.0547V80.0587Z" fill="#EDDECE"/>
<path d="M149.162 179.127C148.863 179.678 148.501 180.189 148.162 180.708C148.465 180.281 148.859 179.726 149.162 179.127Z" fill="#EDDECE"/>
<path d="M26.1528 183.701C26.2125 183.849 26.2843 183.98 26.368 184.06L26.1528 183.701Z" fill="#EDDECE"/>
<path d="M144.52 184.854C144.193 184.982 143.854 185.122 143.544 185.305C143.5 185.373 143.444 185.445 143.428 185.513C143.791 185.298 144.169 185.094 144.52 184.854Z" fill="#EDDECE"/>
<path d="M136.913 188.67C136.801 188.706 136.705 188.742 136.634 188.778C136.709 188.75 136.821 188.71 136.913 188.67Z" fill="#EDDECE"/>
<path d="M29.771 189.073C29.6515 188.961 29.4881 188.826 29.249 188.646C29.4164 188.79 29.5997 188.945 29.771 189.073Z" fill="#EDDECE"/>
<path d="M151.198 163.23C150.924 161.606 150.617 160.341 150.282 159.104C149.875 157.878 149.656 156.629 149.274 155.076C149.138 154.254 149.64 155.468 149.812 155.719C149.27 154.182 148.927 152.65 148.397 151.225C147.943 149.772 147.385 148.411 146.684 147.15C146.735 147.138 146.907 147.397 147.062 147.653C146.831 147.138 146.644 146.4 146.425 146.567L146.7 147.046C146.692 147.537 146.293 147.098 145.875 146.539C145.432 145.993 144.942 145.342 144.831 145.338C145.926 145.873 143.807 142.728 145.317 143.67C145.114 143.354 144.803 142.991 144.679 143.151C144.472 142.644 144.48 142.44 144.922 142.84C143.846 141.127 143.934 141.894 143.085 140.285C143.201 140.229 143.416 140.529 143.639 140.62C143.002 139.918 142.296 139.263 141.619 137.883C141.73 137.922 141.73 137.719 141.958 138.114C141.288 136.977 140.539 136.126 139.81 135.228C139.092 134.322 138.355 133.4 137.65 132.147C138.586 132.534 137.255 131.233 137.566 130.83L136.554 129.649L136.721 130.287C135.94 129.186 134.976 128.408 134.41 127.386L135.163 128.076L133.589 126.093L134.295 127.354C133.282 126.404 133.888 127.837 132.932 126.316C133.187 126.58 132.143 125.227 131.936 124.5C131.41 124.065 130.864 123.622 130.358 122.756C130.326 122.457 130.907 122.596 130.888 122.397C130.17 122.117 128.867 119.97 128.022 119.579C128.273 119.735 128.481 119.591 128.465 119.487L127.867 119.256C127.568 118.701 127.548 118.597 127.771 118.553C126.664 117.041 127.656 119.399 126.492 117.488C126.62 117.607 126.608 117.512 126.871 117.767C125.604 115.923 124.049 114.498 122.918 112.778C122.93 112 124.109 114.119 124.01 113.321C122.129 111.046 119.806 108.843 118.204 106.472L118.475 106.931C117.69 107.019 117.482 105.019 116.383 104.038C116.626 104.297 116.956 104.193 116.841 104.161C115.805 102.505 114.402 101.008 112.597 98.6534L112.948 98.861C112.441 97.8193 111.413 96.2547 110.828 95.1651C110.493 94.9377 110.166 94.307 110.158 94.8139C109.074 91.0622 106.197 88.6356 105.643 85.1593C105.795 85.5345 106.137 85.9935 106.022 85.6941L104.818 83.0879C104.619 83.4032 104.787 83.499 104.79 84.1495C104.5 83.8702 104.033 83.1677 103.834 82.4733C104.424 83.6467 104.284 82.2976 104.272 81.7189C104.213 81.8387 104.057 81.687 103.986 81.7628C104.033 80.1664 103.324 81.7109 103.045 79.6316L103.224 79.6954C102.957 78.973 102.583 78.3304 102.423 77.5083C102.675 77.0892 102.782 78.2706 103.069 78.2466C102.993 77.9672 102.882 77.6958 102.754 77.4324C102.615 77.1331 102.475 76.8377 102.336 76.5424L102.244 76.3428L102.005 76.283C101.85 76.2431 101.706 76.1992 101.567 76.1513C101.292 76.0555 101.045 75.9118 100.806 75.7442C101.069 75.7761 101.399 75.8998 101.734 76.0036C102.057 76.1233 102.491 76.1553 102.507 76.5065C102.599 76.0275 102.28 75.9637 102.109 75.816C101.917 75.6883 101.75 75.5885 101.583 75.5047C101.415 75.4209 101.256 75.349 101.073 75.2652C100.917 75.2133 100.742 75.1575 100.523 75.0856L100.606 75.1176C100.551 75.0976 100.491 75.0776 100.435 75.0577C100.463 75.0657 100.495 75.0776 100.519 75.0856C100.16 74.9579 99.8054 74.7743 99.4308 74.6985C99.7576 74.7903 100.013 74.898 100.228 74.9818C100.017 74.906 99.8054 74.8262 99.5862 74.7663L98.5302 74.5269L99.0602 74.7105C98.2194 75.0258 97.4703 75.0657 96.6295 75.1016C95.8006 75.1575 94.8761 75.2652 93.9954 75.832C95.7607 74.8182 94.2345 75.4289 94.2704 75.0058C93.7245 75.0337 92.8956 75.1974 93.0829 75.0138C92.254 75.6444 91.3694 75.4169 90.3612 76.5504C90.2297 76.4626 89.4726 77.165 89.4726 76.7699C88.4525 77.636 89.8591 76.7579 89.8551 76.9615C89.1458 77.6958 88.2134 78.3783 87.2809 79.3043C86.8545 79.7752 86.3604 80.322 86.0576 80.9047C85.8663 81.236 85.7906 81.5273 85.7188 82.122C85.6352 82.4413 85.6232 82.7806 85.5754 83.1118C85.5555 83.2555 85.5435 83.495 85.5156 83.5628L85.416 83.4671C85.2845 83.3553 85.2247 83.1797 84.9498 82.9961C84.8262 82.8963 84.6907 82.7686 84.5313 82.605C84.4716 82.5491 84.3998 82.4972 84.3241 82.4493C84.1448 82.2657 83.9535 82.1021 83.7503 81.9544C83.6507 81.6152 84.4875 82.0781 84.4636 82.0542C84.2843 81.8387 84.1169 81.6511 83.9575 81.4874C83.7862 81.3238 83.4873 81.1881 83.2562 81.0604C82.774 80.7571 82.2082 80.7291 81.6303 80.6214C81.8814 80.5775 81.6702 80.4018 81.3155 80.2382C80.3273 80.1743 80.6461 80.5894 79.4108 80.4657C79.61 80.314 79.877 80.0746 80.3552 79.9149C79.1836 80.0586 78.1077 80.4138 77.0716 80.8728C76.721 80.7571 77.6335 80.338 78.024 80.1384C76.7329 80.4737 74.86 81.3637 74.6966 81.8866C74.8919 81.8267 75.0872 81.7628 75.2824 81.703C75.1071 81.699 75.1868 81.4236 75.4219 81.2759C76.3424 80.6014 76.9521 80.8449 77.0398 80.9606C76.7887 81.0564 76.5416 81.1562 76.3105 81.2839C76.5616 81.3757 76.8684 81.3677 77.2151 81.2999C77.5618 81.232 77.9443 81.0604 78.3747 80.9486C78.7971 80.8129 79.2474 80.6493 79.7136 80.5854C79.9447 80.5455 80.1759 80.5056 80.399 80.4777C80.6222 80.4777 80.8413 80.4936 81.0486 80.5216C80.8493 80.6493 80.666 80.773 80.4867 80.9007C76.5297 80.7531 71.704 83.5349 70.3571 86.3167C70.3173 86.3766 70.2734 86.4365 70.2296 86.4963C70.1061 86.3088 70.0104 86.0892 69.847 85.9655C69.9506 85.9017 70.0821 85.758 70.2136 85.5025C70.1778 85.295 70.1339 85.0595 70.126 84.852C69.9467 85.1673 69.7992 85.5185 69.6438 85.8418C69.6438 85.8578 69.6438 85.8657 69.6438 85.8817C69.3529 85.8338 68.8946 86.0414 68.0578 86.8116L67.3326 88.3682L66.7747 88.6157L67.6155 87.4862C66.9142 87.9491 66.8026 88.4999 66.5834 89.0627C66.3882 89.0746 66.1371 89.1744 65.8741 89.3859L65.2047 90.9944C64.8938 90.9824 65.3481 90.1323 64.5153 90.8667C64.1965 91.621 65.4039 90.6671 64.6747 91.7447C63.9295 92.1598 63.9335 91.8325 63.4633 92.6906C63.256 92.6747 63.3357 92.4711 63.531 92.1398C63.1006 92.8902 62.0008 93.7603 61.9211 94.3031C61.0843 94.6503 59.9406 96.3665 59.5939 95.8676C59.4863 96.143 58.773 97.1847 58.2032 97.7195C58.8209 96.2627 55.9916 99.6233 55.7804 98.7891C55.346 99.9186 53.0268 101.431 51.7318 102.828C51.7836 102.724 51.8872 102.521 52.0386 102.445C51.1699 103.052 50.8152 103.092 50.2055 103.415C50.4088 103.902 49.1774 105.003 48.6475 105.786C47.3125 106.177 48.9184 104.832 48.3087 104.704C48.6116 104.991 46.7506 106.392 47.3125 106.4C46.3362 106.755 46.5394 106.799 45.878 106.771C46.121 107.386 45.2045 107.414 44.7741 108.228C43.4312 108.847 44.1206 107.977 42.969 109.086C42.2477 109.386 43.24 108.356 43.24 108.356C41.9409 109.322 42.9172 109.186 42.8096 109.613C41.3511 110.882 41.8851 109.869 41.2117 110.072C40.331 110.914 39.8648 111.832 39.1395 112.371C39.0359 112.351 38.8805 112.435 38.9841 112.231C38.1951 113.293 36.0194 114.622 35.1626 115.935C35.051 115.971 34.9793 115.975 34.9355 115.967C35.2782 115.999 35.4615 116.163 35.5332 116.326C34.9753 116.789 34.6844 117.408 34.2819 117.356C34.6207 117.069 34.5689 116.945 34.6685 116.741C34.4971 116.933 34.3417 117.144 34.1783 117.344C33.3694 117.452 34.8598 116.538 34.6565 116.294C33.6045 117.368 32.5684 118.817 31.624 119.467C31.1498 119.3 33.5288 117.587 32.1261 118.306L33.5647 117.26C32.0942 117.631 34.4055 116.582 32.9869 116.845C31.1578 118.326 31.1259 118.693 29.3686 120.254C29.1614 120.8 29.7432 120.393 29.5359 120.94C27.4877 123.566 26.8501 121.97 25.6347 124.221C25.4235 124.895 25.6826 125.442 24.2998 126.548L24.3157 125.781C22.8015 127.506 24.0567 127.25 22.3273 128.93C22.4269 128.475 23.2837 127.398 23.0286 127.637C21.7734 128.639 22.5863 128.687 21.869 129.629L21.3629 129.569C20.6417 130.555 20.1077 131.756 19.4741 132.91C19.1792 133.5 18.8325 134.067 18.5695 134.69C18.3026 135.308 18.0356 135.927 17.7646 136.549C17.7128 136.358 17.7925 135.875 17.394 136.39C15.9196 139.471 14.5488 143.227 13.7638 146.511L13.959 147.836C13.9112 148.128 13.712 148.363 13.6841 148.036C13.4091 149.325 13.9072 148.128 14.0029 148.766C13.975 149.505 13.716 149.724 13.6363 149.245C13.6841 150.411 13.8235 152.051 13.971 153.688C14.0826 154.506 14.1264 155.328 14.2141 156.094C14.3097 156.861 14.3655 157.575 14.3535 158.194L14.1702 157.747C14.23 158.7 14.5966 159.175 14.8596 159.638C15.1386 160.101 15.3776 160.54 15.4892 161.414L15.3219 161.115C15.808 163.103 16.7126 165.082 17.7128 166.862C18.2149 167.748 18.7807 168.571 19.2749 169.369C19.8447 170.111 20.303 170.881 20.7652 171.544C21.1876 171.56 21.8571 172.342 22.5823 173.017C22.941 173.316 23.3913 173.679 23.6144 173.795C23.734 173.831 23.9053 173.847 24.1045 173.759C24.1962 173.871 24.0767 174.058 24.0727 174.146C24.0408 174.262 24.0049 174.286 23.989 174.489C23.9452 174.813 23.9093 175.06 23.8734 175.332C23.7937 175.882 23.8296 176.553 24.0049 178.237C24.2121 179.123 24.77 179.431 25.1924 180.44L24.8218 180.592L25.7224 181.861C25.6547 182.172 25.6427 182.468 25.6029 182.779L26.1368 183.685C25.9814 183.294 25.9256 182.807 26.0571 182.815C26.8183 184.224 27.7308 186.395 27.6033 186.547C28.4242 187.564 29.3407 188.486 30.305 189.329C30.2014 189.361 29.9902 189.233 29.7551 189.053C30.4804 189.732 29.4005 189.364 30.7713 190.31C30.6517 190.067 31.0343 190.235 31.1179 190.207C31.365 190.63 31.9309 191.153 32.5645 191.719C33.2299 192.246 33.995 192.781 34.6844 193.16L34.274 193.232C36.645 194.88 39.6297 196.014 42.6502 196.9C41.5982 196.457 42.0047 196.078 42.8853 196.289L43.1204 196.8C43.758 196.712 42.2477 196.377 43.495 196.409C44.5988 196.748 44.1366 197.075 43.4432 197.04C43.9134 197.123 44.3916 197.167 44.8618 197.231C44.9136 197.375 44.5749 197.363 44.4514 197.498C45.069 197.403 46.8024 198.42 47.715 198.101L47.7787 198.237C50.9109 198.66 52.3494 198.512 54.8957 198.464C54.9356 198.089 55.9318 198.165 56.6611 197.802C58.51 197.802 60.6021 197.794 62.8018 197.307C64.2961 196.764 63.1803 196.9 63.8179 196.525C64.0132 196.852 66.161 196.201 65.105 196.752C66.4001 196.365 67.213 196.078 68.0937 195.71C68.54 195.543 68.9903 195.327 69.5243 195.064C70.0582 194.804 70.6759 194.501 71.4091 194.062C71.0186 194.098 70.6201 194.222 70.7675 194.026C71.2975 193.715 72.0865 193.551 72.0786 193.731L71.9471 193.831C72.5607 193.455 73.1943 193.028 73.8957 192.681C74.3261 192.462 74.3539 192.442 74.5612 192.35C74.7285 192.274 74.8879 192.214 75.0274 192.17C75.2067 192.466 75.3462 192.737 75.4498 192.953C75.8363 193.439 76.2747 193.962 76.6811 194.429C77.498 195.287 78.3189 196.022 79.1637 196.449C80.0523 197.036 80.9888 197.53 81.9053 198.041C83.0848 198.883 81.0406 197.766 81.8216 198.532C84.9737 199.921 86.4321 201.378 89.1777 202.144C89.9906 203.01 91.8277 203.701 93.8082 204.184C95.7807 204.711 97.8927 204.962 99.3153 205.493L99.1798 205.237C99.9608 205.138 100.08 205.477 100.638 205.601C100.574 205.413 99.8373 205.309 100.323 205.233C103.539 205.457 106.871 205.517 110.242 205.122C113.597 204.703 116.984 203.789 120.041 202.232C121.164 201.669 121.28 201.17 121.523 200.759C121.77 200.34 122.077 199.925 123.472 199.211L123.021 200.081C124.898 198.404 126.747 196.656 128.329 194.685C128.748 194.214 129.114 193.699 129.473 193.188C129.828 192.673 130.218 192.178 130.509 191.632C130.812 191.093 131.111 190.554 131.41 190.019C131.553 189.748 131.661 189.464 131.784 189.185L131.872 188.977C131.884 188.941 131.884 188.929 131.892 188.902L131.92 188.758C131.94 188.937 132.099 188.906 131.983 189.133C132.103 188.985 132.087 189.077 132.135 189.033C132.163 189.021 132.187 189.001 132.203 188.985C132.23 188.941 132.242 188.886 132.302 188.882L132.382 188.834L132.406 188.818C132.406 188.818 132.45 188.81 132.35 188.798C132.438 188.79 132.521 188.778 132.597 188.77C132.9 188.73 133.091 188.674 133.099 188.61C133.9 188.686 133.274 188.854 133.777 189.005C134.924 189.181 136.498 188.399 137.1 188.53C137.164 188.546 137.052 188.606 136.909 188.662C137.311 188.534 137.917 188.403 138.395 188.219C139.009 187.992 139.443 187.796 139.061 187.736C140.921 187.217 142.232 186.02 143.54 185.301C144.105 184.463 146.074 183.314 145.867 182.687C146.046 182.947 146.672 182.404 147.297 181.638C147.911 180.855 148.437 179.814 148.612 179.239C148.584 179.682 149.246 178.405 149.25 178.936C149.389 178.616 149.561 178.393 149.732 177.83C149.816 177.399 149.828 177.243 149.852 176.992C149.883 176.557 149.836 176.301 149.664 176.373C150.963 174.206 149.967 171.62 151.055 170.414C151.083 166.547 150.744 163.023 150.142 159.666C150.728 159.706 150.637 163.414 151.191 163.226L151.198 163.23ZM17.1828 138.677C17.1748 138.481 16.7803 139.14 16.5333 139.567C16.6767 139.196 16.864 138.737 17.1031 138.278C17.2665 138.226 17.3342 138.389 17.1828 138.677ZM17.8881 136.617H17.8802C18.0196 136.31 18.1352 136.055 18.2109 135.891C18.1432 136.043 18.0475 136.254 17.8841 136.617H17.8881ZM82.248 81.1961C81.7897 81.0524 81.3076 80.9686 80.8055 80.9287C81.204 80.8489 81.6184 80.7571 82.0368 80.797C82.2161 80.9327 82.3237 81.1003 82.248 81.1961ZM86.2727 82.8205C86.2648 82.6129 86.2887 82.3176 86.3843 81.8546C86.5078 81.8387 86.6393 81.7908 86.7788 81.7349C86.5915 82.0861 86.4242 82.4493 86.2727 82.8205ZM106.667 89.3939C106.512 89.0746 106.361 88.7514 106.209 88.4321C106.357 88.4321 106.572 88.6276 106.926 89.2223C106.863 89.2942 106.775 89.378 106.663 89.3939H106.667Z" fill="#EDDECE"/>
<path d="M75.3063 81.707C75.3502 81.707 75.4099 81.695 75.4936 81.6511C75.4299 81.6671 75.3661 81.687 75.3063 81.707Z" fill="#EDDECE"/>
<path d="M24.7501 180.64L24.8378 180.604L24.6584 180.348L24.7501 180.64Z" fill="#EDDECE"/>
<path d="M104.304 81.4795C104.284 81.4955 104.284 81.5992 104.284 81.723C104.304 81.683 104.316 81.6112 104.304 81.4795Z" fill="#EDDECE"/>
<path d="M94.374 74.8381C94.3102 74.918 94.3023 74.9698 94.2943 75.0137H94.3063L94.374 74.8381Z" fill="#EDDECE"/>
<path d="M147.062 147.653C147.094 147.725 147.13 147.797 147.166 147.86C147.433 148.331 147.269 148.004 147.062 147.653Z" fill="#EDDECE"/>
<path d="M131.94 124.512C132.167 124.704 132.398 124.891 132.613 125.111C132.342 124.704 132.115 124.396 131.94 124.512Z" fill="#EDDECE"/>
<path d="M149.262 178.948V178.94C149.226 179.004 149.194 179.063 149.162 179.127L149.262 178.948Z" fill="#EDDECE"/>
<path d="M132.613 125.115C132.832 125.454 133.083 125.853 133.37 126.148C133.135 125.709 132.88 125.39 132.613 125.115Z" fill="#EDDECE"/>
<path d="M75.139 80.9088C75.1549 80.9287 75.1429 80.9527 75.131 80.9766L75.4298 80.813L75.1429 80.9088H75.139Z" fill="#EDDECE"/>
<path d="M75.127 80.9727L74.8441 81.1602C74.9796 81.0924 75.0991 81.0325 75.127 80.9727Z" fill="#EDDECE"/>
<path d="M74.2623 81.5513L74.848 81.1602C74.6329 81.2679 74.3579 81.3916 74.2623 81.5513Z" fill="#EDDECE"/>
<path d="M83.7423 80.8129L83.9017 80.749C83.838 80.749 83.7822 80.765 83.7423 80.8129Z" fill="#EDDECE"/>
<path d="M84.6031 81.3198C84.8581 81.5992 84.9179 81.9025 85.0374 81.8746C84.8581 81.5752 84.7545 81.0364 84.0332 80.7012L83.9017 80.7491C83.9974 80.7491 84.2564 80.8608 84.3201 80.9526C84.4078 81.0484 84.4995 81.1801 84.6071 81.3238L84.6031 81.3198Z" fill="#EDDECE"/>
<path d="M124.583 114.139L124.113 114.031L124.902 114.885L124.583 114.139Z" fill="#EDDECE"/>
<path d="M77.8846 84.4051C76.733 86.9674 75.6889 89.5776 74.1508 91.9404C72.6724 94.2074 71.0266 96.4065 69.2454 98.442C65.4836 102.744 61.0803 106.444 56.7209 110.116C52.5288 113.648 48.1414 117.009 44.1525 120.769C42.1402 122.664 40.1836 124.74 38.6375 127.043C37.8405 128.228 37.1591 129.469 36.4577 130.715C35.7883 131.904 34.9793 133.053 34.6486 134.394C34.3418 135.652 34.9634 136.402 36.2704 136.019C37.5775 135.636 39.1754 134.135 39.5102 132.774C39.7851 131.66 40.618 130.619 41.1719 129.621C41.8453 128.412 42.5466 127.282 43.4313 126.212C44.9216 124.404 46.663 122.788 48.4443 121.275C52.5567 117.779 56.7647 114.395 60.8652 110.878C65.2685 107.107 69.5363 103.203 73.2621 98.7453C75.1071 96.5342 76.7808 94.1874 78.3389 91.7688C79.9049 89.3381 80.9928 86.7 82.1763 84.0698C82.6107 83.104 82.9175 81.6871 81.4311 81.6751C80.0922 81.6631 78.3986 83.2676 77.8846 84.4051Z" fill="#DEBE9F"/>
<path d="M30.1018 145.422C29.6874 148.463 29.4722 151.524 29.4682 154.594C29.4682 155.088 29.5997 155.539 30.1217 155.711C30.6437 155.883 31.4168 155.595 31.8591 155.344C32.5804 154.933 33.2538 154.37 33.74 153.692C34.1225 153.157 34.5848 152.474 34.5848 151.792C34.5848 148.723 34.804 145.657 35.2184 142.62C35.2821 142.141 35.0311 141.658 34.5649 141.503C34.0349 141.327 33.2698 141.618 32.8275 141.87C31.5523 142.6 30.309 143.905 30.1018 145.422Z" fill="#DEBE9F"/>
<path d="M27.6192 169.333C29.0339 172.721 29.9464 176.306 31.4846 179.646C32.8992 182.723 34.808 185.657 37.0036 188.227C39.012 190.582 41.5225 193.308 44.4713 194.409C45.4755 194.785 46.5753 195.379 47.6353 195.547C49.6676 195.866 51.9948 193.815 52.461 191.919C52.7639 190.686 52.1462 189.879 50.8392 190.295C49.5321 190.71 47.9382 192.154 47.5994 193.539L47.5596 193.699C47.986 193.044 48.4163 192.394 48.8427 191.739L48.7391 191.835C49.3926 191.408 50.0422 190.977 50.6957 190.55C51.5206 190.318 51.2018 190.538 50.8511 190.362C50.6598 190.267 50.4447 190.211 50.2454 190.127C49.8389 189.955 49.4405 189.788 49.026 189.636C47.6871 189.149 46.7268 188.626 45.6588 187.672C43.5787 185.812 41.65 183.881 39.9923 181.626C38.3346 179.371 36.8562 176.816 35.7922 174.138C34.6605 171.297 33.8277 168.343 32.6482 165.517C31.6918 163.222 26.7904 167.349 27.6192 169.333Z" fill="#DEBE9F"/>
<path d="M92.9475 81.2122C92.9036 85.1076 93.2184 88.983 94.3302 92.7267C94.8762 94.5746 95.4619 96.4305 96.1115 98.2425C96.3705 98.9729 96.6773 99.6833 97.032 100.374C97.4026 101.1 97.8768 101.783 98.0441 102.593C98.3271 103.982 100.471 102.864 101.053 102.401C102.057 101.607 103.364 100.194 103.073 98.7773C102.918 98.023 102.495 97.3884 102.145 96.7179C101.758 95.9795 101.423 95.2172 101.14 94.4309C100.539 92.7387 99.9967 91.0065 99.4747 89.2903C98.3868 85.7222 98.0242 82.1302 98.0641 78.4104C98.08 76.9656 96.6056 77.1612 95.6731 77.6641C94.5295 78.2827 92.9634 79.7794 92.9475 81.2162V81.2122Z" fill="#DEBE9F"/>
<path d="M101.2 111.449C102.272 113.592 103.26 115.783 104.296 117.947C105.221 119.878 105.918 121.826 107.09 123.634C108.249 125.422 109.134 127.366 110.27 129.166C111.569 131.229 113.035 133.185 114.346 135.24C119.415 143.191 123.507 151.931 123.579 161.55C123.599 164.488 128.708 160.812 128.692 158.744C128.656 153.887 127.727 149.365 126.157 144.783C124.611 140.265 122.356 136.29 119.897 132.223C118.626 130.116 117.231 128.096 115.845 126.061C114.561 124.177 113.557 122.169 112.398 120.214C110.015 116.187 108.317 111.82 106.221 107.626C105.081 105.347 100.252 109.561 101.192 111.441L101.2 111.449Z" fill="#DEBE9F"/>
<path d="M125.476 173.891C125.492 177.052 125.659 180.213 125.456 183.37C125.364 184.811 125.221 186.279 124.874 187.688C124.699 188.387 124.5 189.085 124.253 189.764C124.157 190.023 123.966 190.382 124.245 189.927C123.958 190.398 123.587 190.805 123.36 191.32C122.962 192.218 122.591 193.795 124.105 193.715C125.468 193.643 127.118 192.19 127.652 190.985C127.433 191.233 127.441 191.209 127.672 190.921C127.875 190.626 128.074 190.323 128.265 190.019C128.532 189.556 128.748 189.065 128.947 188.57C129.214 187.912 129.421 187.229 129.608 186.543C130.083 184.811 130.374 183.027 130.521 181.239C130.796 177.862 130.605 174.474 130.589 171.089C130.581 169.672 129.138 169.804 128.198 170.343C127.078 170.985 125.468 172.442 125.472 173.895L125.476 173.891Z" fill="#DEBE9F"/>
<path d="M74.0352 118.733C73.4693 118.553 72.8995 118.677 72.3456 118.821C72.1145 118.881 71.8793 118.965 71.6522 119.068C71.4888 119.088 71.3215 119.128 71.1661 119.18C70.4368 119.44 69.7395 119.902 69.2095 120.465C67.9104 121.858 66.8823 123.387 66.1969 125.171C65.9498 125.817 65.6749 126.54 65.6709 127.234C65.6709 127.801 65.7586 128.212 66.0893 128.675C66.428 129.15 67.0019 129.298 67.5518 129.306C68.6954 129.326 69.7953 128.555 70.6879 127.933C71.4131 127.43 72.1025 126.843 72.6962 126.189C74.0232 124.728 75.3701 122.984 75.3382 120.904C75.3303 120.401 75.3103 119.986 75.0633 119.555C74.8282 119.144 74.4974 118.881 74.0312 118.733H74.0352Z" fill="#6F6A5F"/>
<path d="M109.497 134.279C105.715 130.04 100.674 126.871 95.1272 125.702C95.2866 125.574 95.4499 125.446 95.6133 125.326C95.9241 125.095 96.2469 124.871 96.5617 124.648C96.6494 124.592 96.7092 124.548 96.749 124.52C96.8327 124.468 96.9164 124.416 97.0001 124.365C99.1838 123.02 101.252 122.121 103.858 121.854C105.313 121.706 106.767 120.397 107.405 119.124C107.827 118.282 108.182 116.574 106.659 116.729C99.913 117.42 93.8281 121.778 89.3571 126.663C88.5521 127.541 86.7948 130.224 89.102 130.371C95.0554 130.754 100.614 134.211 104.587 138.521C104.794 139.06 105.416 139.264 106.245 139.048C106.293 139.036 106.345 139.024 106.392 139.008C107.5 138.721 108.54 137.647 109.134 136.737C109.548 136.099 110.118 134.973 109.497 134.279Z" fill="#6F6A5F"/>
<path d="M90.0066 139.02C89.9708 137.751 89.915 136.478 89.8472 135.208C89.8233 134.785 89.7914 134.438 89.389 134.203C89.0104 133.983 88.5003 134.015 88.1019 134.175C87.7273 134.326 87.3527 134.474 86.9781 134.626C86.8267 134.678 86.6713 134.721 86.5199 134.765C86.4362 134.765 86.2688 134.813 86.213 134.821C85.9261 134.857 85.6432 134.861 85.3563 134.853C84.643 134.757 83.9735 134.53 83.3359 134.195C82.3557 133.58 81.5188 132.782 80.7617 131.908C80.5664 131.68 80.144 131.628 79.8691 131.64C79.3032 131.668 78.7653 131.968 78.303 132.267C77.2869 132.929 76.4859 133.879 76.0356 135.013C74.3779 139.2 72.9394 143.482 71.8555 147.852C70.9669 151.444 70.2695 155.1 69.9706 158.788C69.7435 161.598 69.7554 164.436 70.142 167.233C70.397 169.069 70.8314 170.937 71.712 172.582C72.4413 173.939 73.3379 175.128 74.8043 175.731C76.3305 176.357 78.1237 175.858 79.4985 175.088C81.7539 173.819 83.4435 171.791 84.7785 169.612C86.0975 167.461 87.006 165.026 87.6954 162.608C88.6478 159.263 89.2256 155.807 89.5842 152.35C90.0425 147.924 90.1302 143.462 90.0066 139.016V139.02ZM86.5597 134.773C86.5597 134.773 86.5358 134.773 86.5199 134.773C86.5358 134.773 86.5517 134.773 86.5597 134.773ZM86.5119 134.769C86.472 134.781 86.4322 134.793 86.3923 134.805C86.1014 134.885 86.3923 134.781 86.5119 134.769ZM79.7216 170.853C79.7216 170.853 79.7137 170.853 79.7097 170.853C79.7256 170.845 79.7416 170.841 79.7615 170.833C79.7495 170.841 79.7336 170.845 79.7216 170.853ZM79.5383 170.921C79.5383 170.921 79.5662 170.917 79.5822 170.913C79.4387 170.973 79.351 170.997 79.5383 170.921ZM83.4874 161.63C83.4515 161.79 83.4156 161.953 83.3798 162.113C83.2961 162.476 83.2084 162.839 83.1128 163.202C82.9534 163.829 82.778 164.452 82.5868 165.07C82.4114 165.637 82.2202 166.204 82.0129 166.762C81.9173 167.022 81.8177 167.281 81.7101 167.541C81.6623 167.66 81.6145 167.776 81.5627 167.896C81.2239 168.626 80.8534 169.337 80.4349 170.023C80.415 170.055 80.3951 170.083 80.3712 170.115C80.2556 170.275 80.1361 170.434 80.0165 170.59C79.9607 170.65 79.901 170.714 79.8452 170.774C79.8213 170.79 79.8013 170.81 79.7774 170.825C79.7456 170.837 79.7177 170.849 79.6858 170.861C79.5423 170.877 79.3989 170.885 79.2514 170.885C78.9526 170.829 78.6656 170.734 78.3947 170.598C77.7292 170.159 77.2072 169.532 76.7888 168.858C75.9519 167.337 75.5096 165.609 75.2426 163.905C75.155 163.346 75.0912 162.787 75.0354 162.225C74.8043 159.195 74.9916 156.142 75.3941 153.133C75.5176 152.207 75.665 151.281 75.8324 150.359C75.9201 149.872 76.0117 149.389 76.1113 148.906C76.1592 148.675 76.207 148.447 76.2548 148.216C76.0834 149.062 76.2787 148.108 76.3265 147.892C76.8127 145.733 77.3905 143.59 78.044 141.474C78.311 140.608 78.5939 139.746 78.8808 138.888C79.2076 139.092 79.5503 139.275 79.9089 139.439C81.4551 140.137 83.2004 140.106 84.8103 139.663C85.1411 146.986 84.9777 154.442 83.4834 161.634L83.4874 161.63Z" fill="#B77F76"/>
<path d="M40.0959 106.029C39.3627 106.033 38.6295 106.217 37.9122 106.46C38.0158 105.933 38.0557 105.399 38.0039 104.872C37.8604 103.403 35.4137 104.756 34.9953 105.063C34.27 105.594 33.5766 106.225 32.9431 106.899C29.273 105.259 25.0649 104.301 21.1279 104.932C15.9077 105.77 11.3808 107.837 7.44776 111.385C3.63422 114.83 0.900591 119.495 0.123539 124.612C-0.621635 129.545 2.15982 133.8 5.82989 136.769C10.0459 140.182 16.083 142.568 21.5662 141.918C23.0526 141.742 24.4274 140.469 25.1128 139.188C25.5551 138.366 25.8739 136.613 24.3676 136.793C19.243 137.404 13.6482 134.953 9.81876 131.684C7.83429 129.988 6.20846 128.08 5.48321 125.526C4.79382 123.103 5.27998 120.685 6.24432 118.402C8.04947 114.123 11.9586 111.569 16.3301 110.471C19.2191 109.749 21.8691 109.629 24.7342 110.463C26.7067 111.038 28.7151 111.701 30.5481 112.615C30.4724 114.363 32.2816 113.624 33.4412 112.89C33.5527 112.954 33.6882 112.994 33.8556 113.006C33.9154 113.153 34.0748 113.337 34.1704 113.417C34.6765 113.84 35.4017 113.728 35.9755 113.541C37.3264 113.102 38.6733 112.108 39.6775 111.134C40.7933 110.052 43.3755 106.001 40.0959 106.025V106.029Z" fill="#6F6A5F"/>
<path d="M173.964 96.7617C173.769 95.7 172.753 95.3887 171.517 95.3967C171.665 94.9058 171.721 94.3869 171.653 93.8441C171.589 93.3413 170.936 93.1656 170.537 93.1896C169.473 93.2574 168.545 93.6326 167.692 94.1515C167.712 93.7962 167.724 93.433 167.736 93.0539C167.772 91.9603 166.871 91.7608 165.99 92.0202C164.763 92.3794 163.623 93.5248 163.034 94.6224C162.4 95.8038 161.822 96.7896 161.376 98.0708C161.324 98.2185 161.272 98.3661 161.217 98.5138C159.439 99.332 157.766 100.677 156.259 101.83C152.258 104.892 148.361 108.264 144.974 111.996C138.535 119.092 132.876 127.937 131.334 137.535C131.095 139.024 132.944 138.705 133.725 138.282C135.036 137.575 136.207 136.226 136.45 134.73C137.813 126.22 143.292 118.146 149.298 112.172C152.45 109.038 155.933 105.885 159.71 103.523C160.687 102.912 161.703 102.469 162.647 101.902C162.687 102.433 162.986 102.848 163.767 102.824C165.281 102.78 166.696 102.509 168.134 102.038C169.505 101.587 170.8 101.308 171.956 100.374C172.976 99.5515 174.239 98.1825 173.976 96.7497L173.964 96.7617ZM168.955 100.629C169.051 100.637 169.087 100.645 168.975 100.649C169.306 100.629 169.039 100.797 168.955 100.629Z" fill="#6F6A5F"/>
<path d="M63.535 230.374C64.0531 230.102 63.276 230.306 62.9971 230.286C62.6623 230.262 62.3276 230.186 62.0008 230.122C61.3274 229.991 60.654 229.831 59.9845 229.683C58.2391 229.292 56.685 228.67 55.1468 227.744C51.8474 225.76 49.2014 223.473 47.6234 219.873C44.5989 212.976 45.4118 204.687 49.6876 198.54C50.2215 197.774 51.1938 196.062 49.8788 195.527C48.6674 195.032 46.8463 196.708 46.2605 197.55C43.4273 201.625 41.2117 206.203 40.8491 211.224C40.5343 215.575 40.9288 220.176 42.8096 224.16C44.7822 228.338 47.9023 230.901 51.8713 233.1C53.6884 234.105 55.5573 234.588 57.5657 235.027C58.5659 235.247 59.5302 235.403 60.4786 235.375C60.3391 235.754 60.1638 236.125 59.9526 236.5C59.9446 236.516 59.9287 236.54 59.9128 236.56C58.3826 237.075 56.3981 239.051 56.5057 240.352C56.5216 240.523 56.5336 240.695 56.5455 240.867C56.6332 241.948 57.3106 242.164 58.2909 241.9C62.4352 240.775 65.5833 235.171 65.922 231.124C66.0455 229.635 64.3838 229.927 63.531 230.378L63.535 230.374Z" fill="#6F6A5F"/>
<path d="M166.381 178.556C166.321 178.568 166.261 178.584 166.198 178.596C164.62 178.936 163.066 180.903 162.83 182.432L162.799 182.647C162.751 182.967 162.799 183.198 162.91 183.37C162.791 183.665 162.631 184.004 162.555 184.172C162.081 183.082 161.531 182.029 160.93 181.003C159.555 178.652 158.136 176.565 156.084 174.753C152.119 171.257 147.76 168.459 142.663 166.938C131.35 163.558 119.642 167.433 110.063 173.623C104.787 177.032 100.216 182.037 96.9483 187.373C96.3745 188.311 96.3027 189.756 97.6935 189.768C99.1599 189.78 100.559 188.151 101.24 187.038C106.074 179.147 114.809 173.695 123.699 171.604C133.51 169.301 143.077 172.194 150.645 178.608C152.765 180.404 154.359 182.284 155.789 184.667C156.467 185.792 157.084 186.942 157.602 188.151C157.881 188.81 158.184 189.504 158.371 190.199C158.511 190.721 158.487 191.268 158.706 191.767C159.686 193.974 162.771 190.622 163.368 189.692C164.508 187.916 165.723 186.104 166.68 184.22C167.409 182.783 168.437 180.72 168.086 179.079C167.911 178.253 166.951 178.433 166.381 178.552V178.556Z" fill="#6F6A5F"/>
<path d="M12.6002 45.2758C13.0425 45.2758 13.4968 44.7968 13.6921 44.4376C13.8515 44.1423 13.9112 43.7032 13.4609 43.7032C13.0106 43.7032 12.5643 44.1822 12.3691 44.5414C12.2097 44.8367 12.1499 45.2758 12.6002 45.2758Z" fill="#ECD78E"/>
<path d="M52.1582 58.9255C49.3369 55.1179 44.826 52.799 40.327 53.0704C39.809 51.8811 39.1635 50.7476 38.4183 49.7178C37.3105 48.1852 35.8998 46.8482 34.1226 46.1418C31.9827 45.2917 29.6635 45.6908 27.5515 46.4092C26.1608 46.8801 24.7342 48.2252 24.3118 49.654C23.9452 50.8913 24.6385 51.7174 25.9336 51.2784C28.7669 50.3165 31.0741 51.0629 33.0347 53.2979C33.5328 53.8687 33.9751 54.4873 34.3736 55.1339C29.7392 58.3268 22.8772 67.2151 28.9582 71.7211C31.7396 73.7805 35.3938 71.6932 37.4619 69.5898C39.7771 67.235 41.3711 64.11 41.6819 60.8013C41.7457 60.1467 41.7536 59.4882 41.7217 58.8257C44.6865 60.031 47.2368 62.5335 48.6754 65.2355C51.4369 70.42 51.2895 76.3429 50.6559 81.9784C50.4367 83.9261 53.0069 82.8724 53.7083 82.2937C53.8079 82.2139 53.9035 82.1301 54.0032 82.0502C54.8838 81.3278 56.5097 79.7433 56.0235 78.4263C55.9836 78.3185 55.9318 78.2347 55.8761 78.1549C56.5256 71.5575 56.2785 64.4772 52.1621 58.9215L52.1582 58.9255ZM35.6448 66.6204C35.4854 66.8838 35.2065 67.3069 35.1586 67.3308C34.274 67.8098 33.3057 67.0036 32.7597 66.4009C32.0385 65.6106 31.5762 64.9282 31.7635 63.8426C31.9468 62.7889 32.425 61.6833 33.0108 60.7893C33.7241 59.6997 34.7004 58.8536 35.8799 58.4186C36.0473 58.9294 36.1947 59.4483 36.3103 59.9711C36.7924 62.1343 36.8283 64.6568 35.6488 66.6124L35.6448 66.6204Z" fill="#ECD78E"/>
<path d="M64.053 68.8595C63.9534 67.9335 64.1248 66.8878 64.1009 65.9699C64.065 64.7127 63.9654 63.4594 63.8498 62.2062C63.6466 59.9712 63.3756 57.7641 62.758 55.5969C61.5226 51.2385 59.2911 47.2394 56.8563 43.4518C56.147 42.3462 53.9354 44.0824 53.4174 44.6012C52.5925 45.4274 51.5246 46.8842 52.2697 48.0456C54.6248 51.7135 56.7089 55.6008 57.8406 59.8395C58.4184 62.0027 58.6734 64.2257 58.8488 66.4528C58.9364 67.5344 58.9882 68.62 58.9922 69.7056C58.9922 70.7872 58.8607 71.8968 59.056 72.9664C59.1516 73.5012 59.7454 73.605 60.1718 73.6209C60.2236 73.6209 60.2754 73.6209 60.3272 73.6249C62.0526 73.6848 64.9975 70.0369 64.0491 68.8635L64.053 68.8595Z" fill="#ECD78E"/>
<path d="M45.1567 38.5626C45.599 39.0535 46.0613 39.5324 46.4199 40.0912C46.6032 40.4344 46.7706 40.7896 46.9619 41.1289C47.185 41.528 47.456 41.8872 47.707 42.2624C47.7588 42.5178 47.8744 42.7493 48.1015 42.885C48.8069 43.5156 50.1936 42.7852 50.8312 42.2823C51.4807 41.7715 52.1063 41.1449 52.4809 40.3985C52.5766 40.183 52.6722 39.9675 52.7639 39.7559C52.8993 39.3967 52.9272 39.0335 52.8475 38.6584C52.8316 38.5027 52.7519 38.359 52.6403 38.2393C52.4212 37.8641 52.1542 37.5249 51.9191 37.1617C51.7318 36.8065 51.5604 36.4473 51.3652 36.096C51.0663 35.5612 50.7435 35.0903 50.3371 34.6313C49.6636 33.869 48.9623 33.1306 48.3685 32.3044C48.0736 31.8933 47.2448 32.053 46.8862 32.1647C46.1808 32.3882 45.4317 32.9231 44.9296 33.4499C44.4036 34.0007 43.8537 34.6592 43.6464 35.4096C43.499 35.9444 43.4432 36.4153 43.7859 36.8943C44.2043 37.481 44.6745 38.0238 45.1567 38.5586V38.5626Z" fill="#ECD78E"/>
</g>
<defs>
<clipPath id="clip0_1270_4383">
<rect width="174" height="242" fill="white"/>
</clipPath>
</defs>
</svg>
